<svg height="496pt" viewBox="0 0 496 496" width="496pt" xmlns="http://www.w3.org/2000/svg"><path d="m340.800781 452c2 3.519531 3.199219 7.601562 3.199219 12 0 13.28125-10.71875 24-24 24-12.320312 0-22.480469-9.28125-23.839844-21.199219-.082031-.960937-.160156-1.839843-.160156-2.800781 0-13.28125 10.71875-24 24-24 8.878906 0 16.640625 4.800781 20.71875 12zm0 0" fill="#ef7385"/><path d="m360 112c13.28125 0 24 10.71875 24 24 0 6.71875-2.71875 12.800781-7.199219 17.121094-4.320312 4.238281-10.242187 6.878906-16.800781 6.878906-13.28125 0-24-10.71875-24-24 0-6.558594 2.640625-12.480469 6.878906-16.800781 4.320313-4.480469 10.402344-7.199219 17.121094-7.199219zm0 0" fill="#ef7385"/><g fill="#fcd770"><path d="m452 340.800781c-7.199219-4.160156-12-11.921875-12-20.800781 0-13.28125 10.71875-24 24-24 .960938 0 1.839844.078125 2.800781.160156 11.917969 1.359375 21.199219 11.519532 21.199219 23.839844 0 13.28125-10.71875 24-24 24-4.398438 0-8.480469-1.199219-12-3.199219zm0 0"/><path d="m56 176c0 13.28125-10.71875 24-24 24-.960938 0-1.839844-.078125-2.800781-.160156-11.917969-1.359375-21.199219-11.519532-21.199219-23.839844 0-13.28125 10.71875-24 24-24 4.398438 0 8.480469 1.199219 12 3.199219v.082031c7.199219 4.078125 12 11.839844 12 20.71875zm0 0"/><path d="m215.28125 26.398438c.480469 1.839843.71875 3.679687.71875 5.601562 0 13.28125-10.71875 24-24 24-11.039062 0-20.320312-7.441406-23.121094-17.601562-.558594-2-.878906-4.160157-.878906-6.398438 0-13.28125 10.71875-24 24-24 11.359375 0 20.800781 7.839844 23.28125 18.398438zm0 0"/><path d="m88.160156 256c13.199219.078125 23.839844 10.800781 23.839844 24 0 9.921875-6 18.480469-14.640625 22.078125-2.878906 1.28125-6 1.921875-9.359375 1.921875-13.28125 0-24-10.71875-24-24s10.71875-24 24-24zm0 0"/></g><path d="m256 184c12.640625 0 22.960938 9.761719 23.921875 22.160156l.078125.078125c-4.960938 4.242188-8 10.640625-8 17.761719 0 2.800781.480469 5.519531 1.359375 8.078125-.480469-.078125-.878906-.078125-1.359375-.078125-3.121094 0-6.160156.558594-8.878906 1.761719-2.722656-10.242188-12-17.761719-23.121094-17.761719-2.160156 0-4.320312.320312-6.320312.878906-.878907-2.238281-1.441407-4.558594-1.601563-6.957031-.078125-.640625-.078125-1.28125-.078125-1.921875 0-7.039062 3.039062-13.441406 7.921875-17.761719 4.238281-3.839843 9.839844-6.238281 16.078125-6.238281zm0 0" fill="#ef7385"/><path d="m240 264c4.878906 0 9.441406-1.519531 13.28125-4 6.078125 4.078125 10.238281 10.878906 10.640625 18.640625.078125.398437.078125.878906.078125 1.359375 0 7.121094-3.039062 13.519531-8 17.761719-4.238281 3.917969-9.839844 6.238281-16 6.238281-2.71875 0-5.441406-.480469-7.921875-1.359375-7.359375-2.5625-13.199219-8.71875-15.277344-16.320313 8.878907-3.519531 15.199219-12.160156 15.199219-22.320312 0-.480469 0-.878906-.078125-1.359375 2.558594.878906 5.277344 1.359375 8.078125 1.359375zm0 0" fill="#ef7385"/><path d="m320 224c0 13.28125-10.71875 24-24 24-.480469 0-.960938 0-1.359375 0h-.082031c-3.039063-8.960938-11.359375-15.441406-21.199219-15.921875-.878906-2.558594-1.359375-5.277344-1.359375-8.078125 0-7.121094 3.039062-13.519531 8-17.761719 4.238281-3.917969 9.839844-6.238281 16-6.238281 13.28125 0 24 10.71875 24 24zm0 0" fill="#fcd770"/><path d="m216.800781 286.320312c2.078125 7.601563 7.917969 13.757813 15.277344 16.320313l-.078125 1.359375c0 13.28125-10.71875 24-24 24s-24-10.71875-24-24c0-8.320312 4.160156-15.601562 10.558594-19.921875l.082031-.078125c3.839844 2.480469 8.398437 4 13.359375 4 3.121094 0 6.078125-.558594 8.800781-1.679688zm0 0" fill="#fcd770"/><path d="m263.121094 233.761719c.558594 2 .878906 4.078125.878906 6.238281 0 8.398438-4.238281 15.679688-10.71875 20-3.839844 2.480469-8.402344 4-13.28125 4-2.800781 0-5.519531-.480469-8.078125-1.359375-.480469-9.839844-6.960937-18.160156-15.921875-21.199219v-.082031c0-.398437 0-.878906 0-1.359375 0-11.121094 7.441406-20.398438 17.679688-23.121094 2-.558594 4.160156-.878906 6.320312-.878906 11.121094 0 20.398438 7.519531 23.121094 17.761719zm0 0" fill="#fcd770"/><path d="m232.078125 209.921875c.160156 2.398437.722656 4.71875 1.601563 6.957031-10.238282 2.722656-17.679688 12-17.679688 23.121094v1.359375.082031c-2.480469-.960937-5.199219-1.441406-8-1.441406-8.960938 0-16.800781 4.960938-20.878906 12.238281-6.722656-4.238281-11.121094-11.757812-11.121094-20.238281 0-12.640625 9.761719-22.960938 22.160156-23.921875l.078125-.078125c4.242188 4.960938 10.640625 8 17.761719 8 6.160156 0 11.761719-2.320312 16-6.078125zm0 0" fill="#fcd770"/><path d="m294.558594 248c.960937 2.480469 1.441406 5.199219 1.441406 8 0 6.960938-2.960938 13.199219-7.679688 17.519531-4.242187 4-10 6.480469-16.320312 6.480469-2.800781 0-5.519531-.480469-8.078125-1.359375-.402344-7.761719-4.5625-14.5625-10.640625-18.640625 6.480469-4.320312 10.71875-11.601562 10.71875-20 0-2.160156-.320312-4.238281-.878906-6.238281 2.71875-1.203125 5.757812-1.761719 8.878906-1.761719.480469 0 .878906 0 1.359375.078125 9.839844.480469 18.160156 6.960937 21.199219 15.921875zm0 0" fill="#48cfad"/><path d="m304 296c0 13.28125-10.71875 24-24 24-12.640625 0-22.960938-9.761719-23.921875-22.160156l-.078125-.078125c4.960938-4.242188 8-10.640625 8-17.761719 0-.480469 0-.960938-.078125-1.359375 2.558594.878906 5.277344 1.359375 8.078125 1.359375 6.320312 0 12.078125-2.480469 16.320312-6.480469 9.199219 3.359375 15.679688 12.160157 15.679688 22.480469zm0 0" fill="#48cfad"/><path d="m231.921875 262.640625c.078125.480469.078125.878906.078125 1.359375 0 10.160156-6.320312 18.800781-15.199219 22.320312-2.722656 1.121094-5.679687 1.679688-8.800781 1.679688-4.960938 0-9.519531-1.519531-13.359375-4-6.402344-4.320312-10.640625-11.679688-10.640625-20 0-4.320312 1.121094-8.320312 3.121094-11.761719 4.078125-7.277343 11.917968-12.238281 20.878906-12.238281 2.800781 0 5.519531.480469 8 1.441406 8.960938 3.039063 15.441406 11.359375 15.921875 21.199219zm0 0" fill="#48cfad"/><path d="m232 208c0 .640625 0 1.28125.078125 1.921875h-.078125c-4.238281 3.757813-9.839844 6.078125-16 6.078125-7.121094 0-13.519531-3.039062-17.761719-8-3.917969-4.238281-6.238281-9.839844-6.238281-16 0-13.28125 10.71875-24 24-24 12.640625 0 23.039062 9.761719 23.921875 22.238281-4.882813 4.320313-7.921875 10.722657-7.921875 17.761719zm0 0" fill="#48cfad"/><path d="m296 192c-3.953125 0-7.695312.816406-11.199219 2.128906-5.214843-10.738281-16.257812-18.128906-28.800781-18.128906-3.953125 0-7.695312.816406-11.191406 2.128906-5.214844-10.746094-16.257813-18.128906-28.808594-18.128906-17.648438 0-32 14.351562-32 32 0 3.953125.816406 7.695312 2.128906 11.199219-10.738281 5.214843-18.128906 16.257812-18.128906 28.800781 0 8.6875 3.503906 16.777344 9.535156 22.71875-.902344 2.960938-1.535156 6.035156-1.535156 9.28125 0 7.566406 2.753906 14.441406 7.152344 19.921875-4.542969 5.621094-7.152344 12.652344-7.152344 20.078125 0 17.648438 14.351562 32 32 32 14.902344 0 27.351562-10.28125 30.894531-24.097656.371094.019531.730469.097656 1.105469.097656 3.953125 0 7.703125-.816406 11.199219-2.128906 5.214843 10.738281 16.257812 18.128906 28.800781 18.128906 17.648438 0 32-14.351562 32-32 0-9.808594-4.574219-18.910156-11.960938-24.894531 2.441407-4.519531 3.960938-9.609375 3.960938-15.105469 0-.375-.097656-.726562-.113281-1.105469 13.824219-3.535156 24.113281-15.984375 24.113281-30.894531 0-17.648438-14.351562-32-32-32zm-24 80c-.351562 0-.695312-.0625-1.046875-.089844-1.144531-4.398437-3.257813-8.460937-6.105469-11.988281 4.398438-5.480469 7.152344-12.355469 7.152344-19.921875 8.824219 0 16 7.175781 16 16s-7.175781 16-16 16zm-33.167969-16.097656c-2.152343-8.160156-7.398437-15.007813-14.464843-19.246094 1.542968-7.222656 7.960937-12.65625 15.632812-12.65625 8.824219 0 16 7.175781 16 16s-7.175781 16-16 16c-.390625 0-.777344-.070312-1.167969-.097656zm-46.832031 8.097656c0-8.824219 7.175781-16 16-16s16 7.175781 16 16-7.175781 16-16 16-16-7.175781-16-16zm79.433594-60.246094c-3.679688 4.453125-6.144532 9.855469-6.984375 15.847656-5.882813-7.035156-14.59375-11.601562-24.449219-11.601562 0-8.824219 7.175781-16 16-16 7.28125 0 13.550781 4.960938 15.433594 11.753906zm-55.433594-27.753906c7.28125 0 13.550781 4.960938 15.433594 11.753906-4.105469 4.972656-6.707032 11.148438-7.203125 17.964844-2.46875 1.480469-5.300781 2.28125-8.230469 2.28125-8.824219 0-16-7.175781-16-16s7.175781-16 16-16zm-20.246094 40.566406c4.710938 3.890625 10.492188 6.410156 16.886719 7.089844-1.5625 2.609375-2.761719 5.433594-3.535156 8.449219-.378907-.007813-.730469-.105469-1.105469-.105469-8.296875 0-15.800781 3.257812-21.488281 8.449219-1.574219-2.503907-2.511719-5.386719-2.511719-8.449219 0-7.28125 4.960938-13.550781 11.753906-15.433594zm12.246094 103.433594c-8.824219 0-16-7.175781-16-16 0-3.871094 1.433594-7.535156 3.894531-10.40625 3.746094 1.527344 7.816407 2.40625 12.105469 2.40625 1.425781 0 2.792969-.238281 4.167969-.425781 2.753906 4.90625 6.703125 8.953125 11.457031 11.800781-1.5625 7.210938-7.96875 12.625-15.625 12.625zm19.152344-30.519531c5.710937-4.3125 9.910156-10.441407 11.734375-17.570313.378906.011719.738281.089844 1.113281.089844 4.28125 0 8.351562-.871094 12.089844-2.40625 2.46875 2.863281 3.910156 6.519531 3.910156 10.40625 0 8.824219-7.175781 16-16 16-5.175781 0-9.886719-2.535156-12.847656-6.519531zm52.847656 22.519531c-7.28125 0-13.550781-4.960938-15.433594-11.753906 2.945313-3.566406 5.136719-7.726563 6.320313-12.34375.378906.019531.738281.097656 1.113281.097656 6.296875 0 12.128906-1.886719 17.078125-5.039062 4.21875 2.949218 6.921875 7.757812 6.921875 13.039062 0 8.824219-7.175781 16-16 16zm19.351562-72.367188c-4.246093-7.066406-11.085937-12.320312-19.246093-14.464843-.035157-.390625-.105469-.777344-.105469-1.167969 0-8.824219 7.175781-16 16-16s16 7.175781 16 16c0 7.671875-5.433594 14.089844-12.648438 15.632812zm0 0"/><path d="m392 136c0-17.648438-14.351562-32-32-32-6.457031 0-12.449219 1.953125-17.480469 5.257812-27.917969-19.082031-60.421875-29.257812-94.519531-29.257812-92.632812 0-168 75.367188-168 168 0 .375.023438.753906.023438 1.128906-13.777344 3.566406-24.023438 15.992188-24.023438 30.871094 0 17.648438 14.351562 32 32 32 1.566406 0 3.0625-.246094 4.566406-.464844 25.671875 62.746094 87.167969 104.464844 155.433594 104.464844 92.632812 0 168-75.367188 168-168 0-34.089844-10.175781-66.59375-29.246094-94.527344 3.292969-5.03125 5.246094-11.015625 5.246094-17.472656zm-32-16c8.824219 0 16 7.175781 16 16s-7.175781 16-16 16-16-7.175781-16-16 7.175781-16 16-16zm-288 160c0-8.824219 7.175781-16 16-16s16 7.175781 16 16-7.175781 16-16 16-16-7.175781-16-16zm176 120c-61.824219 0-117.503906-37.808594-140.6875-94.65625 7.664062-5.847656 12.6875-14.984375 12.6875-25.34375 0-14.855469-10.222656-27.273438-23.96875-30.855469-.007812-.382812-.03125-.761719-.03125-1.144531 0-83.816406 68.183594-152 152-152 30.136719 0 58.894531 8.785156 83.761719 25.273438-2.320313 4.429687-3.761719 9.390624-3.761719 14.726562 0 17.648438 14.351562 32 32 32 5.34375 0 10.304688-1.441406 14.734375-3.761719 16.488281 24.867188 25.265625 53.632813 25.265625 83.761719 0 83.816406-68.183594 152-152 152zm0 0"/><path d="m476.046875 290.390625c2.570313-13.910156 3.953125-28.117187 3.953125-42.390625 0-127.921875-104.078125-232-232-232-9.175781 0-18.375.695312-27.488281 1.769531-5.265625-10.488281-16-17.769531-28.511719-17.769531-17.648438 0-32 14.351562-32 32 0 .449219.113281.855469.128906 1.296875-51.914062 21.304687-95.089844 61.535156-120.074218 111.855469-2.582032-.671875-5.253907-1.152344-8.054688-1.152344-17.648438 0-32 14.351562-32 32 0 13.382812 8.265625 24.832031 19.953125 29.609375-2.570313 13.910156-3.953125 28.117187-3.953125 42.390625 0 127.921875 104.078125 232 232 232 14.273438 0 28.480469-1.382812 42.390625-3.953125 4.777344 11.6875 16.226563 19.953125 29.609375 19.953125 17.648438 0 32-14.351562 32-32 0-2.855469-.496094-5.566406-1.199219-8.207031 45.566407-22.578125 82.40625-59.417969 104.992188-104.992188 2.640625.703125 5.351562 1.199219 8.207031 1.199219 17.648438 0 32-14.351562 32-32 0-13.382812-8.265625-24.832031-19.953125-29.609375zm-284.046875-274.390625c8.824219 0 16 7.175781 16 16s-7.175781 16-16 16-16-7.175781-16-16 7.175781-16 16-16zm-160 144c8.824219 0 16 7.175781 16 16s-7.175781 16-16 16-16-7.175781-16-16 7.175781-16 16-16zm288 320c-8.824219 0-16-7.175781-16-16s7.175781-16 16-16 16 7.175781 16 16-7.175781 16-16 16zm22.992188-38.167969c-5.824219-6.039062-13.960938-9.832031-22.992188-9.832031-16.328125 0-29.6875 12.335938-31.609375 28.152344-13.246094 2.503906-26.789063 3.847656-40.390625 3.847656-119.105469 0-216-96.894531-216-216 0-13.601562 1.34375-27.144531 3.847656-40.390625 15.816406-1.921875 28.152344-15.28125 28.152344-31.609375 0-9.078125-3.839844-17.246094-9.9375-23.070312 22.984375-46.730469 62.792969-84.195313 110.746094-104.257813 5.640625 9.152344 15.671875 15.328125 27.191406 15.328125 17.144531 0 31.054688-13.566406 31.847656-30.511719 8.015625-.894531 16.089844-1.488281 24.152344-1.488281 119.105469 0 216 96.894531 216 216 0 13.601562-1.34375 27.144531-3.847656 40.390625-15.816406 1.921875-28.152344 15.28125-28.152344 31.609375 0 9.03125 3.792969 17.167969 9.839844 22.992188-21.121094 43.007812-55.847656 77.742187-98.847656 98.839843zm121.007812-105.832031c-8.824219 0-16-7.175781-16-16s7.175781-16 16-16 16 7.175781 16 16-7.175781 16-16 16zm0 0"/></svg>