<svg height="496pt" viewBox="0 0 496 496" width="496pt" xmlns="http://www.w3.org/2000/svg"><path d="m317.121094 74.878906c36.640625 21.042969 65.597656 58.402344 80.238281 104.242188 2.5625 8 1.601563 16.71875-2.320313 24.160156-7.199218 13.757812-11.039062 29.117188-11.039062 44.71875s3.839844 30.960938 11.039062 44.71875c3.921876 7.441406 4.882813 16.160156 2.320313 24.160156-23.039063 72-81.199219 123.121094-149.359375 123.121094-24.71875 0-48.160156-6.71875-69.121094-18.878906-53.757812-30.882813-90.878906-96.800782-90.878906-173.121094 0-28.160156 5.039062-54.960938 14.160156-79.039062 4.878906-13.121094 12.878906-24.640626 22.878906-34 10-9.28125 22.160157-16.402344 35.601563-20.640626 4.878906-1.519531 9.519531-3.761718 13.839844-6.640624 11.28125-7.519532 19.359375-18.960938 22.640625-32.160157l2.558594-10.640625c15.28125-5.757812 31.519531-8.878906 48.320312-8.878906 24.800781 0 48.238281 6.71875 69.121094 18.878906zm0 0" fill="#5cd6b3"/><g fill="#ef7385"><path d="m320 376c0 8.835938-7.164062 16-16 16s-16-7.164062-16-16 7.164062-16 16-16 16 7.164062 16 16zm0 0"/><path d="m192 360c0 8.835938-7.164062 16-16 16s-16-7.164062-16-16 7.164062-16 16-16 16 7.164062 16 16zm0 0"/><path d="m152 192c0 8.835938-7.164062 16-16 16s-16-7.164062-16-16 7.164062-16 16-16 16 7.164062 16 16zm0 0"/></g><path d="m248 152c44.160156 0 80 42.960938 80 96s-35.839844 96-80 96-80-42.960938-80-96 35.839844-96 80-96zm0 0" fill="#ffeaa7"/><path d="m248 176c-30.351562 0-56 32.96875-56 72h16c0-29.832031 18.6875-56 40-56zm0 0"/><path d="m160 248c0 57.34375 39.480469 104 88 104s88-46.65625 88-104-39.480469-104-88-104-88 46.65625-88 104zm160 0c0 48.519531-32.304688 88-72 88s-72-39.480469-72-88 32.304688-88 72-88 72 39.480469 72 88zm0 0"/><path d="m272 272c0 4.417969-3.582031 8-8 8s-8-3.582031-8-8 3.582031-8 8-8 8 3.582031 8 8zm0 0"/><path d="m280 200c0 4.417969-3.582031 8-8 8s-8-3.582031-8-8 3.582031-8 8-8 8 3.582031 8 8zm0 0"/><path d="m224 288c0 4.417969-3.582031 8-8 8s-8-3.582031-8-8 3.582031-8 8-8 8 3.582031 8 8zm0 0"/><path d="m248 232c0 4.417969-3.582031 8-8 8s-8-3.582031-8-8 3.582031-8 8-8 8 3.582031 8 8zm0 0"/><path d="m136 280c0 4.417969-3.582031 8-8 8s-8-3.582031-8-8 3.582031-8 8-8 8 3.582031 8 8zm0 0"/><path d="m352 320c0 4.417969-3.582031 8-8 8s-8-3.582031-8-8 3.582031-8 8-8 8 3.582031 8 8zm0 0"/><path d="m368 192c0 4.417969-3.582031 8-8 8s-8-3.582031-8-8 3.582031-8 8-8 8 3.582031 8 8zm0 0"/><path d="m248 112c0 4.417969-3.582031 8-8 8s-8-3.582031-8-8 3.582031-8 8-8 8 3.582031 8 8zm0 0"/><path d="m304 248c0 4.417969-3.582031 8-8 8s-8-3.582031-8-8 3.582031-8 8-8 8 3.582031 8 8zm0 0"/><path d="m256 312c0 4.417969-3.582031 8-8 8s-8-3.582031-8-8 3.582031-8 8-8 8 3.582031 8 8zm0 0"/><path d="m496 64v-16h-16v-48h-16v48h-16v-32h-16v32h-16v-48h-16v48h-16v-16h-16v16h-16v-32h-16v32h-3.3125l-17.191406 17.191406c-20.9375-11.023437-43.832032-17.191406-67.496094-17.191406-17.40625 0-34.609375 3.175781-51.121094 9.449219l-3.917968 1.488281-3.648438 14.65625c-2.792969 11.269531-9.65625 21.023438-19.320312 27.460938-3.640626 2.433593-7.609376 4.328124-11.792969 5.648437-29.238281 9.226563-53 31.457031-63.550781 59.457031-9.710938 25.785156-14.648438 53.328125-14.648438 81.839844 0 74.910156 34.792969 140.296875 86.136719 174.550781l-9.449219 9.449219h-156.6875v16h16v48h16v-48h16v32h16v-32h16v48h16v-48h16v16h16v-16h16v32h16v-32h3.3125l17.007812-17.007812c20.71875 10.902343 43.609376 17.007812 67.679688 17.007812 69.238281 0 132.335938-51.710938 156.992188-128.679688 3.160156-9.839843 2.121093-20.878906-2.839844-30.289062-6.648438-12.597656-10.152344-26.792969-10.152344-41.03125s3.503906-28.433594 10.152344-41.023438c4.960937-9.417968 6-20.457031 2.839844-30.289062-14.28125-44.574219-41.496094-80.589844-75.28125-103.085938l9.601562-9.601562zm-106.238281 117.566406c1.871093 5.847656 1.246093 12.226563-1.769531 17.945313-7.839844 14.894531-11.992188 31.65625-11.992188 48.488281s4.152344 33.59375 11.992188 48.496094c3.015624 5.710937 3.640624 12.089844 1.769531 17.945312-22.539063 70.320313-79.503907 117.558594-141.761719 117.558594-19.695312 0-38.503906-4.609375-55.792969-12.894531l29.449219-29.449219-11.3125-11.3125-32.6875 32.6875c-48.488281-30.785156-81.65625-92.289062-81.65625-163.03125 0-26.574219 4.585938-52.214844 13.632812-76.207031 8.839844-23.449219 28.800782-42.074219 53.398438-49.832031 5.625-1.777344 10.960938-4.328126 15.847656-7.59375 12.992188-8.65625 22.210938-21.765626 25.96875-36.910157l1.601563-6.457031c13.496093-4.648438 27.445312-7 41.550781-7 19.367188 0 38.222656 4.585938 55.6875 13l-29.34375 29.34375 11.3125 11.3125 32.488281-32.488281c32.070313 20.34375 58.078125 54.160156 71.617188 96.398437zm0 0"/><path d="m304 352c-13.230469 0-24 10.769531-24 24s10.769531 24 24 24 24-10.769531 24-24-10.769531-24-24-24zm0 32c-4.40625 0-8-3.585938-8-8s3.59375-8 8-8 8 3.585938 8 8-3.59375 8-8 8zm0 0"/><path d="m176 336c-13.230469 0-24 10.769531-24 24s10.769531 24 24 24 24-10.769531 24-24-10.769531-24-24-24zm0 32c-4.40625 0-8-3.585938-8-8s3.59375-8 8-8 8 3.585938 8 8-3.59375 8-8 8zm0 0"/><path d="m160 192c0-13.230469-10.769531-24-24-24s-24 10.769531-24 24 10.769531 24 24 24 24-10.769531 24-24zm-24 8c-4.40625 0-8-3.585938-8-8s3.59375-8 8-8 8 3.585938 8 8-3.59375 8-8 8zm0 0"/></svg>