<svg height="496pt" viewBox="0 0 496 496.016" width="496pt" xmlns="http://www.w3.org/2000/svg"><path d="m488.007812 384c0 8.835938-7.160156 16-16 16-8.835937 0-16-7.164062-16-16s7.164063-16 16-16c8.839844 0 16 7.164062 16 16zm0 0" fill="#fcd770"/><path d="m472.007812 120v64l-48 24-48-24v-64l48-24zm0 0" fill="#fcd770"/><path d="m424.007812 208v64l-48 24-48-24v-64l48-24zm0 0" fill="#b4dd7f"/><path d="m376.007812 296v64l-48 24-20.71875-10.320312c3.121094-12.078126 4.71875-24.640626 4.71875-37.679688 0-16.960938-2.796874-33.199219-7.839843-48.398438l-.160157-3.601562 24-12zm0 0" fill="#ffc729"/><path d="m376.007812 120v64l-48 24-48-24v-64c5.203126 0 9.839844-2.558594 12.722657-6.398438l35.277343-17.601562zm0 0" fill="#b4dd7f"/><path d="m328.007812 208v64l-24 12-.957031.480469c-11.761719-32.558594-34.402343-59.921875-63.441406-77.839844l-1.28125-1.839844 41.679687-20.800781zm0 0" fill="#fcd770"/><path d="m304.167969 287.601562c-.398438-1.042968-.796875-2.082031-1.117188-3.121093-11.761719-32.558594-34.402343-59.921875-63.441406-77.839844-.160156-.082031-.320313-.242187-.480469-.320313-9.601562-5.839843-15.121094-16.558593-15.121094-27.761718v-122.558594h-128v122.800781c0 11.121094-5.4375 21.679688-14.878906 27.4375-48.078125 29.28125-78.71875 84.320313-72.238281 146.082031 7.277344 70.078126 63.679687 126.960938 133.757813 134.71875 78.402343 8.722657 146.5625-42.320312 164.640624-113.359374 3.121094-12.078126 4.71875-24.640626 4.71875-37.679688 0-16.960938-2.796874-33.199219-7.839843-48.398438zm0 0" fill="#e6e9ed"/><path d="m280.007812 88c-8.796874 0-16 7.199219-16 16s7.203126 16 16 16c5.203126 0 9.839844-2.558594 12.722657-6.398438 2.078125-2.722656 3.277343-6 3.277343-9.601562 0-8.800781-7.199218-16-16-16zm0 0" fill="#fcd770"/><path d="m248.96875 15.039062c4.320312 4.320313 7.039062 10.320313 7.039062 16.960938 0 13.28125-10.71875 24-24 24h-144c-6.636718 0-12.636718-2.71875-16.957031-7.039062-4.320312-4.320313-7.042969-10.320313-7.042969-16.960938 0-13.28125 10.722657-24 24-24h144c6.640626 0 12.640626 2.71875 16.960938 7.039062zm0 0" fill="#aab2bd"/><path d="m160.007812 424h-.796874c-17.441407 0-33.28125-7.039062-44.640626-18.558594-11.519531-11.363281-18.5625-27.203125-18.5625-44.640625 0-11.039062 2.882813-21.839843 8.320313-31.359375l55.679687-97.441406 55.679688 97.441406c5.441406 9.519532 8.320312 20.320313 8.320312 31.359375 0 34.878907-28.320312 63.199219-63.199218 63.199219zm0 0" fill="#b4dd7f"/><path d="m160.007812 215.871094-62.613281 109.578125c-6.144531 10.757812-9.386719 22.984375-9.386719 35.34375 0 36.832031 28.113282 67.214843 64 70.847656v32.359375h16v-32.367188c35.890626-3.625 64-34.015624 64-70.847656 0-12.359375-3.238281-24.578125-9.382812-35.335937zm8 199.601562v-52.816406l22.402344-29.863281-12.800781-9.59375-9.601563 12.800781v-48h-16v84.6875l-18.34375-18.34375-11.3125 11.3125 29.65625 29.65625v20.160156c-27.039062-3.550781-48-26.6875-48-54.6875 0-9.585937 2.511719-19.066406 7.273438-27.402344l48.726562-85.253906 48.730469 85.261719c4.757813 8.335937 7.269531 17.808594 7.269531 27.402344 0 27.992187-20.957031 51.128906-48 54.679687zm0 0"/><path d="m379.585938 226.929688-7.152344-14.3125-20.425782 10.214843v34.335938l20.425782 10.214843 7.152344-14.3125-11.578126-5.789062v-14.5625zm0 0"/><path d="m480.007812 361.472656v-70.417968l-48-24v-54.109376l43.578126-21.792968-7.160157-14.3125-44.417969 22.214844-40-20v-54.109376l40-20 44.425782 22.207032 7.160156-14.3125-43.585938-21.785156v-59.054688h-16v59.054688l-40 20-44.421874-22.207032-7.160157 14.3125 43.582031 21.785156v54.109376l-40 20-40-20v-52.527344c9.289063-3.3125 16-12.113282 16-22.527344 0-13.230469-10.765624-24-24-24-13.230468 0-24 10.769531-24 24 0 10.414062 6.714844 19.214844 16 22.527344v52.527344l-33.375 16.6875c-4.167968-4.460938-6.625-10.621094-6.625-17.167969v-114.574219c17.648438 0 32-14.351562 32-32s-14.351562-32-32-32h-144c-17.648437 0-32 14.351562-32 32s14.351563 32 32 32v114.832031c0 8.535157-4.238281 16.425781-11.078124 20.574219-53.390626 32.515625-82.519532 91.425781-76.023438 153.730469 7.71875 74.007812 66.949219 133.664062 140.839844 141.847656 6.214844.6875 12.390625 1.03125 18.519531 1.03125 39.449219-.007813 76.6875-14.160156 106.421875-40.777344 21.347656-19.109375 36.9375-43.429687 45.570312-70.167969l7.75 3.875v64l52.425782 26.207032 7.160156-14.3125-43.585938-21.785156v-54.109376l43.578126-21.792968 4.421874-2.207032v-64l40-20 40 20v60.527344c-9.285156 3.3125-16 12.113282-16 22.527344 0 13.230469 10.769532 24 24 24 13.234376 0 24-10.769531 24-24 0-10.414062-6.710937-19.214844-16-22.527344zm-160-148.527344v54.109376l-12.710937 6.351562c-11.28125-26.558594-29.71875-49.789062-53.945313-67.140625l26.65625-13.320313zm-40-116.945312c4.417969 0 8 3.585938 8 8s-3.582031 8-8 8c-4.414062 0-8-3.585938-8-8s3.585938-8 8-8zm-23.984374 347.320312c-30.910157 27.679688-70.855469 40.414063-112.503907 35.757813-66.46875-7.359375-119.75-61.023437-126.703125-127.597656-5.839844-56.105469 20.375-109.136719 68.441406-138.390625 7.824219-4.761719 13.574219-12.335938 16.527344-21.089844h50.222656v-16h-48v-16h64v-16h-64v-16h48v-16h-48v-16h64v-16h-64v-32h-16c-8.824218 0-16-7.175781-16-16s7.175782-16 16-16h144c8.824219 0 16 7.175781 16 16s-7.175781 16-16 16h-96v16h80v114.574219c0 14.226562 7.242188 27.488281 18.914063 34.609375 43.253906 26.410156 69.085937 72.320312 69.085937 122.816406 0 40.902344-17.496093 80.015625-47.984374 107.320312zm71.984374-68.265624-11.519531-5.757813c2.320313-10.863281 3.519531-22.015625 3.519531-33.296875 0-16.398438-2.519531-32.34375-7.183593-47.464844l15.183593-7.589844 40 20v54.109376zm88-108-40 20-40-20v-54.109376l40-20 40 20zm56 124.945312c-4.414062 0-8-3.585938-8-8s3.585938-8 8-8c4.417969 0 8 3.585938 8 8s-3.582031 8-8 8zm0 0"/></svg>