<svg height="496pt" viewBox="0 0 496.00193 496" width="496pt" xmlns="http://www.w3.org/2000/svg"><path d="m336 96v64c0-6.640625-2.71875-12.640625-7.039062-16.960938-4.320313-4.316406-10.320313-7.039062-16.960938-7.039062h-8v-16c-12.957031 0-25.757812-2.078125-37.917969-6.160156-12.160156-4.078125-23.679687-10-34.082031-17.839844l-2.71875 4c-4.160156 6.242188-9.757812 11.199219-16.160156 14.722656-6.398438 3.359375-13.597656 5.277344-21.121094 5.277344v16h-8c-13.277344 0-24 10.722656-24 24v-86.71875c0-15.121094 9.683594-28.480469 24-33.28125 7.523438-10.078125 17.28125-18.078125 28.242188-23.519531 10.960937-5.519531 23.121093-8.480469 35.757812-8.480469 24.320312 0 46.320312 9.839844 62.242188 25.761719 15.917968 15.917969 25.757812 37.917969 25.757812 62.238281zm0 0" fill="#b27946"/><g fill="#f0d0b4"><path d="m216 213.921875c22.5625 9.519531 27.203125 10.078125 32 10.078125 11.921875 0 22.960938-3.679688 32-10.078125v26.078125l-32 32-32-32zm0 0"/><path d="m328.960938 143.039062c4.320312 4.320313 7.039062 10.320313 7.039062 16.960938 0 13.28125-10.71875 24-24 24h-10.316406c1.519531-5.039062 2.316406-10.398438 2.316406-16v-32h8c6.640625 0 12.640625 2.722656 16.960938 7.039062zm0 0"/><path d="m304 136v32c0 5.601562-.796875 10.960938-2.316406 16-3.683594 12.320312-11.363282 22.800781-21.683594 29.921875-9.039062 6.398437-20.078125 10.078125-32 10.078125-4.796875 0-9.4375-.558594-32-10.078125-2.71875-1.839844-5.277344-4-7.597656-6.320313-6.480469-6.480468-11.441406-14.5625-14.082032-23.601562-1.519531-5.039062-2.320312-10.398438-2.320312-16v-48c7.523438 0 14.722656-1.917969 21.121094-5.277344 6.402344-3.523437 12-8.480468 16.160156-14.722656l2.71875-4c10.402344 7.839844 21.921875 13.761719 34.082031 17.839844 12.160157 4.082031 24.960938 6.160156 37.917969 6.160156zm0 0"/><path d="m194.320312 184h-10.320312c-6.636719 0-12.636719-2.71875-16.957031-7.039062-4.320313-4.320313-7.042969-10.320313-7.042969-16.960938 0-13.277344 10.722656-24 24-24h8v32c0 5.601562.800781 10.960938 2.320312 16zm0 0"/></g><path d="m456 360 12.882812 38.722656-1.601562.558594c-2.160156.480469-4.558594.71875-7.28125.71875-22 0-22-16-44.078125-16-22 0-22 16-44 16-3.441406 0-6.320313-.398438-8.878906-1.039062l12.957031-38.960938v-48h80zm0 0" fill="#e6e9ed"/><path d="m483.28125 284.722656c-2.878906-2.960937-6.878906-4.722656-11.28125-4.722656h-112c-8.796875 0-16 7.199219-16 16 0 4.402344 1.761719 8.402344 4.722656 11.28125 2.878906 2.960938 6.878906 4.71875 11.277344 4.71875h112c8.800781 0 16-7.199219 16-16 0-4.398438-1.757812-8.398438-4.71875-11.277344zm0 0" fill="#aab2bd"/><path d="m147.28125 284.722656c-2.878906-2.960937-6.878906-4.722656-11.28125-4.722656h-112c-8.796875 0-16 7.199219-16 16 0 4.402344 1.761719 8.402344 4.722656 11.28125 2.878906 2.960938 6.878906 4.71875 11.277344 4.71875h112c8.800781 0 16-7.199219 16-16 0-4.398438-1.757812-8.398438-4.71875-11.277344zm0 0" fill="#aab2bd"/><path d="m184 328h128v32h-128zm0 0" fill="#e6e9ed"/><path d="m184 440v-80h128v112c0 8.800781-7.199219 16-16 16h-96c-8.796875 0-16-7.199219-16-16zm0 0" fill="#e6e9ed"/><path d="m125.203125 360c10 8.082031 17.757813 18.722656 22.320313 30.882812-6.082032 4.398438-11.523438 9.117188-23.523438 9.117188-22 0-22-16-44.078125-16-22 0-22 16-44 16-11.921875 0-17.359375-4.71875-23.441406-9.039062 5.363281-14.320313 15.042969-26.480469 27.519531-34.800782v-44.160156h80v48zm0 0" fill="#e6e9ed"/><path d="m486.5625 451.761719c.960938 2.800781 1.4375 5.757812 1.4375 8.71875 0 15.199219-12.316406 27.519531-27.519531 27.519531h-88.957031c-7.601563 0-14.480469-3.039062-19.441407-8.078125-5.039062-4.960937-8.082031-11.839844-8.082031-19.441406 0-2.960938.480469-5.917969 1.441406-8.71875l17.601563-52.800781c2.558593.640624 5.4375 1.039062 8.878906 1.039062 22 0 22-16 44-16 22.078125 0 22.078125 16 44.078125 16 2.722656 0 5.121094-.238281 7.28125-.71875l1.601562-.558594zm0 0" fill="#fcd770"/><path d="m147.523438 390.882812c2.878906 7.839844 4.476562 16.316407 4.476562 25.117188 0 40.480469-33.359375 73.121094-74.078125 72-38.078125-1.117188-69.679687-33.359375-69.921875-71.4375-.078125-9.042969 1.523438-17.601562 4.480469-25.601562 6.082031 4.320312 11.519531 9.039062 23.441406 9.039062 22 0 22-16 44-16 22.078125 0 22.078125 16 44.078125 16 12 0 17.441406-4.71875 23.523438-9.117188zm0 0" fill="#69d6f4"/><path d="m376 312v48h-64v-32h-128v32h-58.796875c-1.679687-1.359375-3.441406-2.640625-5.203125-3.839844v-44.160156h16c8.800781 0 16-7.199219 16-16 0-4.398438-1.757812-8.398438-4.71875-11.277344-2.878906-2.960937-6.878906-4.722656-11.28125-4.722656h-16.238281c6.082031-9.4375 15.519531-16.71875 26.960937-20l44.960938-12.960938.316406.960938 16 56 40-32 40 32 16-56 .320312-.960938 44.960938 12.960938c11.359375 3.28125 20.800781 10.480469 26.878906 19.839844l-.160156.160156h-16c-8.796875 0-16 7.199219-16 16 0 4.402344 1.761719 8.402344 4.722656 11.28125 2.878906 2.960938 6.878906 4.71875 11.277344 4.71875zm0 0" fill="#ffeaa7"/><path d="m304.320312 247.039062-.320312.960938-16 56-40-32 32-32zm0 0" fill="#ffc729"/><path d="m248 272-40 32-16-56-.316406-.960938 24.316406-7.039062zm0 0" fill="#ffc729"/><path d="m336 336v-16h-176v16h16v136c0 13.234375 10.769531 24 24 24h96c13.234375 0 24-10.765625 24-24v-136zm-32 136c0 4.417969-3.582031 8-8 8h-96c-4.414062 0-8-3.582031-8-8v-24h48v-16h-48v-16h32v-16h-32v-16h48v-16h-48v-32h112zm0 0"/><path d="m464 358.703125v-38.703125h8c13.234375 0 24-10.765625 24-24 0-13.230469-10.765625-24-24-24h-91.871094c-7.253906-9.375-17.160156-16.390625-28.605468-19.695312l-63.523438-18.320313v-16.101563c8.457031-6.792968 15.144531-15.683593 19.289062-25.882812h4.710938c17.648438 0 32-14.351562 32-32v-64c0-52.933594-43.0625-96-96-96-26.75 0-52.324219 12.402344-68.917969 33.289062-16.296875 6.519532-27.082031 22.28125-27.082031 40.007813v86.703125c0 17.648438 14.355469 32 32 32h4.714844c4.144531 10.199219 10.832031 19.089844 19.285156 25.882812v16.101563l-63.519531 18.320313c-11.453125 3.304687-21.351563 10.320312-28.605469 19.695312h-91.875c-13.230469 0-24 10.769531-24 24 0 13.234375 10.769531 24 24 24h8v32.007812c-20.292969 15.226563-32.175781 39.050782-32 64.570313.304688 42.597656 35.179688 78.207031 77.738281 79.390625.757813.015625 1.527344.03125 2.296875.03125 20.957032 0 40.679688-7.992188 55.742188-22.648438 15.625-15.183593 24.222656-35.558593 24.222656-57.351562 0-25.285156-11.878906-48.894531-32-63.992188v-32.007812h8c13.234375 0 24-10.765625 24-24 0-12.230469-9.230469-22.238281-21.070312-23.703125 3.113281-1.9375 6.417968-3.582031 9.984374-4.617187l37.3125-10.765626 17.382813 60.839844 44.390625-35.503906 44.394531 35.511719 17.382813-60.839844 37.3125 10.765625c3.566406 1.035156 6.871094 2.679688 9.984375 4.617188-11.839844 1.457031-21.074219 11.464843-21.074219 23.695312 0 13.234375 10.769531 24 24 24h8v38.703125l-30.167969 90.523437c-1.214843 3.628907-1.832031 7.414063-1.832031 11.246094 0 19.59375 15.9375 35.527344 35.53125 35.527344h88.933594c19.601562 0 35.535156-15.933594 35.535156-35.527344 0-3.832031-.613281-7.609375-1.828125-11.238281zm-339.382812 103.179687c-12.496094 12.15625-28.808594 18.703126-46.445313 18.085938-34.035156-.9375-61.929687-29.433594-62.171875-63.496094-.03125-4.359375.488281-8.632812 1.3125-12.816406 4.648438 2.433594 10.496094 4.34375 18.640625 4.34375 13.601563 0 20.863281-5.277344 26.703125-9.527344 5.167969-3.757812 8.898438-6.472656 17.296875-6.472656 8.410156 0 12.136719 2.714844 17.304687 6.472656 5.847657 4.25 13.113282 9.527344 26.71875 9.527344 8.175782 0 14.042969-1.917969 18.707032-4.359375.789062 4.039063 1.316406 8.152344 1.316406 12.359375 0 17.433594-6.878906 33.730469-19.382812 45.882812zm19.382812-165.882812c0 4.417969-3.582031 8-8 8h-24v56.417969l3.546875 2.375c9.640625 6.457031 17.078125 15.28125 21.96875 25.367187-3.601563 2.328125-7.265625 3.839844-13.539063 3.839844-8.40625 0-12.144531-2.710938-17.3125-6.472656-5.832031-4.246094-13.109374-9.527344-26.710937-9.527344-13.597656 0-20.863281 5.28125-26.703125 9.527344-5.160156 3.761718-8.894531 6.472656-17.296875 6.472656-6.238281 0-9.902344-1.511719-13.488281-3.832031 4.890625-10.085938 12.335937-18.917969 21.984375-25.382813l3.550781-2.367187v-40.417969h48v-16h-72c-4.414062 0-8-3.582031-8-8 0-4.414062 3.585938-8 8-8h112c4.417969 0 8 3.585938 8 8zm168-120h-.550781c.328125-2.621094.550781-5.285156.550781-8v-24c8.824219 0 16 7.175781 16 16s-7.175781 16-16 16zm-125.46875-128.414062 2.367188-.792969 1.503906-1.992188c13.519531-18.03125 35.054687-28.800781 57.597656-28.800781 44.113281 0 80 35.890625 80 80v36.449219c-4.726562-2.753907-10.140625-4.449219-16-4.449219v-16h-8c-24.070312 0-47.933594-7.949219-67.199219-22.398438l-6.765625-5.082031-7.378906 11.074219c-6.847656 10.269531-18.308594 16.40625-30.65625 16.40625h-8v16c-5.855469 0-11.269531 1.695312-16 4.449219v-59.152344c0-11.679687 7.449219-22.007813 18.53125-25.710937zm-2.53125 128.414062c-8.820312 0-16-7.175781-16-16s7.179688-16 16-16v24c0 2.714844.226562 5.378906.554688 8zm16-8v-40.597656c13.488281-2.058594 25.699219-9.257813 34.042969-20.21875 18.464843 12.023437 39.976562 19.167968 61.957031 20.5625v40.253906c0 26.472656-21.527344 48-48 48-26.46875 0-48-21.527344-48-48zm48 64c8.488281 0 16.585938-1.695312 24-4.710938v9.398438l-24 24-24-24v-9.398438c7.417969 3.015626 15.515625 4.710938 24 4.710938zm-46.398438 20.480469 12.082032-3.488281 22.34375 22.34375-23.632813 18.90625zm82.007813 37.761719-23.632813-18.90625 22.34375-22.34375 12.082032 3.488281zm76.390625 13.757812c-4.414062 0-8-3.582031-8-8 0-4.414062 3.585938-8 8-8h112c4.417969 0 8 3.585938 8 8 0 4.417969-3.582031 8-8 8h-72v16h48v41.296875l10.1875 30.542969c-7.066406-.390625-10.769531-2.855469-15.523438-6.3125-5.832031-4.246094-13.109374-9.527344-26.710937-9.527344-13.597656 0-20.863281 5.28125-26.703125 9.527344-4.726562 3.441406-8.425781 5.898437-15.433594 6.304687l10.183594-30.535156v-57.296875zm100.472656 176h-88.941406c-10.769531 0-19.53125-8.757812-19.53125-19.527344 0-2.105468.339844-4.175781 1-6.175781l15.496094-46.488281c1.144531.074218 2.25.191406 3.457031.191406 13.601563 0 20.863281-5.277344 26.703125-9.527344 5.167969-3.757812 8.898438-6.472656 17.296875-6.472656 8.410156 0 12.136719 2.714844 17.304687 6.472656 5.847657 4.25 13.113282 9.527344 26.71875 9.527344 1.25 0 2.3125-.246094 3.480469-.335938l15.542969 46.625c.664062 2 1 4.078126 1 6.175782 0 10.777344-8.757812 19.535156-19.527344 19.535156zm0 0"/></svg>