<svg height="496pt" viewBox="0 0 496 496" width="496pt" xmlns="http://www.w3.org/2000/svg"><path d="m440 192v24h-48v-24c0-6.640625 2.71875-12.640625 7.039062-16.960938 4.320313-4.320312 10.320313-7.039062 16.960938-7.039062s12.640625 2.71875 16.960938 7.039062c4.320312 4.320313 7.039062 10.320313 7.039062 16.960938zm0 0" fill="#969faa"/><path d="m392 216h56c4.398438 0 8 3.601562 8 8v48c0 22.078125-17.921875 40-40 40s-40-17.921875-40-40v-48c0-4.398438 3.601562-8 8-8zm0 0" fill="#dfb28b"/><g fill="#f0d0b4"><path d="m253.839844 328c-.71875 1.199219-1.519532 2.320312-2.558594 3.28125-2.882812 2.957031-6.882812 4.71875-11.28125 4.71875-8.800781 0-16-7.199219-16-16v-24h-32v16c0 8.800781 7.199219 16 16 16-8.800781 0-16 7.199219-16 16 0 4.398438 1.761719 8.398438 4.71875 11.28125 2.882812 2.957031 6.882812 4.71875 11.28125 4.71875-8.800781 0-16 7.199219-16 16 0 4.398438 1.761719 8.398438 4.71875 11.28125 2.882812 2.957031 6.882812 4.71875 11.28125 4.71875-8.800781 0-16 7.199219-16 16 0 4.398438 1.761719 8.398438 4.71875 11.28125 2.882812 2.957031 6.882812 4.71875 11.28125 4.71875h-45.359375c-6.878906 0-13.601563-2.238281-19.199219-6.398438l-23.441406-17.601562h-120v-112h120l23.441406-17.601562c5.597656-4.160157 12.320313-6.398438 19.199219-6.398438h77.359375c8.800781 0 16 7.199219 16 16v40c0 2.878906-.800781 5.679688-2.160156 8zm0 0"/><path d="m272 360c8.800781 0 16 7.199219 16 16s-7.199219 16-16 16h-64c-4.398438 0-8.398438-1.761719-11.28125-4.71875-2.957031-2.882812-4.71875-6.882812-4.71875-11.28125 0-8.800781 7.199219-16 16-16zm0 0"/><path d="m272 392c8.800781 0 16 7.199219 16 16s-7.199219 16-16 16h-64c-4.398438 0-8.398438-1.761719-11.28125-4.71875-2.957031-2.882812-4.71875-6.882812-4.71875-11.28125 0-8.800781 7.199219-16 16-16zm0 0"/><path d="m283.28125 300.71875c2.957031 2.882812 4.71875 6.882812 4.71875 11.28125 0 8.800781-7.199219 16-16 16h-18.160156c1.359375-2.320312 2.160156-5.121094 2.160156-8v-24h16c4.398438 0 8.398438 1.761719 11.28125 4.71875zm0 0"/><path d="m272 328c4.398438 0 8.398438 1.761719 11.28125 4.71875 2.957031 2.882812 4.71875 6.882812 4.71875 11.28125 0 8.800781-7.199219 16-16 16h-64c-4.398438 0-8.398438-1.761719-11.28125-4.71875-2.957031-2.882812-4.71875-6.882812-4.71875-11.28125 0-8.800781 7.199219-16 16-16-8.800781 0-16-7.199219-16-16v-16h32v24c0 8.800781 7.199219 16 16 16 4.398438 0 8.398438-1.761719 11.28125-4.71875 1.039062-.960938 1.839844-2.082031 2.558594-3.28125zm0 0"/></g><path d="m208 424h48v32c0 17.679688-14.320312 32-32 32-8.800781 0-16.800781-3.601562-22.640625-9.359375-5.757813-5.839844-9.359375-13.839844-9.359375-22.640625v-32zm0 0" fill="#838f9b"/><path d="m240 230.960938v33.039062h-32v-33.121094c5.199219.722656 10.558594 1.121094 16 1.121094s10.800781-.398438 16-1.121094zm0 0" fill="#ffeaa7"/><path d="m224 8c61.839844 0 112 50.160156 112 112 0 56.398438-41.761719 103.121094-96 110.878906-5.199219.722656-10.558594 1.121094-16 1.121094s-10.800781-.398438-16-1.121094c-54.238281-7.757812-96-54.480468-96-110.878906 0-61.839844 50.160156-112 112-112zm0 0" fill="#e6e9ed"/><path d="m232 112v32c0 22.078125 17.839844 39.921875 39.921875 40-13.363281 10.078125-29.921875 16-47.921875 16-44.160156 0-80-35.839844-80-80s35.839844-80 80-80c11.199219 0 21.921875 2.320312 31.601562 6.558594-4.640624 4.402344-7.601562 10.5625-7.601562 17.441406v24h-8c-4.398438 0-8 3.601562-8 8zm0 0" fill="#69d6f4"/><path d="m297.28125 88h-49.28125v-24c0-6.878906 2.960938-13.039062 7.601562-17.441406 18.636719 8 33.597657 22.882812 41.679688 41.441406zm0 0" fill="#aab2bd"/><path d="m248 88h49.28125c4.320312 9.761719 6.71875 20.640625 6.71875 32 0 26.160156-12.558594 49.359375-32 63.921875v.078125h-.078125c-22.082031-.078125-39.921875-17.921875-39.921875-40v-48c0-4.398438 3.601562-8 8-8zm0 0" fill="#dfb28b"/><path d="m344 120c0-66.167969-53.832031-120-120-120s-120 53.832031-120 120c0 57.953125 41.289062 106.433594 96 117.585938v18.414062h-37.335938c-8.59375 0-17.121093 2.839844-23.992187 8l-21.335937 16h-117.335938v16h122.664062l25.601563-19.199219c4.132813-3.097656 9.238281-4.800781 14.398437-4.800781h77.335938c4.414062 0 8 3.59375 8 8v40c0 4.40625-3.585938 8-8 8s-8-3.59375-8-8v-32h-43.304688l-3.726562 3.710938c-13.082031 13.089843-30.472656 20.289062-48.96875 20.289062v16c17.441406 0 34.039062-5.265625 48.105469-14.929688.261719 5.738282 2.527343 10.929688 6.132812 14.929688-3.839843 4.257812-6.238281 9.832031-6.238281 16s2.40625 11.742188 6.238281 16c-3.839843 4.257812-6.238281 9.832031-6.238281 16s2.40625 11.742188 6.238281 16c-3.839843 4.257812-6.238281 9.832031-6.238281 16 0 2.816406.574219 5.488281 1.472656 8h-22.808594c-5.160156 0-10.265624-1.703125-14.398437-4.800781l-25.601563-19.199219h-122.664062v16h117.335938l21.335937 16c6.871094 5.160156 15.398437 8 23.992187 8h21.335938v24c0 22.054688 17.945312 40 40 40s40-17.945312 40-40v-24h8c13.230469 0 24-10.769531 24-24 0-6.167969-2.40625-11.742188-6.238281-16 3.839843-4.257812 6.238281-9.832031 6.238281-16s-2.40625-11.742188-6.238281-16c3.839843-4.257812 6.238281-9.832031 6.238281-16s-2.40625-11.742188-6.238281-16c3.839843-4.257812 6.238281-9.832031 6.238281-16 0-13.230469-10.769531-24-24-24h-8v-8c0-10.414062-6.710938-19.214844-16-22.527344v-19.898437c54.710938-11.140625 96-59.621094 96-117.574219zm-224 0c0-57.34375 46.65625-104 104-104s104 46.65625 104 104-46.65625 104-104 104-104-46.65625-104-104zm120 224c7.0625 0 13.359375-3.128906 17.761719-8h14.238281c4.414062 0 8 3.59375 8 8s-3.585938 8-8 8h-64c-4.414062 0-8-3.59375-8-8s3.585938-8 8-8h14.238281c4.402344 4.871094 10.699219 8 17.761719 8zm40 32c0 4.40625-3.585938 8-8 8h-64c-4.414062 0-8-3.59375-8-8s3.585938-8 8-8h64c4.414062 0 8 3.59375 8 8zm-64-56h-8c-4.414062 0-8-3.59375-8-8v-8h16zm32 136c0 13.230469-10.769531 24-24 24s-24-10.769531-24-24v-24h48zm24-40h-64c-4.414062 0-8-3.59375-8-8s3.585938-8 8-8h64c4.414062 0 8 3.59375 8 8s-3.585938 8-8 8zm0-112c4.414062 0 8 3.59375 8 8s-3.585938 8-8 8h-8v-16zm-40-48h-16v-16.40625c2.65625.175781 5.296875.40625 8 .40625s5.34375-.230469 8-.40625zm0 0"/><path d="m312 120c0-48.519531-39.480469-88-88-88s-88 39.480469-88 88 39.480469 88 88 88 88-39.480469 88-88zm-32 45.152344v-53.152344h-16v62.863281c-13.769531-3.574219-24-16-24-30.863281v-48h51.800781c2.671875 7.519531 4.199219 15.574219 4.199219 24 0 17.097656-6.015625 32.792969-16 45.152344zm3.824219-85.152344h-27.824219v-16c0-2.671875.710938-5.199219 1.929688-7.472656 10.429687 5.601562 19.335937 13.6875 25.894531 23.472656zm-131.824219 40c0-39.695312 32.296875-72 72-72 6.59375 0 12.945312.96875 19.007812 2.632812-1.917968 4.167969-3.007812 8.710938-3.007812 13.367188v16c-8.824219 0-16 7.175781-16 16v8h-10.230469l-6.175781-18.527344-15.167969 5.0625 9.804688 29.464844h21.769531v16h-21.769531l-9.824219 29.472656 15.167969 5.0625 6.195312-18.535156h10.957031c2.585938 15.289062 12.394532 28.121094 25.808594 34.871094-8.222656 3.273437-17.160156 5.128906-26.535156 5.128906-39.703125 0-72-32.304688-72-72zm0 0"/><path d="m464 264v-16h21.769531l9.824219-29.472656-15.167969-5.0625-6.195312 18.535156h-10.230469v-8c0-8.824219-7.175781-16-16-16v-16c0-5.921875-1.726562-11.390625-4.535156-16.152344l12.535156-12.535156v-27.3125h-16v20.6875l-7.847656 7.847656c-4.761719-2.816406-10.230469-4.535156-16.152344-4.535156s-11.390625 1.71875-16.152344 4.535156l-7.847656-7.847656v-20.6875h-16v27.3125l12.535156 12.535156c-2.816406 4.761719-4.535156 10.230469-4.535156 16.152344v16c-8.824219 0-16 7.175781-16 16v8h-10.230469l-6.175781-18.527344-15.167969 5.0625 9.804688 29.464844h21.769531v16h-21.769531l-9.824219 29.472656 15.167969 5.0625 6.195312-18.535156h10.957031c3.824219 22.664062 23.539063 40 47.28125 40 23.746094 0 43.449219-17.335938 47.28125-40h10.957032l6.179687 18.527344 15.167969-5.0625-9.824219-29.464844zm-64-72c0-8.824219 7.175781-16 16-16s16 7.175781 16 16v16h-32zm48 80c0 14.863281-10.230469 27.289062-24 30.863281v-62.863281h-16v62.863281c-13.769531-3.574219-24-16-24-30.863281v-48h64zm0 0"/><path d="m232 456c0 4.417969-3.582031 8-8 8s-8-3.582031-8-8 3.582031-8 8-8 8 3.582031 8 8zm0 0"/></svg>