<svg height="496pt" viewBox="0 0 496 496" width="496pt" xmlns="http://www.w3.org/2000/svg"><path d="m248 8c-132.558594 0-240 107.441406-240 240 0 27.441406 4.640625 53.839844 13.199219 78.398438 32.402343 94.082031 121.679687 161.601562 226.800781 161.601562 37.039062 0 72.160156-8.398438 103.441406-23.441406 49.4375-23.597656 89.519532-63.679688 113.117188-113.117188 15.042968-31.28125 23.441406-66.402344 23.441406-103.441406 0-132.558594-107.441406-240-240-240zm0 0" fill="#e6e9ed"/><path d="m264 248c0-22.089844-10.746094-40-24-40s-24 17.910156-24 40 10.746094 40 24 40 24-17.910156 24-40zm0 0" fill="#ef7385"/><path d="m396 292c10.878906 10.878906 9.519531 31.121094-1.519531 52-5.121094 9.761719-12.402344 19.679688-21.601563 28.878906-9.199218 9.199219-19.117187 16.480469-28.878906 21.601563-20.878906 11.039062-41.121094 12.398437-52 1.519531s-9.519531-31.121094 1.519531-52c5.121094-9.761719 12.402344-19.679688 21.601563-28.878906 9.199218-9.199219 19.117187-16.480469 28.957031-21.601563 20.882813-11.039062 41.121094-12.320312 51.921875-1.519531zm0 0" fill="#5cd6b3"/><path d="m374.640625 129.359375c5.757813 5.839844 9.359375 13.839844 9.359375 22.640625s-3.601562 16.800781-9.359375 22.640625c-5.839844 5.757813-13.839844 9.359375-22.640625 9.359375s-16.800781-3.601562-22.640625-9.359375c-5.757813-5.839844-9.359375-13.839844-9.359375-22.640625s3.601562-16.800781 9.359375-22.640625c5.839844-5.757813 13.839844-9.359375 22.640625-9.359375s16.800781 3.601562 22.640625 9.359375zm0 0" fill="#ffc729"/><path d="m214.640625 353.359375c5.757813 5.839844 9.359375 13.839844 9.359375 22.640625s-3.601562 16.800781-9.359375 22.640625c-5.839844 5.757813-13.839844 9.359375-22.640625 9.359375s-16.800781-3.601562-22.640625-9.359375c-5.757813-5.839844-9.359375-13.839844-9.359375-22.640625s3.601562-16.800781 9.359375-22.640625c5.839844-5.757813 13.839844-9.359375 22.640625-9.359375s16.800781 3.601562 22.640625 9.359375zm0 0" fill="#fcd770"/><path d="m230.640625 89.359375c5.757813 5.839844 9.359375 13.839844 9.359375 22.640625s-3.601562 16.800781-9.359375 22.640625c-5.839844 5.757813-13.839844 9.359375-22.640625 9.359375s-16.800781-3.601562-22.640625-9.359375c-5.757813-5.839844-9.359375-13.839844-9.359375-22.640625s3.601562-16.800781 9.359375-22.640625c5.839844-5.757813 13.839844-9.359375 22.640625-9.359375s16.800781 3.601562 22.640625 9.359375zm0 0" fill="#fcd770"/><path d="m152 248c0 12.71875-1.839844 24.640625-5.039062 34.960938-6.800782 22.078124-19.921876 37.039062-34.960938 37.039062s-28.160156-14.960938-34.960938-37.039062c-3.199218-10.320313-5.039062-22.320313-5.039062-34.960938 0-12.71875 1.839844-24.640625 5.039062-34.960938 6.800782-22.078124 19.921876-37.039062 34.960938-37.039062s28.160156 14.960938 34.960938 37.039062c3.199218 10.320313 5.039062 22.320313 5.039062 34.960938zm0 0" fill="#5cd6b3"/><path d="m248 0c-136.742188 0-248 111.246094-248 248s111.257812 248 248 248 248-111.246094 248-248-111.257812-248-248-248zm0 480c-127.929688 0-232-104.078125-232-232s104.070312-232 232-232 232 104.078125 232 232-104.070312 232-232 232zm0 0"/><path d="m120 360v-33.152344c12.265625-3.304687 22.816406-14.054687 30-29.535156l28.34375 28.34375 11.3125-11.3125-33.710938-33.710938c2-7.632812 3.328126-15.890624 3.824219-24.632812h32.230469v-16h-32.230469c-.496093-8.734375-1.824219-17-3.824219-24.632812l33.710938-33.710938-11.3125-11.3125-28.34375 28.34375c-7.183594-15.480469-17.734375-26.230469-30-29.535156v-33.152344h-16v33.152344c-12.265625 3.304687-22.816406 14.054687-30 29.535156l-28.34375-28.34375-11.3125 11.3125 33.710938 33.710938c-1.992188 7.632812-3.320313 15.898437-3.824219 24.632812h-32.230469v16h32.230469c.496093 8.734375 1.824219 17 3.824219 24.632812l-33.710938 33.710938 11.3125 11.3125 28.34375-28.34375c7.183594 15.480469 17.734375 26.230469 30 29.535156v33.152344zm-40-112c0-37.71875 16.863281-64 32-64s32 26.28125 32 64-16.863281 64-32 64-32-26.28125-32-64zm0 0"/><path d="m406.871094 336c.761718-2.054688 1.441406-4.105469 2.023437-6.144531 4.183594-14.648438 3.25-27.457031-2.375-37.0625l24.03125-24.03125-11.3125-11.3125-24.039062 24.039062c-11.261719-6.542969-26.734375-6.382812-43.191407-.3125v-41.175781h-16v48.800781c-7.007812 4.09375-14 9.152344-20.726562 15.167969l-23.402344-23.402344-11.3125 11.3125 23.394532 23.402344c-5.90625 6.613281-10.960938 13.605469-15.128907 20.726562h-45.527343l5.253906-5.253906-11.3125-11.3125-23.230469 23.230469c-6.3125-4.199219-13.878906-6.671875-22.015625-6.671875s-15.695312 2.472656-22.023438 6.664062l-23.234374-23.230468-11.308594 11.308594 23.230468 23.234374c-2.785156 4.191407-4.816406 8.925782-5.855468 14.023438h-32.808594v16h32.808594c1.039062 5.097656 3.070312 9.824219 5.855468 14.023438l-23.230468 23.242187 11.308594 11.308594 23.234374-23.230469c4.199219 2.785156 8.925782 4.816406 14.023438 5.855469v32.800781h16v-32.808594c5.097656-1.039062 9.824219-3.070312 14.023438-5.855468l23.234374 23.230468 11.308594-11.308594-23.230468-23.234374c2.785156-4.191407 4.816406-8.925782 5.855468-14.023438h32.808594v-16h-32.808594c-1.039062-5.097656-3.070312-9.824219-5.855468-14.023438l14.664062-14.664062v12.6875h41.128906c-.761718 2.054688-1.441406 4.105469-2.023437 6.144531-4.183594 14.648438-3.25 27.457031 2.375 37.0625l-24.03125 24.03125 11.3125 11.3125 24.046875-24.046875c5.65625 3.289063 12.328125 4.96875 19.710937 4.96875 7.320313 0 15.28125-1.601562 23.480469-4.625v41.152344h16v-48.824219c7-4.085937 13.953125-9.183593 20.671875-15.183593l23.449219 23.457031 11.3125-11.3125-23.394532-23.402344c5.90625-6.613281 10.960938-13.605469 15.128907-20.726563h48.832031v-16h-41.128906zm-214.871094 64c-13.230469 0-24-10.769531-24-24s10.769531-24 24-24 24 10.769531 24 24-10.769531 24-24 24zm175.230469-32.769531c-27.308594 27.3125-58.574219 34.105469-69.574219 23.113281-5.488281-5.496094-6.648438-15.625-3.167969-27.808594 4-13.992187 13.328125-28.832031 26.273438-41.773437 19.0625-19.066407 40.054687-28.128907 54.734375-28.128907 6.351562 0 11.519531 1.695313 14.839844 5.015626 5.488281 5.496093 6.648437 15.625 3.167968 27.808593-4 14-13.328125 28.832031-26.273437 41.773438zm0 0"/><path d="m174.664062 134.023438-23.230468 23.242187 11.308594 11.308594 23.234374-23.230469c4.199219 2.785156 8.925782 4.816406 14.023438 5.855469v32.800781h16v-32.808594c5.097656-1.039062 9.824219-3.070312 14.023438-5.855468l23.234374 23.230468 11.308594-11.308594-23.230468-23.234374c2.785156-4.191407 4.816406-8.925782 5.855468-14.023438h32.808594v-16h-32.808594c-1.039062-5.097656-3.070312-9.824219-5.855468-14.023438l23.230468-23.242187-11.308594-11.308594-23.234374 23.230469c-4.199219-2.785156-8.925782-4.816406-14.023438-5.855469v-32.800781h-16v32.808594c-5.097656 1.039062-9.824219 3.070312-14.023438 5.855468l-23.234374-23.230468-11.308594 11.308594 23.230468 23.234374c-2.785156 4.191407-4.816406 8.925782-5.855468 14.023438h-32.808594v16h32.808594c1.039062 5.097656 3.070312 9.824219 5.855468 14.023438zm33.335938-46.023438c13.230469 0 24 10.769531 24 24s-10.769531 24-24 24-24-10.769531-24-24 10.769531-24 24-24zm0 0"/><path d="m312.808594 144h-32.808594v16h32.808594c1.039062 5.097656 3.070312 9.824219 5.855468 14.023438l-23.230468 23.242187 11.308594 11.308594 23.234374-23.230469c4.199219 2.785156 8.925782 4.816406 14.023438 5.855469v32.800781h16v-32.808594c5.097656-1.039062 9.824219-3.070312 14.023438-5.855468l23.234374 23.230468 11.308594-11.308594-23.230468-23.234374c2.785156-4.191407 4.816406-8.925782 5.855468-14.023438h32.808594v-16h-32.808594c-1.039062-5.097656-3.070312-9.824219-5.855468-14.023438l23.230468-23.242187-11.308594-11.308594-23.234374 23.230469c-4.199219-2.785156-8.925782-4.816406-14.023438-5.855469v-32.800781h-16v32.808594c-5.097656 1.039062-9.824219 3.070312-14.023438 5.855468l-23.234374-23.230468-11.308594 11.308594 23.230468 23.234374c-2.785156 4.191407-4.816406 8.925782-5.855468 14.023438zm39.191406-16c13.230469 0 24 10.769531 24 24s-10.769531 24-24 24-24-10.769531-24-24 10.769531-24 24-24zm0 0"/><path d="m240 200c-17.945312 0-32 21.089844-32 48s14.054688 48 32 48 32-21.089844 32-48-14.054688-48-32-48zm0 80c-7.550781 0-16-13.6875-16-32s8.449219-32 16-32 16 13.6875 16 32-8.449219 32-16 32zm0 0"/><path d="m232 232h16v32h-16zm0 0"/><path d="m344 144h16v16h-16zm0 0"/><path d="m184 368h16v16h-16zm0 0"/><path d="m200 104h16v16h-16zm0 0"/><path d="m96 216h16v16h-16zm0 0"/><path d="m112 248h16v16h-16zm0 0"/><path d="m96 280h16v16h-16zm0 0"/><path d="m304 368h16v16h-16zm0 0"/><path d="m328 328h16v16h-16zm0 0"/><path d="m336 360h16v16h-16zm0 0"/><path d="m368 312h16v16h-16zm0 0"/></svg>