<svg height="496pt" viewBox="0 0 496 496" width="496pt" xmlns="http://www.w3.org/2000/svg"><path d="m136 240v128h-32v-128zm0 0" fill="#fcd770"/><path d="m104 344v24h-64v-128h64zm0 0" fill="#e6e9ed"/><path d="m168 352v16h-32v-128h32zm0 0" fill="#fcd770"/><path d="m483.28125 396.71875c2.957031 2.882812 4.71875 6.882812 4.71875 11.28125 0 8.800781-7.199219 16-16 16h-32c-4.398438 0-8.398438 1.761719-11.28125 4.71875-2.957031 2.882812-4.71875 6.882812-4.71875 11.28125 0 8.800781 7.199219 16 16 16h16c4.398438 0 8.398438 1.761719 11.28125 4.71875 2.957031 2.882812 4.71875 6.882812 4.71875 11.28125 0 8.800781-7.199219 16-16 16h-152c17.679688 0 32-14.320312 32-32v-88c4.398438 0 8.398438-1.761719 11.28125-4.71875 1.039062-.960938 1.839844-2.082031 2.558594-3.28125h34.160156v16c0 8.800781 7.199219 16 16 16h72c4.398438 0 8.398438 1.761719 11.28125 4.71875zm0 0" fill="#69d6f4"/><path d="m272 488h-248c-8.800781 0-16-7.199219-16-16 0-4.398438 1.761719-8.398438 4.71875-11.28125 2.882812-2.957031 6.882812-4.71875 11.28125-4.71875h120c8.800781 0 16-7.199219 16-16 0-4.398438-1.761719-8.398438-4.71875-11.28125-2.882812-2.957031-6.882812-4.71875-11.28125-4.71875h-56c-8.800781 0-16-7.199219-16-16v-16h168v64c0 17.679688 14.320312 32 32 32zm0 0" fill="#69d6f4"/><path d="m344 144h-80c-22.078125 0-40-17.921875-40-40 0-16.878906 10.480469-31.28125 25.28125-37.121094-.800781-3.519531-1.28125-7.117187-1.28125-10.878906 0-26.480469 21.519531-48 48-48 21.441406 0 39.601562 14.078125 45.761719 33.519531 3.277343-.878906 6.636719-1.519531 10.238281-1.519531 13.921875 0 26.238281 7.199219 33.359375 18 4.878906-1.359375 10.082031-2.078125 15.441406-2 29.757813.398438 54.800781 25.441406 55.199219 55.199219.398438 31.28125-24.800781 56.800781-56 56.800781v120c0 8.800781-7.199219 16-16 16s-16-7.199219-16-16v-120c0-13.28125-10.71875-24-24-24zm0 0" fill="#69d6f4"/><path d="m344 144c13.28125 0 24 10.71875 24 24 0 6.640625-2.71875 12.640625-7.039062 16.960938-4.320313 4.320312-10.320313 7.039062-16.960938 7.039062h-112c-13.28125 0-24-10.71875-24-24 0-6.640625 2.71875-12.640625 7.039062-16.960938 4.320313-4.320312 10.320313-7.039062 16.960938-7.039062zm0 0" fill="#aab2bd"/><path d="m336 440v16c0 17.679688-14.320312 32-32 32h-32c-17.679688 0-32-14.320312-32-32v-184h48v16c0 4.398438 1.761719 8.398438 4.71875 11.28125 2.882812 2.957031 6.882812 4.71875 11.28125 4.71875-4.398438 0-8.398438 1.761719-11.28125 4.71875-2.957031 2.882812-4.71875 6.882812-4.71875 11.28125 0 8.800781 7.199219 16 16 16-4.398438 0-8.398438 1.761719-11.28125 4.71875-2.957031 2.882812-4.71875 6.882812-4.71875 11.28125 0 8.800781 7.199219 16 16 16h32zm0 0" fill="#e6e9ed"/><path d="m336 192v48h-96v-48zm0 0" fill="#e6e9ed"/><g fill="#f0d0b4"><path d="m320 288c0 8.800781-7.199219 16-16 16-4.398438 0-8.398438-1.761719-11.28125-4.71875-2.957031-2.882812-4.71875-6.882812-4.71875-11.28125v-16h-48v96h-26.71875c-8.480469 0-16.640625-3.359375-22.640625-9.359375l-6.640625-6.640625h-16v-96h16l6.640625-6.640625c6-6 14.160156-9.359375 22.640625-9.359375h90.71875c8.800781 0 16 7.199219 16 16zm0 0"/><path d="m336 304h-32c8.800781 0 16-7.199219 16-16v-16h16c8.800781 0 16 7.199219 16 16 0 4.398438-1.761719 8.398438-4.71875 11.28125-2.882812 2.957031-6.882812 4.71875-11.28125 4.71875zm0 0"/><path d="m336 304c8.800781 0 16 7.199219 16 16 0 4.398438-1.761719 8.398438-4.71875 11.28125-2.882812 2.957031-6.882812 4.71875-11.28125 4.71875h-32c-8.800781 0-16-7.199219-16-16 0-4.398438 1.761719-8.398438 4.71875-11.28125 2.882812-2.957031 6.882812-4.71875 11.28125-4.71875zm0 0"/><path d="m349.839844 360c-.71875 1.199219-1.519532 2.320312-2.558594 3.28125-2.882812 2.957031-6.882812 4.71875-11.28125 4.71875h-32c-8.800781 0-16-7.199219-16-16 0-4.398438 1.761719-8.398438 4.71875-11.28125 2.882812-2.957031 6.882812-4.71875 11.28125-4.71875h32c8.800781 0 16 7.199219 16 16 0 2.878906-.800781 5.679688-2.160156 8zm0 0"/><path d="m336 240c8.800781 0 16 7.199219 16 16 0 4.398438-1.761719 8.398438-4.71875 11.28125-2.882812 2.957031-6.882812 4.71875-11.28125 4.71875h-16v-16c0-8.800781-7.199219-16-16-16zm0 0"/></g><path d="m360 352c0-6.167969-2.40625-11.742188-6.238281-16 3.839843-4.257812 6.238281-9.832031 6.238281-16s-2.40625-11.742188-6.238281-16c3.839843-4.257812 6.238281-9.832031 6.238281-16s-2.40625-11.742188-6.238281-16c3.839843-4.257812 6.238281-9.832031 6.238281-16 0-10.414062-6.710938-19.214844-16-22.527344v-33.472656c5.855469 0 11.273438-1.695312 16-4.449219v92.449219c0 13.230469 10.769531 24 24 24s24-10.769531 24-24v-112.496094c14.214844-1.761718 27.335938-8.199218 37.566406-18.566406 12.121094-12.289062 18.664063-28.570312 18.425782-45.847656-.480469-34.304688-28.785157-62.609375-63.089844-63.089844-4.046875-.039062-8.167969.296875-12.261719 1.039062-10.175781-12.0625-25.382813-18.808593-41.878906-16.710937-9.089844-19.59375-28.683594-32.328125-50.761719-32.328125-30.878906 0-56 25.121094-56 56 0 2.070312.128906 4.167969.367188 6.289062-14.992188 8.429688-24.367188 24.183594-24.367188 41.710938 0 12.464844 4.816406 23.800781 12.632812 32.34375-16.046874 1.703125-28.632812 15.167969-28.632812 31.65625 0 17.648438 14.351562 32 32 32v32h-18.742188c-10.683593 0-20.730468 4.160156-28.28125 11.710938l-4.289062 4.289062h-4.6875v-16h-144v144h144v-16h4.6875l4.289062 4.28125c7.550782 7.550781 17.597657 11.71875 28.28125 11.71875h18.742188v80c0 22.054688 17.945312 40 40 40h32c22.054688 0 40-17.945312 40-40v-81.472656c9.289062-3.3125 16-12.113282 16-22.527344zm-24 8h-32c-4.40625 0-8-3.585938-8-8s3.59375-8 8-8h32c4.40625 0 8 3.585938 8 8s-3.59375 8-8 8zm0-112c4.40625 0 8 3.59375 8 8 0 4.414062-3.59375 8-8 8h-8v-8c0-2.816406-.574219-5.488281-1.472656-8zm-8 40v-8h8c4.40625 0 8 3.585938 8 8s-3.59375 8-8 8h-9.472656c.898437-2.511719 1.472656-5.183594 1.472656-8zm-16 24h24c4.40625 0 8 3.585938 8 8s-3.59375 8-8 8h-32c-4.40625 0-8-3.585938-8-8s3.59375-8 8-8zm-59.769531-237.679688 6.402343-2.542968-1.554687-6.707032c-.71875-3.078124-1.078125-6.132812-1.078125-9.070312 0-22.054688 17.945312-40 40-40 17.511719 0 32.839844 11.214844 38.128906 27.910156l2.3125 7.289063 7.382813-1.976563c3.113281-.839844 5.710937-1.222656 8.175781-1.222656 10.753906 0 20.71875 5.382812 26.6875 14.398438l3.183594 4.824218 5.578125-1.503906c4.414062-1.207031 8.816406-1.824219 13.230469-1.71875 25.296874.351562 46.960937 22.015625 47.3125 47.3125.175781 12.960938-4.726563 25.167969-13.824219 34.390625-9.078125 9.21875-21.222657 14.296875-34.167969 14.296875h-8v128c0 4.414062-3.59375 8-8 8s-8-3.585938-8-8v-120c0-17.648438-14.351562-32-32-32h-80c-17.648438 0-32-14.351562-32-32 0-13.152344 7.945312-24.808594 20.230469-29.679688zm-4.230469 125.679688h48v-16h-64c-8.824219 0-16-7.175781-16-16s7.175781-16 16-16h112c8.824219 0 16 7.175781 16 16s-7.175781 16-16 16h-16v48h-80zm-88 160h-16v-80h-16v80h-16v-16h-16v16h-48v-112h48v80h16v-80h16v16h16v-16h16zm72-96v96h-18.742188c-6.320312 0-12.496093-2.558594-16.96875-7.03125l-8.976562-8.96875h-11.3125v-80h11.3125l8.976562-8.976562c4.464844-4.464844 10.648438-7.023438 16.96875-7.023438h90.742188c4.40625 0 8 3.59375 8 8v32c0 4.414062-3.59375 8-8 8s-8-3.585938-8-8v-24zm72 216h-32c-13.230469 0-24-10.769531-24-24v-176h32v8c0 6.167969 2.40625 11.742188 6.238281 16-3.839843 4.257812-6.238281 9.832031-6.238281 16s2.40625 11.742188 6.238281 16c-3.839843 4.257812-6.238281 9.832031-6.238281 16 0 13.230469 10.769531 24 24 24h24v24h-32v16h32v16h-48v16h48v8c0 13.230469-10.769531 24-24 24zm0 0"/><path d="m416 112h16c0-17.648438-14.351562-32-32-32v16c8.824219 0 16 7.175781 16 16zm0 0"/><path d="m272 112c0 4.417969-3.582031 8-8 8s-8-3.582031-8-8 3.582031-8 8-8 8 3.582031 8 8zm0 0"/><path d="m304 40c0 4.417969-3.582031 8-8 8s-8-3.582031-8-8 3.582031-8 8-8 8 3.582031 8 8zm0 0"/><path d="m312 88c0 4.417969-3.582031 8-8 8s-8-3.582031-8-8 3.582031-8 8-8 8 3.582031 8 8zm0 0"/><path d="m360 80c0 4.417969-3.582031 8-8 8s-8-3.582031-8-8 3.582031-8 8-8 8 3.582031 8 8zm0 0"/><path d="m384 120c0 4.417969-3.582031 8-8 8s-8-3.582031-8-8 3.582031-8 8-8 8 3.582031 8 8zm0 0"/><path d="m336 112c0 4.417969-3.582031 8-8 8s-8-3.582031-8-8 3.582031-8 8-8 8 3.582031 8 8zm0 0"/><path d="m352 480h16v16h-16zm0 0"/><path d="m440 432h32c13.230469 0 24-10.769531 24-24s-10.769531-24-24-24h-72c-4.40625 0-8-3.585938-8-8v-16h-16v16c0 13.230469 10.769531 24 24 24h72c4.40625 0 8 3.585938 8 8s-3.59375 8-8 8h-32c-13.230469 0-24 10.769531-24 24s10.769531 24 24 24h16c4.40625 0 8 3.585938 8 8s-3.59375 8-8 8h-72v16h72c13.230469 0 24-10.769531 24-24s-10.769531-24-24-24h-16c-4.40625 0-8-3.585938-8-8s3.59375-8 8-8zm0 0"/><path d="m144 416h-56c-4.40625 0-8-3.585938-8-8v-16h-16v16c0 13.230469 10.769531 24 24 24h56c4.40625 0 8 3.585938 8 8s-3.59375 8-8 8h-120c-13.230469 0-24 10.769531-24 24s10.769531 24 24 24h136v-16h-136c-4.40625 0-8-3.585938-8-8s3.59375-8 8-8h120c13.230469 0 24-10.769531 24-24s-10.769531-24-24-24zm0 0"/><path d="m176 480h16v16h-16zm0 0"/><path d="m208 480h16v16h-16zm0 0"/></svg>