<svg height="496pt" viewBox="0 0 496 496.024" width="496pt" xmlns="http://www.w3.org/2000/svg"><path d="m232.011719 7.992188c13.28125 0 24 10.71875 24 24 0 6.640624-2.71875 12.640624-7.039063 16.960937-4.320312 4.398437-10.320312 7.039063-16.960937 7.039063h-144c-13.28125 0-24-10.71875-24-24 0-6.640626 2.71875-12.640626 7.039062-16.960938 4.320313-4.398438 10.320313-7.039062 16.960938-7.039062zm0 0" fill="#aab2bd"/><path d="m250.332031 343.992188c-11.28125 9.917968-26.078125 16-42.320312 16h-48c0-35.359376 28.640625-64 64-64h26.398437c4.320313-21.039063 14.082032-40.082032 27.761719-55.519532-14.558594-17.839844-33.039063-32.402344-54.160156-42.160156v-142.320312h-128v142.320312c-51.917969 24.160156-88 76.640625-88 137.679688 0 48.078124 22.320312 90.960937 57.199219 118.800781 27.601562-18.960938 44.640624-46.800781 94.800781-46.800781 50.082031 0 67.199219 27.761718 94.71875 46.71875 14.640625-11.757813 27.121093-26.078126 36.640625-42.320313-20.640625-17.199219-35.4375-41.117187-41.039063-68.398437zm0 0" fill="#e6e9ed"/><path d="m254.730469 454.710938c-21.757813 17.519531-48.398438 29.121093-77.359375 32.320312-42.558594 4.722656-82.078125-8.160156-112.160156-32.238281 27.601562-18.960938 44.640624-46.800781 94.800781-46.800781 50.082031 0 67.199219 27.761718 94.71875 46.71875zm0 0" fill="#cf9e76"/><path d="m384.011719 201.113281c58.71875 7.757813 104 58.078125 104 118.878907 0 66.320312-53.757813 120-120 120-29.121094 0-55.839844-10.398438-76.640625-27.601563-20.640625-17.199219-35.4375-41.117187-41.039063-68.398437-1.519531-7.761719-2.320312-15.761719-2.320312-24 0-8.238282.800781-16.238282 2.398437-24 4.320313-21.039063 14.082032-40.082032 27.761719-55.519532 18.640625-21.039062 44.558594-35.519531 73.839844-39.359375 5.199219-.722656 10.558593-1.121093 16-1.121093 5.441406 0 10.800781.398437 16 1.121093zm0 0" fill="#e6e9ed"/><path d="m368.011719 231.992188c48.640625 0 88 39.441406 88 88 0 48.640624-39.359375 88-88 88s-88-39.359376-88-88c0-48.558594 39.359375-88 88-88zm0 0" fill="#69d6f4"/><path d="m376.011719 279.992188h48c0 35.359374-28.640625 64-64 64h-48c0-35.359376 28.640625-64 64-64zm0 0" fill="#b4dd7f"/><path d="m400.011719 39.992188v112h-64v-112c0-8.878907 3.601562-16.878907 9.359375-22.640626 5.839844-5.757812 13.839844-9.359374 22.640625-9.359374 17.679687 0 32 14.320312 32 32zm0 0" fill="#cf9e76"/><path d="m384.011719 151.992188v49.121093c-5.199219-.722656-10.558594-1.121093-16-1.121093-5.441407 0-10.800781.398437-16 1.121093v-49.121093zm0 0" fill="#ffeaa7"/><path d="m224.011719 295.992188h26.398437c-1.597656 7.761718-2.398437 15.761718-2.398437 24 0 8.238281.800781 16.238281 2.320312 24-11.28125 9.917968-26.078125 16-42.320312 16h-48c0-35.359376 28.640625-64 64-64zm0 0" fill="#a0d468"/><path d="m160.011719 351.992188h-48c-35.359375 0-64-28.640626-64-64h48c35.359375 0 64 28.640624 64 64zm0 0" fill="#a0d468"/><path d="m152.011719 432.007812h16v16h-16zm0 0"/><path d="m112.011719 448.007812h16v16h-16zm0 0"/><path d="m184.011719 448.007812h16v16h-16zm0 0"/><path d="m392.011719 194.335938v-34.335938h16v-120c0-22.054688-17.945313-40-40-40-22.054688 0-40 17.945312-40 40v120h16v34.335938c-25.304688 4.824218-47.992188 17.089843-65.664063 34.472656-13.183594-14.472656-28.886718-26.710938-46.335937-35.542969v-129.257813c17.648437 0 32-14.351562 32-32 0-17.648437-14.351563-31.9999995-32-31.9999995h-144c-17.648438 0-32 14.3515625-32 31.9999995 0 17.648438 14.351562 32 32 32v129.265626c-53.632813 27.09375-88.0000002 82.566406-88.0000002 142.734374 0 45.449219 19.4335932 88.902344 53.3203122 119.238282 29.734375 26.617187 66.976563 40.777344 106.414063 40.777344 6.128906 0 12.304687-.34375 18.523437-1.03125 46.679688-5.175782 89.167969-31.519532 115.328125-71.046876 21 15.078126 46.65625 24.0625 74.414063 24.0625 70.578125 0 128-57.421874 128-128 0-62.375-44.863281-114.390624-104-125.671874zm-48-154.328126c0-13.230468 10.769531-24 24-24s24 10.769532 24 24v104h-48zm16 120h16v32.40625c-2.65625-.167968-5.296875-.40625-8-.40625s-5.34375.238282-8 .40625zm-344 176c0-55.679687 32.726562-106.894531 83.375-130.480468l4.625-2.152344v-11.375h64v-16h-64v-16h80v-16h-80v-16h64v-16h-64v-16h80v-16h-80v-32h-16c-8.824219 0-16-7.175781-16-16s7.175781-16 16-16h144c8.824219 0 16 7.175781 16 16s-7.175781 16-16 16h-96v16h80v139.375l4.625 2.152344c17.863281 8.320312 33.886719 20.550781 47 35.304687-10.855469 13.734375-18.898438 29.734375-23.410157 47.175781h-20.214843c-26.351563 0-49.375 14.273438-61.925781 35.457032-11.074219-25.535156-36.515626-43.457032-66.074219-43.457032h-56v8c0 39.703126 32.304687 72 72 72h40v40.238282c-35.664063 2.097656-54.703125 18.105468-73.152344 33.632812-4.472656 3.769532-8.832031 7.296875-13.320313 10.6875-.503906-.4375-1.046874-.796875-1.542968-1.238281-30.488282-27.304687-47.984375-66.417969-47.984375-107.320313zm225.816406 4.59375c-9.695313 7.367188-21.542969 11.398438-33.816406 11.398438h-39.433594c3.898437-27.105469 27.265625-48 55.433594-48h17.113281c-.65625 5.257812-1.113281 10.566406-1.113281 16 0 7.03125.71875 13.878906 1.816406 20.601562zm-90.382813 3.40625h-39.433593c-28.167969 0-51.535157-20.894531-55.433594-48h39.433594c28.167969 0 51.535156 20.894532 55.433593 48zm25.054688 135.070313c-35.3125 3.953125-69.398438-4.742187-97.832031-24.367187 3.609375-2.847657 7.105469-5.734376 10.503906-8.597657 18.390625-15.496093 35.769531-30.121093 70.839844-30.121093 35.074219 0 52.449219 14.625 70.839843 30.121093 3.382813 2.855469 6.871094 5.734375 10.472657 8.574219-19.183594 13.222656-41.410157 21.800781-64.824219 24.390625zm77.929688-34.550781c-4.472657-3.375-8.816407-6.894532-13.273438-10.648438-18.441406-15.527344-37.488281-31.535156-73.152344-33.632812v-32.238282h40c13.375 0 26.359375-3.726562 37.601563-10.617187 6.6875 21.855469 19.152343 41.160156 35.511719 56.335937-7.472657 11.578126-16.488282 21.921876-26.6875 30.800782zm113.582031-12.519532c-61.757813 0-112-50.238281-112-112 0-61.761718 50.242187-112 112-112 61.761719 0 112 50.238282 112 112 0 61.761719-50.238281 112-112 112zm0 0"/><path d="m368.011719 224.007812c-52.9375 0-96 43.0625-96 96s43.0625 96 96 96 96-43.0625 96-96-43.0625-96-96-96zm0 176c-44.113281 0-80-35.886718-80-80 0-44.113281 35.886719-80 80-80 26.097656 0 49.230469 12.617188 63.847656 32h-55.847656c-39.695313 0-72 32.296876-72 72v8h56c39.695312 0 72-32.296874 72-72v-7.792968c10 13.351562 16 29.863281 16 47.792968 0 44.105469-35.886719 80-80 80zm47.433593-112c-3.898437 27.105469-27.265624 48-55.433593 48h-39.433594c3.898437-27.105468 27.265625-48 55.433594-48zm0 0"/></svg>