<svg height="496pt" viewBox="0 0 496 496" width="496pt" xmlns="http://www.w3.org/2000/svg"><path d="m199.5 472h-192c0-13.300781 5.398438-25.300781 14.101562-33.898438 8.597657-8.703124 20.597657-14.101562 33.898438-14.101562h47.601562.398438.398438 47.601562c26.5 0 48 21.5 48 48zm0 0" fill="#fcd770"/><path d="m131.300781 376.699219c2.699219 4.800781 4.199219 10.199219 4.199219 15.699219 0 17-13.5 31-30.398438 31.5 8.097657-.796876 14.398438-7.699219 14.398438-15.898438 0-8.800781-7.199219-16-16-16s-16 7.199219-16 16c0 8.199219 6.300781 15.101562 14.398438 15.898438-8.199219-.199219-15.699219-3.699219-21.097657-9.199219-5.800781-5.699219-9.300781-13.597657-9.300781-22.300781 0-5.5 1.398438-10.898438 4.199219-15.699219l14.699219-25.800781c7.101562 1.203124 14.601562 1.402343 22.203124.601562 1.398438-.199219 2.898438-.398438 4.296876-.601562l.203124.902343zm0 0" fill="#ef7385"/><path d="m103.5 392c8.800781 0 16 7.199219 16 16 0 8.199219-6.300781 15.101562-14.398438 15.898438-.402343 0-.800781.101562-1.203124.101562-.199219 0-.199219 0-.398438 0s-.199219 0-.398438 0c-.402343 0-.800781-.101562-1.203124-.101562-8.097657-.796876-14.398438-7.699219-14.398438-15.898438 0-8.800781 7.199219-16 16-16zm0 0" fill="#ed5565"/><path d="m159.5 112c8.800781 0 16 7.199219 16 16 0 4.398438-1.800781 8.398438-4.699219 11.300781-2.902343 3-6.902343 4.699219-11.300781 4.699219h-112c-8.800781 0-16-7.199219-16-16 0-4.398438 1.800781-8.398438 4.699219-11.300781 2.902343-3 6.902343-4.699219 11.300781-4.699219zm0 0" fill="#aab2bd"/><path d="m179 245.699219c-7.398438 4.601562-13.199219 10.300781-27.5 10.300781-24 0-24-16-48.101562-16-24 0-24 16-48 16-14.296876 0-20.097657-5.699219-27.398438-10.300781 6.300781-18.199219 19-33.398438 35.5-42.898438v-58.800781h80v58.800781c16.398438 9.5 29.199219 24.699219 35.5 42.898438zm0 0" fill="#e6e9ed"/><path d="m179 245.699219c3.800781 10.601562 5.300781 22.199219 4.101562 34.300781-3.402343 35.601562-31.203124 65-66.203124 70.898438-1.398438.203124-2.898438.5-4.296876.601562-7.703124.800781-15.101562.601562-22.203124-.601562-37.898438-6.296876-66.898438-39.097657-66.898438-78.898438 0-9.199219 1.5-18.101562 4.5-26.300781 7.398438 4.601562 13.101562 10.300781 27.398438 10.300781 24 0 24-16 48-16 24.101562 0 24.101562 16 48.101562 16 14.300781 0 20.101562-5.699219 27.5-10.300781zm0 0" fill="#69d6f4"/><path d="m479.5 456v32h-128v-32c0-8.800781 7.199219-16 16-16h96c8.800781 0 16 7.199219 16 16zm0 0" fill="#dfb28b"/><path d="m439.5 40c26.5 0 48 21.5 48 48s-21.5 48-48 48-48-21.5-48-48 21.5-48 48-48zm0 0" fill="#dfb28b"/><path d="m455.5 88c0 8.835938-7.164062 16-16 16s-16-7.164062-16-16 7.164062-16 16-16 16 7.164062 16 16zm0 0" fill="#fcd770"/><path d="m439.5 208v32h-112v-32zm0 0" fill="#dfb28b"/><path d="m375.5 128v32h-96v-32zm0 0" fill="#aab2bd"/><path d="m359.5 304v16c0 8.800781-3.601562 16.800781-9.398438 22.601562-5.800781 5.796876-13.800781 9.398438-22.601562 9.398438-17.699219 0-32-14.300781-32-32v-160h64v48h-32v32h32zm0 0" fill="#e6e9ed"/><path d="m199.5 472h-192c0-26.5 21.5-48 48-48h96c26.5 0 48 21.5 48 48zm0 0" fill="#cf9e76"/><path d="m207 479.5h-207v-7.5c0-30.601562 24.898438-55.5 55.5-55.5h96c30.601562 0 55.5 24.898438 55.5 55.5zm-191.300781-15h175.601562c-3.5-18.800781-20-33-39.800781-33h-96c-19.800781 0-36.300781 14.199219-39.800781 33zm0 0"/><path d="m463.5 432h-16v-288.601562c27.101562-3.898438 48-27.199219 48-55.398438 0-30.898438-25.101562-56-56-56s-56 25.101562-56 56c0 28.199219 20.898438 51.5 48 55.398438v56.601562h-64v-32h16v-48h-48v-80c0-22.101562-17.898438-40-40-40s-40 17.898438-40 40v8c0 13.199219-10.800781 24-24 24s-24-10.800781-24-24v-8c0-22.101562-17.898438-40-40-40h-32c-22.101562 0-40 17.898438-40 40v64h-48c-13.199219 0-24 10.800781-24 24s10.800781 24 24 24h8v46.300781c-24.800781 16.199219-40 44-40 73.699219 0 25 10.699219 48.898438 29.300781 65.601562 9.699219 8.699219 21.097657 14.898438 33.398438 18.597657l-9.5 16.601562c-3.398438 6-5.199219 12.800781-5.199219 19.699219 0 20.101562 15.101562 36.5 35.101562 39.101562 1.597657.296876 3.199219.5 4.898438.5h.199219.199219c21.800781 0 39.601562-17.800781 39.601562-39.601562 0-6.898438-1.800781-13.699219-5.199219-19.601562l-9.402343-16.398438c33.5-10.101562 58.703124-39.699219 62.203124-75.5 3.199219-32.800781-12.203124-64.601562-39.601562-82.5v-46.5h8c13.199219 0 24-10.800781 24-24s-10.800781-24-24-24h-48v-64c0-13.199219 10.800781-24 24-24h32c13.199219 0 24 10.800781 24 24v8c0 22.101562 17.898438 40 40 40s40-17.898438 40-40v-8c0-13.199219 10.800781-24 24-24s24 10.800781 24 24v80h-48v48h16v152c0 22.101562 17.898438 40 40 40s40-17.898438 40-40v-72h64v184h-64c-13.199219 0-24 10.800781-24 24v40h144v-40c0-13.199219-10.800781-24-24-24zm-359.601562-16.101562c-.199219 0-.296876 0-.5 0-4.296876-.097657-7.898438-3.597657-7.898438-8 0-4.398438 3.601562-8 8-8s8 3.601562 8 8c0 4.402343-3.398438 7.800781-7.601562 8zm22.203124-15.699219c-3.300781-9.398438-12.101562-16.199219-22.601562-16.199219s-19.300781 6.800781-22.601562 16.199219c-.898438-2.398438-1.398438-5-1.398438-7.800781 0-4.097657 1.101562-8.199219 3.101562-11.699219l12.097657-21.199219c3 .300781 6 .5 9 .5 2.800781 0 5.699219-.199219 8.601562-.5l12.097657 21.199219c2 3.5 3.101562 7.601562 3.101562 11.699219 0 2.703124-.601562 5.300781-1.398438 7.800781zm49-120.898438c-3.300781 33.5-29.902343 60.597657-63.402343 64.300781-20.800781 2.296876-40.800781-4-56.300781-17.902343-15.199219-13.699219-23.898438-33.300781-23.898438-53.699219 0-4.601562.601562-9.199219 1.5-13.601562 5.398438 3 12.199219 5.601562 22.5 5.601562 14.398438 0 22.199219-5.199219 28.398438-9.300781 5.601562-3.699219 10-6.699219 19.601562-6.699219s14 2.898438 19.601562 6.699219c6.296876 4.199219 14 9.300781 28.5 9.300781 10.398438 0 17.296876-2.699219 22.699219-5.800781 1.199219 6.800781 1.5 13.902343.800781 21.101562zm-7.601562-151.300781c0 4.398438-3.601562 8-8 8h-24v71.398438l4 2.300781c13.5 7.800781 23.601562 19.402343 29.601562 32.902343-4.800781 3.097657-9.203124 5.398438-17.601562 5.398438-9.601562 0-14-2.898438-19.601562-6.699219-6.199219-4.199219-14-9.300781-28.5-9.300781-14.398438 0-22.199219 5.199219-28.398438 9.300781-5.601562 3.699219-10 6.699219-19.601562 6.699219-8.398438 0-12.796876-2.300781-17.5-5.300781 6.101562-13.597657 16.300781-25.300781 29.601562-33l4-2.300781v-55.398438h48v-16h-72c-4.398438 0-8-3.601562-8-8s3.601562-8 8-8h112c4.398438 0 8 3.601562 8 8zm232-40c0-22.101562 17.898438-40 40-40s40 17.898438 40 40-17.898438 40-40 40-40-17.898438-40-40zm-112 48h80v16h-80zm64 128h-16v16h16v16h-32v16h32v8c0 13.199219-10.800781 24-24 24s-24-10.800781-24-24v-152h48v32h-32v48h32zm-16-32v-16h96v16zm136 248h-112v-24c0-4.398438 3.601562-8 8-8h96c4.398438 0 8 3.601562 8 8zm0 0"/><path d="m463.5 88c0-13.199219-10.800781-24-24-24s-24 10.800781-24 24 10.800781 24 24 24 24-10.800781 24-24zm-32 0c0-4.398438 3.601562-8 8-8s8 3.601562 8 8-3.601562 8-8 8-8-3.601562-8-8zm0 0"/><path d="m127.5 304c0 4.417969-3.582031 8-8 8s-8-3.582031-8-8 3.582031-8 8-8 8 3.582031 8 8zm0 0"/><path d="m159.5 288c0 4.417969-3.582031 8-8 8s-8-3.582031-8-8 3.582031-8 8-8 8 3.582031 8 8zm0 0"/><path d="m95.5 320c0 4.417969-3.582031 8-8 8s-8-3.582031-8-8 3.582031-8 8-8 8 3.582031 8 8zm0 0"/><path d="m111.5 272c0 4.417969-3.582031 8-8 8s-8-3.582031-8-8 3.582031-8 8-8 8 3.582031 8 8zm0 0"/><path d="m71.5 288c0 4.417969-3.582031 8-8 8s-8-3.582031-8-8 3.582031-8 8-8 8 3.582031 8 8zm0 0"/></svg>