<svg height="496pt" viewBox="-80 0 496 496" width="496pt" xmlns="http://www.w3.org/2000/svg"><path d="m328 370.558594v117.441406h-64v-79.921875c0-15.519531 5.601562-30.476563 15.839844-42.15625l29.28125-33.441406c11.679687 8.878906 18.878906 22.878906 18.878906 38.078125zm0 0" fill="#aab2bd"/><path d="m72 408.078125v79.921875h-64v-117.441406c0-15.199219 7.199219-29.199219 18.878906-38.078125l29.28125 33.441406c10.238282 11.679687 15.839844 26.636719 15.839844 42.15625zm0 0" fill="#aab2bd"/><g fill="#e6e9ed"><path d="m309.121094 332.480469-29.28125 33.441406c-10.238282 11.679687-15.839844 26.636719-15.839844 42.15625v79.921875h-96v-128c72 0 112-40 112-40l15.199219 5.039062c5.121093 1.679688 9.839843 4.242188 13.921875 7.441407zm0 0"/><path d="m168 360v128h-96v-79.921875c0-15.519531-5.601562-30.476563-15.839844-42.15625l-29.28125-33.441406c4.082032-3.199219 8.800782-5.761719 13.921875-7.441407l15.199219-5.039062s40 40 112 40zm0 0"/><path d="m280 260.320312v59.679688s-40 40-112 40-112-40-112-40v-59.679688h8c0 7.441407 2.960938 14.640626 8.320312 20l23.359376 23.359376c5.359374 5.359374 12.558593 8.320312 20 8.320312 6.320312 0 12.082031-2.078125 16.800781-5.679688 6.640625 12.878907 20.078125 21.679688 35.519531 21.679688s28.878906-8.800781 35.519531-21.679688c4.71875 3.601563 10.480469 5.679688 16.800781 5.679688 7.441407 0 14.640626-2.960938 20-8.320312l23.359376-23.359376c5.359374-5.359374 8.320312-12.558593 8.320312-20zm0 0"/><path d="m280 240v20.320312h-8c0-15.679687-12.640625-28.320312-28.320312-28.320312-.640626 0-1.28125 0-1.917969.078125l-.082031-.957031c4.082031-9.519532 6.320312-20.082032 6.320312-31.121094v-76c14.878906 7.441406 25.359375 14.878906 29.761719 18.238281 1.4375 9.28125 2.238281 18.722657 2.238281 28.320313zm0 0"/><path d="m88 200c0 11.441406 2.398438 22.320312 6.71875 32.078125v.082031c-.796875-.160156-1.597656-.160156-2.398438-.160156-15.679687 0-28.320312 12.640625-28.320312 28.320312h-8v-89.761718c0-9.597656.800781-19.039063 2.238281-28.320313 4.402344-3.359375 14.882813-10.796875 29.761719-18.238281zm0 0"/><path d="m176 8c54.640625 25.28125 92.398438 75.921875 101.761719 134.238281-4.402344-3.359375-14.882813-10.796875-29.761719-18.238281-20-10-48-20-80-20s-60 10-80 20c-14.878906 7.441406-25.359375 14.878906-29.761719 18.238281 3.921875-24.476562 12.882813-47.679687 26-68.160156 18.082031-28.238281 44.082031-51.4375 75.761719-66.078125zm0 0"/></g><path d="m248 184h-160v-60c20-10 48-20 80-20s60 10 80 20zm0 0" fill="#f0d0b4"/><path d="m169.28125 184h78.71875v16c0 11.039062-2.238281 21.601562-6.320312 31.121094l.082031.957031c-6.722657.480469-13.203125 3.363281-18.082031 8.242187l-23.359376 23.359376c-.160156.160156-.242187.242187-.320312.398437-3.441406-4.636719-7.921875-8.476563-13.039062-11.277344l4.878906-43.519531c.082031-.882812.160156-1.679688.160156-2.5625 0-12.558594-10.160156-22.71875-22.71875-22.71875zm0 0" fill="#e6e9ed"/><path d="m144 206.71875c0 .882812.078125 1.679688.160156 2.5625l4.878906 43.519531c-5.117187 2.800781-9.597656 6.640625-13.039062 11.277344-.078125-.15625-.160156-.238281-.320312-.398437l-23.359376-23.359376c-4.800781-4.800781-11.039062-7.679687-17.601562-8.160156v-.082031c-4.320312-9.757813-6.71875-20.636719-6.71875-32.078125v-16h78.71875c-12.558594 0-22.71875 10.160156-22.71875 22.71875zm0 0" fill="#e6e9ed"/><path d="m200 264.078125c5.039062 6.640625 8 14.960937 8 23.921875 0 6.640625-1.601562 12.878906-4.480469 18.320312-6.640625 12.878907-20.078125 21.679688-35.519531 21.679688s-28.878906-8.800781-35.519531-21.679688c-2.878907-5.441406-4.480469-11.679687-4.480469-18.320312 0-8.960938 2.960938-17.28125 8-23.921875 3.441406-4.636719 7.921875-8.476563 13.039062-11.277344 5.601563-3.039062 12.082032-4.800781 18.960938-4.800781s13.359375 1.761719 18.960938 4.800781c5.117187 2.800781 9.597656 6.640625 13.039062 11.277344zm0 0" fill="#fcd770"/><path d="m272 260.320312c0 7.441407-2.960938 14.640626-8.320312 20l-23.359376 23.359376c-5.359374 5.359374-12.558593 8.320312-20 8.320312-6.320312 0-12.082031-2.078125-16.800781-5.679688 2.878907-5.441406 4.480469-11.679687 4.480469-18.320312 0-8.960938-2.960938-17.28125-8-23.921875.078125-.15625.160156-.238281.320312-.398437l23.359376-23.359376c4.878906-4.878906 11.359374-7.761718 18.082031-8.242187.636719-.078125 1.277343-.078125 1.917969-.078125 15.679687 0 28.320312 12.640625 28.320312 28.320312zm0 0" fill="#838f9b"/><path d="m135.679688 263.679688c.160156.160156.242187.242187.320312.398437-5.039062 6.640625-8 14.960937-8 23.921875 0 6.640625 1.601562 12.878906 4.480469 18.320312-4.71875 3.601563-10.480469 5.679688-16.800781 5.679688-7.441407 0-14.640626-2.960938-20-8.320312l-23.359376-23.359376c-5.359374-5.359374-8.320312-12.558593-8.320312-20 0-15.679687 12.640625-28.320312 28.320312-28.320312.800782 0 1.601563 0 2.398438.160156 6.5625.480469 12.800781 3.359375 17.601562 8.160156zm0 0" fill="#838f9b"/><path d="m192 206.71875c0 .882812-.078125 1.679688-.160156 2.5625l-4.878906 43.519531c-5.601563-3.039062-12.082032-4.800781-18.960938-4.800781s-13.359375 1.761719-18.960938 4.800781l-4.878906-43.519531c-.082031-.882812-.160156-1.679688-.160156-2.5625 0-12.558594 10.160156-22.71875 22.71875-22.71875h2.5625c12.558594 0 22.71875 10.160156 22.71875 22.71875zm0 0" fill="#838f9b"/><path d="m297.710938 317.480469-9.710938-3.242188v-143.703125c0-11.03125-1.097656-21.894531-2.992188-32.542968l.121094-.144532c-.023437-.015625-.136718-.113281-.167968-.136718-10.679688-59.398438-49.714844-111.183594-105.601563-136.976563l-1.597656-.734375h-19.523438l-1.589843.734375c-55.894532 25.800781-94.929688 77.585937-105.601563 136.976563-.03125.03125-.144531.121093-.167969.136718l.121094.144532c-1.902344 10.648437-3 21.511718-3 32.542968v143.703125l-9.710938 3.242188c-22.898437 7.625-38.289062 28.976562-38.289062 53.113281v125.40625h336v-125.40625c0-24.136719-15.390625-45.488281-38.289062-53.113281zm-.933594 16.917969-22.953125 26.242187c-11.496094 13.121094-17.824219 29.960937-17.824219 47.40625v71.953125h-80v-112.273438c58.175781-2.328124 94.640625-29.0625 105.878906-38.671874l10.769532 3.59375c1.441406.480468 2.777343 1.128906 4.128906 1.75zm-231.074219-187.695313c3.226563-2.3125 8.074219-5.566406 14.296875-9.199219v62.496094c0 8.625 1.296875 17.023438 3.710938 25.128906-7.933594 1.933594-14.773438 6.496094-19.710938 12.703125v-67.296875c0-8.039062.59375-16 1.703125-23.832031zm206.296875 23.832031v67.296875c-4.929688-6.191406-11.761719-10.753906-19.6875-12.695312 2.421875-8.121094 3.6875-16.535157 3.6875-25.136719v-62.503906c6.222656 3.632812 11.078125 6.894531 14.296875 9.199218 1.109375 7.839844 1.703125 15.800782 1.703125 23.839844zm-32 29.464844c0 8.648438-1.59375 17.039062-4.566406 25.046875-6.511719 1.519531-12.523438 4.738281-17.371094 9.578125l-17.839844 17.894531c-1.488281-1.351562-3.046875-2.625-4.695312-3.785156l4.289062-38.597656c.121094-1.128907.183594-2.265625.183594-3.394531 0-5.367188-1.503906-10.34375-3.9375-14.742188h43.9375zm-56 6.742188c0 .539062-.03125 1.082031-.097656 1.625l-3.695313 33.265624c-3.902343-1.023437-7.984375-1.632812-12.207031-1.632812s-8.304688.609375-12.207031 1.632812l-3.695313-33.273437c-.066406-.535156-.097656-1.078125-.097656-1.617187 0-8.132813 6.609375-14.742188 14.742188-14.742188h2.515624c8.132813 0 14.742188 6.609375 14.742188 14.742188zm-47.816406 3.394531 4.289062 38.605469c-1.664062 1.167968-3.234375 2.449218-4.730468 3.816406l-17.8125-17.925782c-4.851563-4.847656-10.859376-8.058593-17.371094-9.578124-2.957032-8-4.558594-16.390626-4.558594-25.054688v-8h43.9375c-2.433594 4.398438-3.9375 9.375-3.9375 14.742188 0 1.128906.0625 2.265624.183594 3.394531zm-43.902344 29.863281c5.421875 0 10.511719 2.113281 14.34375 5.9375l19.183594 19.183594c-3.703125 6.808594-5.808594 14.597656-5.808594 22.878906 0 5.128906.832031 10.0625 2.328125 14.703125-7.238281 2.503906-15.511719.792969-20.953125-4.640625l-23.4375-23.4375c-3.824219-3.824219-5.9375-8.921875-5.9375-14.34375 0-11.175781 9.105469-20.28125 20.28125-20.28125zm43.71875 48c0-17.648438 14.351562-32 32-32s32 14.351562 32 32-14.351562 32-32 32-32-14.351562-32-32zm74.207031-22.832031 19.167969-19.222657c3.824219-3.832031 8.921875-5.945312 14.34375-5.945312 11.175781 0 20.28125 9.105469 20.28125 20.28125 0 5.421875-2.113281 10.511719-5.9375 14.34375l-23.4375 23.4375c-5.441406 5.441406-13.703125 7.144531-20.953125 4.640625 1.496094-4.640625 2.328125-9.574219 2.328125-14.703125 0-8.265625-2.097656-16.039062-5.792969-22.832031zm29.792969-89.167969h-144v-46.871094c18.792969-8.839844 43.824219-17.128906 72-17.128906s53.207031 8.289062 72 17.128906zm-176 106.742188c.855469 1.082031 1.640625 2.210937 2.625 3.195312l23.4375 23.4375c6.847656 6.847656 15.960938 10.625 25.65625 10.625 4.898438 0 9.640625-1.105469 14.097656-3.03125 8.777344 11.535156 22.597656 19.03125 38.183594 19.03125s29.40625-7.496094 38.183594-19.03125c4.464844 1.925781 9.199218 3.03125 14.097656 3.03125 9.695312 0 18.808594-3.777344 25.65625-10.625l23.4375-23.4375c.984375-.984375 1.769531-2.121094 2.625-3.195312v33.699218c-9.3125 7.941406-45.886719 35.558594-104 35.558594-58.136719 0-94.710938-27.632812-104-35.550781zm97.785156-266.742188h12.4375c45.203125 21.425781 78.128906 61.519531 91.351563 108.457031-20.527344-12.265625-55.550781-28.457031-97.574219-28.457031s-77.046875 16.199219-97.566406 28.457031c13.222656-46.9375 46.152344-87.03125 91.351562-108.457031zm-107.664062 313.054688c11.238281 9.609374 47.710937 36.34375 105.878906 38.671874v112.273438h-80v-71.953125c0-17.445313-6.328125-34.285156-17.816406-47.40625l-22.960938-26.25c1.351563-.621094 2.6875-1.269531 4.128906-1.75zm-38.121094 41.539062c0-10.121094 3.863281-19.496094 10.304688-26.664062l23.839843 27.246093c8.933594 10.207031 13.855469 23.304688 13.855469 36.871094v71.953125h-48zm304 109.40625h-48v-71.953125c0-13.566406 4.921875-26.664063 13.855469-36.871094l23.832031-27.246093c6.449219 7.167968 10.3125 16.542968 10.3125 26.664062zm0 0"/><path d="m176 288c0 4.417969-3.582031 8-8 8s-8-3.582031-8-8 3.582031-8 8-8 8 3.582031 8 8zm0 0"/><path d="m136 152c0 4.417969-3.582031 8-8 8s-8-3.582031-8-8 3.582031-8 8-8 8 3.582031 8 8zm0 0"/><path d="m216 152c0 4.417969-3.582031 8-8 8s-8-3.582031-8-8 3.582031-8 8-8 8 3.582031 8 8zm0 0"/><path d="m128 448h16v16h-16zm0 0"/><path d="m128 416h16v16h-16zm0 0"/><path d="m128 384h16v16h-16zm0 0"/></svg>