<svg height="496pt" viewBox="0 0 496 496" width="496pt" xmlns="http://www.w3.org/2000/svg"><path d="m136 24v80c0 8.800781-7.199219 16-16 16s-16-7.199219-16-16v-80c0-4.398438 1.761719-8.398438 4.71875-11.28125 2.882812-2.957031 6.882812-4.71875 11.28125-4.71875 8.800781 0 16 7.199219 16 16zm0 0" fill="#fcd770"/><path d="m104 24v80h-56c-22.078125 0-40-17.921875-40-40 0-11.039062 4.480469-21.039062 11.679688-28.320312 7.28125-7.199219 17.28125-11.679688 28.320312-11.679688zm0 0" fill="#aab2bd"/><path d="m136 24h128v80h-128zm0 0" fill="#e6e9ed"/><path d="m355.28125 52.71875c2.957031 2.882812 4.71875 6.882812 4.71875 11.28125 0 8.800781-7.199219 16-16 16h-32l-40 24h-8v-80h8l40 24h32c4.398438 0 8.398438 1.761719 11.28125 4.71875zm0 0" fill="#e6e9ed"/><g fill="#69d6f4"><path d="m88 216c0 8.835938-7.164062 16-16 16s-16-7.164062-16-16 7.164062-16 16-16 16 7.164062 16 16zm0 0"/><path d="m136 264c0 8.835938-7.164062 16-16 16s-16-7.164062-16-16 7.164062-16 16-16 16 7.164062 16 16zm0 0"/><path d="m96 328c0 8.835938-7.164062 16-16 16s-16-7.164062-16-16 7.164062-16 16-16 16 7.164062 16 16zm0 0"/><path d="m160 344c0 8.835938-7.164062 16-16 16s-16-7.164062-16-16 7.164062-16 16-16 16 7.164062 16 16zm0 0"/><path d="m312 488h-288c-8.800781 0-16-7.199219-16-16 0-4.398438 1.761719-8.398438 4.71875-11.28125 2.882812-2.957031 6.882812-4.71875 11.28125-4.71875h96c8.800781 0 16-7.199219 16-16 0-4.398438-1.761719-8.398438-4.71875-11.28125-2.882812-2.957031-6.882812-4.71875-11.28125-4.71875h-32c-8.800781 0-16-7.199219-16-16 0-4.398438 1.761719-8.398438 4.71875-11.28125 2.882812-2.957031 6.882812-4.71875 11.28125-4.71875h176v48c0 26.480469 21.519531 48 48 48zm0 0"/></g><path d="m472 408v32c0 26.480469-21.519531 48-48 48h-112c-26.480469 0-48-21.519531-48-48v-160h48v88c0 8.800781 7.199219 16 16 16 4.398438 0 8.398438-1.761719 11.28125-4.71875 2.957031-2.882812 4.71875-6.882812 4.71875-11.28125v-88h128zm0 0" fill="#e6e9ed"/><path d="m472 248c8.800781 0 16 7.199219 16 16 0 4.398438-1.761719 8.398438-4.71875 11.28125-2.882812 2.957031-6.882812 4.71875-11.28125 4.71875h-128v-32zm0 0" fill="#fcd770"/><path d="m312 248v32h-48c-4.398438 0-8.398438-1.761719-11.28125-4.71875-2.957031-2.882812-4.71875-6.882812-4.71875-11.28125 0-8.800781 7.199219-16 16-16zm0 0" fill="#fcd770"/><path d="m447.921875 185.121094c0-.402344.078125-.722656.078125-1.121094 0-22.078125-17.921875-40-40-40-4.640625 0-9.039062.960938-13.199219 2.398438-7.921875-15.679688-24.082031-26.398438-42.800781-26.398438-26.480469 0-48 21.519531-48 48-22.078125 0-40 17.921875-40 40s16 40 48 40v120c0 8.800781 7.199219 16 16 16 4.398438 0 8.398438-1.761719 11.28125-4.71875 2.957031-2.882812 4.71875-6.882812 4.71875-11.28125v-120h96c17.679688 0 32-14.320312 32-32 0-14.960938-10.238281-27.359375-24.078125-30.878906zm0 0" fill="#69d6f4"/><path d="m496 264c0-13.230469-10.769531-24-24-24h-.015625c5.03125-6.6875 8.015625-15 8.015625-24 0-16.136719-9.703125-30.441406-24.222656-36.65625-2.34375-24.289062-22.882813-43.34375-47.777344-43.34375-3.113281 0-6.214844.335938-9.390625 1.015625-10.3125-15.574219-27.632813-25.015625-46.609375-25.015625-28.367188 0-51.871094 21.199219-55.503906 48.585938-22.921875 3.613281-40.496094 23.503906-40.496094 47.414062 0 11.527344 4.03125 23.105469 12.542969 32h-4.542969c-13.230469 0-24 10.769531-24 24 0 10.414062 6.710938 19.214844 16 22.527344v97.472656h-168c-13.230469 0-24 10.769531-24 24s10.769531 24 24 24h32c4.414062 0 8 3.59375 8 8s-3.585938 8-8 8h-96c-13.230469 0-24 10.769531-24 24s10.769531 24 24 24h168v-16h-168c-4.414062 0-8-3.59375-8-8s3.585938-8 8-8h96c13.230469 0 24-10.769531 24-24s-10.769531-24-24-24h-32c-4.414062 0-8-3.59375-8-8s3.585938-8 8-8h168v40c0 30.878906 25.128906 56 56 56h112c30.871094 0 56-25.121094 56-56v-153.472656c9.289062-3.3125 16-12.113282 16-22.527344zm-232-8h48v-16c-25.046875 0-40-11.960938-40-32 0-17.648438 14.351562-32 32-32h8v-8c0-22.054688 17.945312-40 40-40 15.152344 0 28.824219 8.433594 35.679688 22.007812l3.167968 6.265626 6.625-2.320313c3.734375-1.3125 7.183594-1.953125 10.527344-1.953125 17.648438 0 32 14.351562 32.03125 31.414062l-.269531 7.867188 6.160156 1.566406c10.636719 2.71875 18.078125 12.242188 18.078125 23.152344 0 13.230469-10.769531 24-24 24h-104v128c0 4.40625-3.585938 8-8 8s-8-3.59375-8-8v-96h-56c-4.414062 0-8-3.59375-8-8s3.585938-8 8-8zm160 224h-112c-22.054688 0-40-17.945312-40-40v-152h32v80c0 13.230469 10.769531 24 24 24s24-10.769531 24-24v-80h112v16h-80v16h80v16h-64v16h64v16h-80v16h80v16h-64v16h64v16h-80v16h79.191406c-3.71875 18.230469-19.878906 32-39.191406 32zm48-208h-120v-16h120c4.414062 0 8 3.59375 8 8s-3.585938 8-8 8zm0 0"/><path d="m208 480h16v16h-16zm0 0"/><path d="m240 480h16v16h-16zm0 0"/><path d="m144 368c13.230469 0 24-10.769531 24-24s-10.769531-24-24-24-24 10.769531-24 24 10.769531 24 24 24zm0-32c4.414062 0 8 3.59375 8 8s-3.585938 8-8 8-8-3.59375-8-8 3.585938-8 8-8zm0 0"/><path d="m80 352c13.230469 0 24-10.769531 24-24s-10.769531-24-24-24-24 10.769531-24 24 10.769531 24 24 24zm0-32c4.414062 0 8 3.59375 8 8s-3.585938 8-8 8-8-3.59375-8-8 3.585938-8 8-8zm0 0"/><path d="m144 264c0-13.230469-10.769531-24-24-24s-24 10.769531-24 24 10.769531 24 24 24 24-10.769531 24-24zm-32 0c0-4.40625 3.585938-8 8-8s8 3.59375 8 8-3.585938 8-8 8-8-3.59375-8-8zm0 0"/><path d="m96 216c0-13.230469-10.769531-24-24-24s-24 10.769531-24 24 10.769531 24 24 24 24-10.769531 24-24zm-32 0c0-4.40625 3.585938-8 8-8s8 3.59375 8 8-3.585938 8-8 8-8-3.59375-8-8zm0 0"/><path d="m48 112h49.472656c3.3125 9.289062 12.113282 16 22.527344 16s19.214844-6.710938 22.527344-16h131.695312l40-24h29.777344c13.230469 0 24-10.769531 24-24s-10.769531-24-24-24h-29.785156l-40-24h-131.6875c-3.3125-9.289062-12.113282-16-22.527344-16s-19.214844 6.710938-22.527344 16h-49.472656c-26.472656 0-48 21.527344-48 48s21.527344 48 48 48zm208-16h-112v-64h112zm53.785156-40h34.214844c4.414062 0 8 3.59375 8 8s-3.585938 8-8 8h-34.214844l-37.785156 22.671875v-61.34375zm-189.785156-40c4.414062 0 8 3.59375 8 8v80c0 4.40625-3.585938 8-8 8s-8-3.59375-8-8v-80c0-4.40625 3.585938-8 8-8zm-72 16h48v64h-48c-17.648438 0-32-14.351562-32-32s14.351562-32 32-32zm0 0"/></svg>