<svg height="496pt" viewBox="-16 0 496 496" width="496pt" xmlns="http://www.w3.org/2000/svg"><path d="m454.160156 61.601562c1.199219 1.519532 1.839844 3.359376 1.839844 5.277344v.082032c0 6-6.160156 10.160156-11.761719 7.917968-25.679687-10.160156-84.238281-27.117187-84.238281 29.121094 0 72 104 128 96 232-2.320312 29.679688-13.039062 54.878906-27.28125 75.601562-17.519531 25.519532-41.4375 45.277344-68.71875 58.238282v-117.839844c0-70.960938-38.558594-132.960938-95.839844-166.078125v-.082031c-40.160156-121.839844 26.800782-177.839844 87.839844-177.839844 56 0 93.679688 42.960938 102.160156 53.601562zm0 0" fill="#dfb28b"/><path d="m230.640625 280c-34.71875.558594-58 26.640625-62.160156 56.078125l-.480469-.078125c-2.71875-2.320312-5.359375-4.800781-7.921875-7.199219-5.519531-5.441406-10.476563-11.441406-14.636719-17.921875 10.878906-9.039062 16.957032-23.679687 13.679688-39.519531-3.28125-15.597656-16.320313-28.078125-32.082032-30.71875-5.839843-.960937-11.4375-.71875-16.71875.558594-2.71875-7.359375-4.800781-14.960938-6-22.71875-.242187-1.601563-.320312-2.480469-.320312-2.480469l-19.28125-.160156c-1.597656.082031-3.117188.160156-4.71875.160156h-38.480469c-10.960937 0-21.199219-5.441406-27.199219-14.558594l-.800781-1.203125c-3.597656-5.359375-5.519531-11.679687-5.519531-18.160156 0-4.398437.878906-8.71875 2.640625-12.796875 7.597656-17.921875 31.917969-65.28125 77.359375-65.28125l4.71875-3.519531c5.042969-14.558594 14.160156-27.601563 26.480469-37.441407l8.800781-7.039062s10 12 20 31.039062c10 18.960938 20 44.960938 20 72.960938 35.039062 0 67.839844 9.441406 96.160156 25.921875 57.28125 33.117187 95.839844 95.117187 95.839844 166.078125v88h-48v-80c0-44.160156-35.839844-80-80-80-.480469 0-.878906 0-1.359375 0zm0 0" fill="#cf9e76"/><path d="m360 440v29.839844c-24.878906 11.921875-52.640625 18.160156-80.878906 18.160156h-111.121094c0-26.480469 21.519531-48 48-48zm0 0" fill="#d3a06c"/><path d="m159.121094 271.359375c-3.28125-15.597656-16.320313-28.078125-32.082032-30.71875-5.839843-.960937-11.4375-.71875-16.71875.558594-14.878906 3.679687-26.480468 15.679687-29.519531 30.800781h-40.800781c-13.28125 0-24 10.71875-24 24 0 6.640625 2.71875 12.640625 7.039062 16.960938 4.320313 4.320312 10.320313 7.039062 16.960938 7.039062h80c9.679688 0 18.558594-3.441406 25.441406-9.121094 10.878906-9.039062 16.957032-23.679687 13.679688-39.519531zm0 0" fill="#d3a06c"/><path d="m312 360v80h-72l-50.71875-46.078125c-17.601562-16.082031-23.761719-37.761719-20.800781-57.84375 4.160156-29.4375 27.441406-55.519531 62.160156-56.078125h1.359375c44.160156 0 80 35.839844 80 80zm0 0" fill="#dfb28b"/><path d="m408.742188 190.871094c-20.949219-29.640625-40.742188-57.632813-40.742188-86.871094 0-13.265625 3.457031-22.0625 10.550781-26.886719 11.578125-7.875 34.449219-5.984375 62.738281 5.199219 5.144532 2.03125 10.925782 1.398438 15.480469-1.703125 4.527344-3.089844 7.230469-8.203125 7.230469-13.707031 0-3.789063-1.230469-7.34375-3.566406-10.269532-10.578125-13.289062-49.632813-56.632812-108.433594-56.632812-34.320312 0-66.496094 16.167969-86.089844 43.238281-16.414062 22.707031-31.269531 62.707031-14.628906 126.945313-23.152344-10.648438-48.664062-17.007813-75.519531-18.039063-3.320313-54.703125-39.984375-99.3125-41.617188-101.265625l-5.015625-6.023437-14.890625 11.914062c-13.109375 10.488281-22.78125 24.117188-28.453125 39.367188-48.183594 1.464843-73.722656 49.238281-82.519531 70-2.167969 5.09375-3.265625 10.464843-3.265625 15.96875 0 8.054687 2.359375 15.855469 6.832031 22.566406l.808594 1.207031c7.558594 11.34375 20.214844 18.121094 33.855469 18.121094h38.503906c5.703125 0 11.328125-.695312 16.855469-1.785156.585937 3.417968 1.542969 8.296875 3.074219 14.359375-11.523438 5.304687-20.816407 14.914062-25.203126 27.425781h-34.726562c-17.648438 0-32 14.351562-32 32s14.351562 32 32 32h80c8.230469 0 16.136719-2.144531 23.128906-6 5.3125 6.257812 10.949219 12.136719 16.949219 17.503906-1.773437 22.441406 6.625 44.679688 23.832031 60.320313l35.394532 32.175781h-3.304688c-30.878906 0-56 25.121094-56 56v8h119.105469c63.535156 0 121.933593-29.855469 156.199219-79.863281 16.855468-24.59375 26.496093-51.34375 28.664062-79.519531 4.695312-60.976563-27.136719-106.007813-55.226562-145.746094zm-368.742188 121.128906c-8.824219 0-16-7.175781-16-16s7.175781-16 16-16h47.34375l1.304688-6.40625c3.457031-17.035156 19.726562-28.089844 37.0625-25.105469 12.488281 2.128907 23 12.214844 25.570312 24.527344 2.054688 9.878906-.226562 19.519531-6.425781 27.152344-6.121094 7.519531-15.183594 11.832031-24.855469 11.832031zm136.808594 168c3.710937-18.230469 19.878906-32 39.191406-32h104v-16h-76.902344l-48.417968-44.007812c-21.433594-19.488282-21.832032-45.625-15.054688-63.585938 6.527344-17.292969 23.398438-35.941406 51.191406-36.390625l1.183594-.015625c39.695312 0 72 32.304688 72 72h16c0-48.519531-39.480469-88-88-88l-1.457031.007812c-29.941407.488282-55.191407 18.398438-65.886719 46.746094-.296875.789063-.441406 1.597656-.703125 2.398438-2.882813-2.90625-5.617187-5.976563-8.304687-9.121094.535156-.597656 1.105468-1.152344 1.617187-1.773438 9.167969-11.273437 12.6875-26.035156 9.671875-40.503906-3.945312-18.890625-19.425781-33.777344-38.539062-37.042968-4.421876-.75-8.757813-.710938-13.015626-.296876-1.6875-6.742187-2.605468-11.871093-3.0625-14.734374 14.9375-5.925782 28.253907-15.792969 38.078126-28.878907l-12.796876-9.601562c-13.53125 18.03125-35.058593 28.800781-57.601562 28.800781h-38.503906c-8.273438 0-15.953125-4.113281-20.542969-11l-.808594-1.199219c-2.710937-4.074219-4.144531-8.808593-4.144531-13.695312 0-3.335938.664062-6.609375 1.992188-9.722657 7.265624-17.144531 27.496093-55.695312 63.472656-59.949218-.871094 5.09375-1.464844 10.277344-1.464844 15.566406h16c0-22.976562 10.289062-44.382812 28.230469-58.742188l2.34375-1.875c10.210937 14.335938 33.425781 51.457032 33.425781 92.617188v8h8c101.457031 0 184 82.542969 184 184v112.792969c-22.367188 9.871093-47.160156 15.207031-72.894531 15.207031zm271.214844-144.617188c-1.953126 25.335938-10.664063 49.464844-25.910157 71.707032-14.074219 20.535156-32.65625 37.300781-54.113281 49.582031v-104.671875c0-72.648438-38.96875-136.328125-97.0625-171.359375-21.363281-66.953125-7.585938-106.5625 7.941406-128.015625 16.585938-22.9375 43.921875-36.625 73.121094-36.625 52.976562 0 89.183594 42.144531 96 50.929688l-.832031.496093c-23.902344-9.449219-56.777344-17.730469-77.617188-3.546875-11.648437 7.921875-17.550781 21.425782-17.550781 40.121094 0 34.328125 21.214844 64.335938 43.679688 96.113281 27.824218 39.359375 56.59375 80.054688 52.34375 135.269531zm0 0"/></svg>