<svg height="496pt" viewBox="0 0 496 496" width="496pt" xmlns="http://www.w3.org/2000/svg"><g fill="#ef7385"><path d="m328.078125 34.078125-.078125.082031v75.761719c-5.921875 4.476563-12.320312 8.558594-19.121094 12.078125-4.078125-2.640625-8.398437-5.039062-12.878906-7.199219v-98.5625c12 4.5625 22.480469 10.722657 32.078125 17.839844zm0 0"/><path d="m264 8.878906v96.242188c-5.199219-.722656-10.558594-1.121094-16-1.121094s-10.800781.398438-16 1.121094v-96.320313c5.039062-.5625 10.398438-.800781 16-.800781s10.960938.238281 16 .800781zm0 0"/><path d="m200 16.238281v98.5625c-4.480469 2.160157-8.800781 4.558594-12.878906 7.199219-6.800782-3.519531-13.199219-7.601562-19.121094-12.078125v-75.761719l-.078125-.082031c9.597656-7.117187 20.078125-13.277344 32.078125-17.839844zm0 0"/><path d="m488 8v128c-11.761719 0-22.320312-1.199219-32-3.441406v-121.117188c9.679688-2.242187 20.238281-3.441406 32-3.441406zm0 0"/><path d="m424 23.679688v96.640624c-22.238281-12.320312-39.121094-30.320312-56-48.320312 16.878906-18 33.761719-36 56-48.320312zm0 0"/><path d="m72 23.679688c22.238281 12.320312 39.121094 30.320312 56 48.320312-16.878906 18-33.761719 36-56 48.320312zm0 0"/><path d="m40 11.441406v121.117188c-9.679688 2.242187-20.238281 3.441406-32 3.441406v-128c11.761719 0 22.320312 1.199219 32 3.441406zm0 0"/></g><path d="m280 392v64c0 8.800781-3.601562 16.800781-9.359375 22.640625-5.839844 5.757813-13.839844 9.359375-22.640625 9.359375-17.679688 0-32-14.320312-32-32v-64zm0 0" fill="#e6e9ed"/><path d="m280 360v32h-64v-32zm0 0" fill="#fcd770"/><path d="m264 326.878906v33.121094h-32v-33.121094c5.199219.722656 10.558594 1.121094 16 1.121094s10.800781-.398438 16-1.121094zm0 0" fill="#e6e9ed"/><path d="m264 326.878906c-5.199219.722656-10.558594 1.121094-16 1.121094s-10.800781-.398438-16-1.121094c-54.238281-7.757812-96-54.480468-96-110.878906 0-39.359375 20.320312-74 51.121094-94 4.078125-2.640625 8.398437-5.039062 12.878906-7.199219 10-4.722656 20.71875-8.082031 32-9.679687 5.199219-.722656 10.558594-1.121094 16-1.121094s10.800781.398438 16 1.121094c11.28125 1.597656 22 4.957031 32 9.679687 4.480469 2.160157 8.800781 4.558594 12.878906 7.199219 30.800782 20 51.121094 54.640625 51.121094 94 0 56.398438-41.761719 103.121094-96 110.878906zm0 0" fill="#e6e9ed"/><path d="m328 216c0 44.183594-35.816406 80-80 80s-80-35.816406-80-80 35.816406-80 80-80 80 35.816406 80 80zm0 0" fill="#69d6f4"/><path d="m248 128c-48.519531 0-88 39.480469-88 88s39.480469 88 88 88 88-39.480469 88-88-39.480469-88-88-88zm0 160c-39.703125 0-72-32.304688-72-72s32.296875-72 72-72 72 32.304688 72 72-32.296875 72-72 72zm0 0"/><path d="m488 0c-59.457031 0-91.039062 29.679688-120 60.320312-28.960938-30.640624-60.542969-60.320312-120-60.320312s-91.039062 29.679688-120 60.320312c-28.960938-30.640624-60.542969-60.320312-120-60.320312h-8v144h8c59.457031 0 91.039062-29.679688 120-60.320312 13.351562 14.128906 27.449219 28.128906 44.609375 39.089843-27.175781 22.015625-44.609375 55.613281-44.609375 93.230469 0 57.953125 41.289062 106.433594 96 117.585938v18.414062h-16v104c0 22.054688 17.945312 40 40 40s40-17.945312 40-40v-104h-16v-18.414062c54.710938-11.152344 96-59.632813 96-117.585938 0-37.625-17.433594-71.214844-44.609375-93.230469 17.160156-10.960937 31.257813-24.960937 44.609375-39.089843 28.960938 30.640624 60.542969 60.320312 120 60.320312h8v-144zm-424 28.550781v86.90625c-5.039062 2.527344-10.335938 4.765625-16 6.605469v-100.117188c5.664062 1.832032 10.960938 4.070313 16 6.605469zm-48-12.34375c5.625.296875 10.929688.929688 16 1.816407v107.960937c-5.070312.886719-10.375 1.519531-16 1.816406zm64 89.640625v-67.695312c13.601562 9.589844 25.328125 21.449218 37.023438 33.847656-11.695313 12.398438-23.421876 24.257812-37.023438 33.847656zm192-7.433594v-80.351562c5.640625.984375 10.960938 2.3125 16 3.945312v81c-5.199219-1.855468-10.503906-3.472656-16-4.59375zm-16-82.167968v80.152344c-2.65625-.167969-5.296875-.398438-8-.398438s-5.34375.230469-8 .40625v-80.160156c2.617188-.132813 5.257812-.246094 8-.246094s5.382812.113281 8 .246094zm-48 86.753906v-81c5.039062-1.632812 10.359375-2.960938 16-3.945312v80.359374c-5.496094 1.121094-10.800781 2.738282-16 4.585938zm-69.023438-31c6.871094-7.289062 13.757813-14.382812 21.023438-20.953125v41.863281c-7.230469-6.535156-14.113281-13.582031-21.023438-20.910156zm37.023438 33.855469v-67.671875c5.039062-3.550782 10.34375-6.800782 16-9.640625v81.402343c-1.679688.886719-3.296875 1.878907-4.929688 2.847657-3.832031-2.152344-7.535156-4.441407-11.070312-6.9375zm96 262.144531v16h-48v-16zm-24 112c-13.230469 0-24-10.769531-24-24v-56h48v56c0 13.230469-10.769531 24-24 24zm8-128h-16v-16.40625c2.65625.175781 5.296875.40625 8 .40625s5.34375-.230469 8-.40625zm96-136c0 57.34375-46.65625 104-104 104s-104-46.65625-104-104 46.65625-104 104-104 104 46.65625 104 104zm-48-106.046875v-81.410156c5.65625 2.839843 10.960938 6.082031 16 9.640625v67.671875c-3.535156 2.488281-7.246094 4.785156-11.078125 6.945312-1.632813-.96875-3.242187-1.960937-4.921875-2.847656zm32-17.042969v-41.863281c7.265625 6.570313 14.152344 13.664063 21.023438 20.953125-6.910157 7.328125-13.792969 14.375-21.023438 20.910156zm112-70.964844v100.109376c-5.664062-1.832032-10.960938-4.070313-16-6.605469v-86.90625c5.039062-2.527344 10.335938-4.765625 16-6.597657zm-69.023438 50.054688c11.695313-12.398438 23.421876-24.257812 37.023438-33.847656v67.695312c-13.601562-9.589844-25.328125-21.449218-37.023438-33.847656zm101.023438 55.792969c-5.625-.296875-10.929688-.929688-16-1.816407v-107.960937c5.070312-.886719 10.375-1.519531 16-1.816406zm0 0"/><path d="m32 192h16v64h-16zm0 0"/><path d="m112 240v-32c0-8.824219-7.175781-16-16-16h-16c-8.824219 0-16 7.175781-16 16v32c0 8.824219 7.175781 16 16 16h16c8.824219 0 16-7.175781 16-16zm-32-32h16l.007812 32h-16.007812zm0 0"/><path d="m160 352h16v64h-16zm0 0"/><path d="m432 240v-32c0-8.824219-7.175781-16-16-16h-16c-8.824219 0-16 7.175781-16 16v32c0 8.824219 7.175781 16 16 16h16c8.824219 0 16-7.175781 16-16zm-32-32h16l.007812 32h-16.007812zm0 0"/><path d="m448 192h16v64h-16zm0 0"/><path d="m96 272h16v64h-16zm0 0"/><path d="m64 272h-16c-8.824219 0-16 7.175781-16 16v32c0 8.824219 7.175781 16 16 16h16c8.824219 0 16-7.175781 16-16v-32c0-8.824219-7.175781-16-16-16zm-16 48v-32h16l.007812 32zm0 0"/><path d="m416 352h16v64h-16zm0 0"/><path d="m448 352h16v64h-16zm0 0"/><path d="m320 352h16v64h-16zm0 0"/><path d="m384 352h-16c-8.824219 0-16 7.175781-16 16v32c0 8.824219 7.175781 16 16 16h16c8.824219 0 16-7.175781 16-16v-32c0-8.824219-7.175781-16-16-16zm-16 48v-32h16l.007812 32zm0 0"/><path d="m32 352h16v64h-16zm0 0"/><path d="m64 352h16v64h-16zm0 0"/><path d="m128 352h-16c-8.824219 0-16 7.175781-16 16v32c0 8.824219 7.175781 16 16 16h16c8.824219 0 16-7.175781 16-16v-32c0-8.824219-7.175781-16-16-16zm-16 48v-32h16l.007812 32zm0 0"/><path d="m384 272h16v64h-16zm0 0"/><path d="m448 272h-16c-8.824219 0-16 7.175781-16 16v32c0 8.824219 7.175781 16 16 16h16c8.824219 0 16-7.175781 16-16v-32c0-8.824219-7.175781-16-16-16zm-16 48v-32h16l.007812 32zm0 0"/></svg>