<svg height="496pt" viewBox="0 0 496 496" width="496pt" xmlns="http://www.w3.org/2000/svg"><path d="m376 384.160156c18.480469 10.238282 31.199219 29.039063 44 47.839844-12.800781 18.800781-25.519531 37.601562-44 47.839844zm0 0" fill="#ffeaa7"/><path d="m344 376v112c-12.480469 0-22.960938-3.039062-32-8.078125v-95.84375c9.039062-5.039063 19.519531-8.078125 32-8.078125zm0 0" fill="#ffeaa7"/><g fill="#ef7385"><path d="m472 380.320312v103.359376c-22.960938-8.960938-37.441406-30.320313-52-51.679688 14.558594-21.359375 29.039062-42.71875 52-51.679688zm0 0"/><path d="m376 384.160156v95.761719c-9.039062 5.039063-19.519531 8.078125-32 8.078125v-112c12.480469 0 22.960938 3.039062 32 8.078125zm0 0"/><path d="m312 384.160156v95.679688c-18.480469-10.238282-31.199219-29.039063-44-47.839844 12.800781-18.800781 25.519531-37.601562 44-47.839844zm0 0"/></g><path d="m216 380.320312c22.960938 8.960938 37.441406 30.320313 52 51.679688-14.558594 21.359375-29.039062 42.71875-52 51.679688zm0 0" fill="#ffeaa7"/><path d="m64 344v-41.601562c0-19.597657-7.121094-38.558594-20-53.359376-11.601562-13.199218-20.640625-28.398437-26.71875-44.558593-6.082031-16.242188-9.28125-33.519531-9.28125-51.121094 0-40.160156 16.238281-76.480469 42.558594-102.800781 26.320312-26.320313 62.640625-42.558594 102.800781-42.558594h13.28125c80.320313 0 145.359375 65.039062 145.359375 145.359375 0 17.601563-3.199219 34.878906-9.28125 51.121094-6.078125 16.160156-15.117188 31.359375-26.71875 44.558593-6.398438 7.441407-11.441406 15.839844-14.800781 24.882813-3.4375 9.039063-5.199219 18.71875-5.199219 28.476563v73.523437l-64 .078125h-96c-17.679688 0-32-14.398438-32-32zm0 0" fill="#e6e9ed"/><path d="m184 239.921875c0 13.253906-10.746094 24-24 24s-24-10.746094-24-24c0-13.257813 10.746094-24 24-24s24 10.742187 24 24zm0 0" fill="#fcd770"/><path d="m184 62.480469c0 1.039062-.078125 2-.238281 3.039062l-14.960938 110.480469c-.402343 4.558594-4.242187 7.921875-8.800781 7.921875s-8.398438-3.363281-8.800781-7.921875l-14.960938-110.480469c-.160156-1.039062-.238281-2-.238281-3.039062 0-12.402344 10.078125-22.480469 22.480469-22.480469h3.039062c6.160157 0 11.839844 2.558594 15.921875 6.558594 4 4.082031 6.558594 9.761718 6.558594 15.921875zm0 0" fill="#fcd770"/><path d="m67.574219 67.574219c-22.941407 22.945312-35.574219 53.410156-35.574219 85.769531 0 29.398438 10.664062 57.777344 30.03125 79.914062 3.046875 3.484376 5.90625 7.222657 8.480469 11.09375l13.328125-8.839843c-2.960938-4.472657-6.246094-8.769531-9.769532-12.792969-16.8125-19.214844-26.070312-43.855469-26.070312-69.375 0-28.085938 10.96875-54.527344 30.886719-74.457031zm0 0"/><path d="m496 384v-16c-37.414062 0-58.519531 24.800781-76 49.855469-17.480469-25.054688-38.585938-49.855469-76-49.855469s-58.519531 24.800781-76 49.855469c-17.480469-25.054688-38.585938-49.855469-76-49.855469l-96.007812-.03125c-13.222657-.007812-23.992188-10.777344-23.992188-24v-41.585938c0-21.558593-7.824219-42.375-22.015625-58.597656-21.914063-25.050781-33.984375-57.167968-33.984375-90.441406 0-75.726562 61.609375-137.34375 137.34375-137.34375h13.3125c75.734375 0 137.34375 61.617188 137.34375 137.34375 0 33.273438-12.070312 65.390625-33.984375 90.441406-14.191406 16.222656-22.015625 37.039063-22.015625 58.597656v73.570313h16v-73.570313c0-17.6875 6.414062-34.757812 18.0625-48.0625 24.457031-27.96875 37.9375-63.824218 37.9375-100.976562 0-84.550781-68.792969-153.34375-153.34375-153.34375h-13.3125c-84.550781 0-153.34375 68.792969-153.34375 153.34375 0 37.152344 13.480469 73.007812 37.9375 100.984375 11.648438 13.304687 18.0625 30.367187 18.0625 48.054687v41.585938c0 22.046875 17.9375 39.992188 39.992188 40l96.007812.03125c5.800781 0 11.078125.800781 16 2.183594v91.632812c-4.921875 1.382813-10.199219 2.183594-16 2.183594v16c37.414062 0 58.519531-24.800781 76-49.855469 17.480469 25.054688 38.585938 49.855469 76 49.855469s58.519531-24.800781 76-49.855469c17.480469 25.054688 38.585938 49.855469 76 49.855469v-16c-5.800781 0-11.078125-.800781-16-2.183594v-91.632812c4.921875-1.382813 10.199219-2.183594 16-2.183594zm-160 95.433594c-5.816406-.753906-11.121094-2.320313-16-4.554688v-85.757812c4.878906-2.242188 10.183594-3.800782 16-4.554688zm16-94.867188c5.816406.753906 11.121094 2.320313 16 4.554688v85.757812c-4.878906 2.242188-10.183594 3.800782-16 4.554688zm-128 85.914063v-76.960938c13.566406 8.96875 23.945312 23.265625 34.328125 38.480469-10.382813 15.214844-20.761719 29.511719-34.328125 38.480469zm53.671875-38.480469c8.25-12.078125 16.488281-23.566406 26.328125-32.28125v64.5625c-9.832031-8.714844-18.078125-20.203125-26.328125-32.28125zm106.328125 32.28125v-64.5625c9.832031 8.714844 18.078125 20.203125 26.328125 32.28125-8.25 12.078125-16.496094 23.566406-26.328125 32.28125zm80 6.199219c-13.566406-8.96875-23.945312-23.265625-34.328125-38.480469 10.382813-15.214844 20.761719-29.511719 34.328125-38.480469zm0 0"/><path d="m216 351.960938v-16h16v-16h-16v-16h-16v16h-16v-16h-16v16h-16v-16h-16v16h-16v-16h-16v16h-16v16h16v16h16v-16h16v16h16v-16h16v16h16v-16h16v16zm0 0"/><path d="m160 271.960938c17.648438 0 32-14.351563 32-32 0-17.648438-14.351562-32-32-32s-32 14.351562-32 32c0 17.648437 14.351562 32 32 32zm0-48c8.824219 0 16 7.175781 16 16 0 8.824218-7.175781 16-16 16s-16-7.175782-16-16c0-8.824219 7.175781-16 16-16zm0 0"/><path d="m160 191.960938c8.664062 0 15.878906-6.496094 16.769531-14.882813l14.957031-110.519531c.175782-1.359375.273438-2.71875.273438-4.070313 0-16.816406-13.671875-30.488281-30.488281-30.488281h-3.03125c-16.808594 0-30.480469 13.671875-30.480469 30.488281 0 1.359375.097656 2.71875.273438 4.085938l14.933593 110.265625c.914063 8.617187 8.128907 15.121094 16.792969 15.121094zm-1.511719-143.960938h3.03125c7.984375 0 14.480469 6.496094 14.480469 14.488281 0 .65625-.046875 1.3125-.136719 1.945313l-14.984375 110.726562c-.09375.902344-1.648437 1.144532-1.789062-.230468l-14.960938-110.480469c-.082031-.648438-.128906-1.304688-.128906-1.960938 0-7.992187 6.496094-14.488281 14.488281-14.488281zm0 0"/></svg>