<svg height="499.312pt" viewBox="0 0 499.312 499.312" width="499.312pt" xmlns="http://www.w3.org/2000/svg"><path d="m392 459.3125-8 32h-48l-8-32zm0 0" fill="#cf9e76"/><path d="m104 459.3125-8 32h-48l-8-32zm0 0" fill="#cf9e76"/><path d="m424 443.3125v16h-416v-16c0-17.679688 14.320312-32 32-32h352c17.679688 0 32 14.320312 32 32zm0 0" fill="#ccd1d9"/><path d="m232 379.3125h128v32h-128zm0 0" fill="#b4dd7f"/><path d="m424 155.3125-24 24-24-24-48.078125-48.082031-7.921875-7.917969 24-24 22.238281 22.238281 35.523438 35.519531zm0 0" fill="#838f9b"/><path d="m366.234375 97.550781 52-51.996093 35.519531 35.515624-52 52zm0 0" fill="#ccd1d9"/><path d="m488 67.3125-24 24-10.238281-10.242188-35.523438-35.519531-10.238281-10.238281 24-24zm0 0" fill="#656d78"/><path d="m256 235.3125h80v48h-80zm0 0" fill="#fcd770"/><path d="m368 187.3125-16 48h-112l-16-48zm0 0" fill="#aab2bd"/><path d="m376 155.3125h-152l16-48h87.761719l.160156-.082031zm0 0" fill="#dfb28b"/><path d="m184 251.3125v8l-32 32v-72zm0 0" fill="#838f9b"/><path d="m376 155.3125h-256c-17.679688 0-32 14.320312-32 32v128h64v-96l40-32h208v-8zm0 0" fill="#ccd1d9"/><path d="m120 315.3125v96h-80l8.398438-55.921875v-.078125c21.921874-.242188 39.601562-18.082031 39.601562-40zm0 0" fill="#aab2bd"/><path d="m88 283.3125v32c0-17.921875-11.761719-33.039062-27.921875-38.160156l3.921875-25.839844h24zm0 0" fill="#aab2bd"/><path d="m60.078125 277.152344c16.160156 5.121094 27.921875 20.238281 27.921875 38.160156 0 21.917969-17.679688 39.757812-39.601562 40-.160157 0-.238282 0-.398438 0-22.078125 0-40-17.921875-40-40 0-22.082031 17.921875-40 40-40 4.160156 0 8.238281.640625 12.078125 1.839844zm0 0" fill="#fcd770"/><path d="m464 102.625 35.3125-35.3125-67.3125-67.3125-35.3125 35.3125 10.273438 10.273438-40.6875 40.6875-22.273438-22.273438-35.3125 35.3125h-74.457031l-16 48h-98.230469c-22.054688 0-40 17.945312-40 40v56h-22.886719l-3.648437 24.335938c-1.800782-.207032-3.617188-.335938-5.464844-.335938-26.472656 0-48 21.527344-48 48 0 23.472656 16.945312 43.023438 39.238281 47.160156l-6.230469 41.542969c-18.71875 3.328125-33.007812 19.640625-33.007812 39.296875v24h33.753906l8 32h60.492188l8-32h211.507812l8 32h60.492188l8-32h33.753906v-24c0-22.054688-17.945312-40-40-40h-24v-32h-144v32h-96v-80h32v-28.6875l32-32v-14.625l-28.023438-28.023438 30.832032-24.664062h23.429687l16 48h13.761719v48h96v-48h13.769531l16-48h34.230469v-12.6875l27.3125-27.3125-22.273438-22.273438 40.6875-40.6875zm-32-80 44.6875 44.6875-12.6875 12.6875-44.6875-44.6875zm-186.230469 92.6875h78.917969l32 32h-121.582031zm-149.769531 72c0-13.234375 10.769531-24 24-24h64v20.160156l-34.808594 27.839844h-53.191406zm48 40v48h-48v-48zm-73.113281 32h9.113281v20.320312c-3.304688-2.96875-7.015625-5.472656-11.039062-7.441406zm-54.886719 56c0-17.648438 14.351562-32 32-32s32 14.351562 32 32-14.351562 32-32 32-32-14.351562-32-32zm73.753906 168h-35.507812l-4-16h43.507812zm288 0h-35.507812l-4-16h43.507812zm38.246094-40v8h-400v-8c0-13.234375 10.769531-24 24-24h352c13.230469 0 24 10.765625 24 24zm-176-56h112v16h-112zm-128 16h-62.710938l6.09375-40.625c20.351563-3.160156 36.472657-19.113281 39.898438-39.375h16.71875zm-16-96v-16h48v16zm80-51.3125-16 16v-33.375l16 16zm24-92.6875h172.6875l16 16h-188.6875zm128 112h-64v-32h64zm18.230469-48h-100.460938l-10.664062-32h121.796875zm53.769531-59.3125-68.6875-68.6875 12.6875-12.6875 68.6875 68.6875zm1.726562-46.273438-24.152343-24.152343 40.691406-40.6875 24.148437 24.152343zm0 0"/><path d="m128 187.3125c0 4.417969-3.582031 8-8 8s-8-3.582031-8-8 3.582031-8 8-8 8 3.582031 8 8zm0 0"/><path d="m128 251.3125c0 4.417969-3.582031 8-8 8s-8-3.582031-8-8 3.582031-8 8-8 8 3.582031 8 8zm0 0"/><path d="m56 315.3125c0 4.417969-3.582031 8-8 8s-8-3.582031-8-8 3.582031-8 8-8 8 3.582031 8 8zm0 0"/></svg>