<svg height="496pt" viewBox="0 0 496 496.016" width="496pt" xmlns="http://www.w3.org/2000/svg"><path d="m444.328125 96.800781c8.878906 2.800781 13.761719 12 10.878906 20.558594l-43.757812 130.640625h-35.441407v-.078125l47.039063-140.640625c2.882813-8.5625 12.402344-13.28125 21.28125-10.480469zm0 0" fill="#ffc729"/><path d="m483.289062 252.71875c2.957032 2.882812 4.71875 6.882812 4.71875 11.28125 0 8.800781-7.199218 16-16 16h-224c-4.398437 0-8.398437-1.761719-11.28125-4.71875-2.957031-2.882812-4.71875-6.882812-4.71875-11.28125 0-8.800781 7.199219-16 16-16h224c4.398438 0 8.398438 1.761719 11.28125 4.71875zm0 0" fill="#aab2bd"/><path d="m312.007812 280h144v176c0 17.679688-14.320312 32-32 32h-128c-17.679687 0-32-14.320312-32-32v-176zm0 0" fill="#e6e9ed"/><path d="m96.007812 8h128v48h-128zm0 0" fill="#dfb28b"/><path d="m264.96875 63.039062c4.320312 4.320313 7.039062 10.320313 7.039062 16.960938 0 13.28125-10.71875 24-24 24h-176c-13.28125 0-24-10.71875-24-24 0-6.640625 2.71875-12.640625 7.039063-16.960938 4.320313-4.320312 10.320313-7.039062 16.960937-7.039062h176c6.640626 0 12.640626 2.71875 16.960938 7.039062zm0 0" fill="#aab2bd"/><path d="m88.007812 200v-96h144v98.160156c20.640626 11.121094 38.398438 26.800782 51.921876 45.839844h-35.921876c-8.800781 0-16 7.199219-16 16 0 4.398438 1.761719 8.398438 4.71875 11.28125 2.882813 2.957031 6.882813 4.71875 11.28125 4.71875h16v29.039062h-.238281c-5.523437 1.839844-11.921875 2.960938-19.761719 2.960938-42 0-42-32-84.078124-32-41.921876 0-41.921876 32-83.921876 32-31.601562 0-39.441406-18.078125-59.199218-27.039062 12.71875-35.679688 38.320312-65.121094 71.199218-82.800782zm0 0" fill="#e6e9ed"/><path d="m264.007812 309.039062v137.761719c-23.28125 21.839844-53.359374 36.480469-86.480468 40.238281-91.757813 10.242188-169.519532-61.277343-169.519532-151.039062 0-17.921875 3.121094-35.121094 8.800782-51.039062 19.757812 8.960937 27.597656 27.039062 59.199218 27.039062 42 0 42-32 83.921876-32 42.078124 0 42.078124 32 84.078124 32 7.839844 0 14.238282-1.121094 19.761719-2.960938zm0 0" fill="#69d6f4"/><g fill="#fcd770"><path d="m128.007812 432c0 8.835938-7.164062 16-16 16-8.835937 0-16-7.164062-16-16s7.164063-16 16-16c8.835938 0 16 7.164062 16 16zm0 0"/><path d="m200.007812 432c0 8.835938-7.164062 16-16 16-8.835937 0-16-7.164062-16-16s7.164063-16 16-16c8.835938 0 16 7.164062 16 16zm0 0"/><path d="m232.007812 368c0 8.835938-7.164062 16-16 16-8.835937 0-16-7.164062-16-16s7.164063-16 16-16c8.835938 0 16 7.164062 16 16zm0 0"/><path d="m176.007812 328c0 8.835938-7.164062 16-16 16-8.835937 0-16-7.164062-16-16s7.164063-16 16-16c8.835938 0 16 7.164062 16 16zm0 0"/><path d="m96.007812 360c0 8.835938-7.164062 16-16 16-8.835937 0-16-7.164062-16-16s7.164063-16 16-16c8.835938 0 16 7.164062 16 16zm0 0"/></g><path d="m104.007812 360c0-13.230469-10.769531-24-24-24-13.230468 0-24 10.769531-24 24s10.769532 24 24 24c13.230469 0 24-10.769531 24-24zm-24 8c-4.414062 0-8-3.585938-8-8s3.585938-8 8-8c4.417969 0 8 3.585938 8 8s-3.582031 8-8 8zm0 0"/><path d="m184.007812 328c0-13.230469-10.769531-24-24-24-13.230468 0-24 10.769531-24 24s10.769532 24 24 24c13.230469 0 24-10.769531 24-24zm-32 0c0-4.414062 3.585938-8 8-8 4.417969 0 8 3.585938 8 8s-3.582031 8-8 8c-4.414062 0-8-3.585938-8-8zm0 0"/><path d="m112.007812 408c-13.230468 0-24 10.769531-24 24s10.769532 24 24 24c13.230469 0 24-10.769531 24-24s-10.769531-24-24-24zm0 32c-4.414062 0-8-3.585938-8-8s3.585938-8 8-8c4.417969 0 8 3.585938 8 8s-3.582031 8-8 8zm0 0"/><path d="m184.007812 408c-13.230468 0-24 10.769531-24 24s10.769532 24 24 24c13.230469 0 24-10.769531 24-24s-10.769531-24-24-24zm0 32c-4.414062 0-8-3.585938-8-8s3.585938-8 8-8c4.417969 0 8 3.585938 8 8s-3.582031 8-8 8zm0 0"/><path d="m216.007812 344c-13.230468 0-24 10.769531-24 24s10.769532 24 24 24c13.230469 0 24-10.769531 24-24s-10.769531-24-24-24zm0 32c-4.414062 0-8-3.585938-8-8s3.585938-8 8-8c4.417969 0 8 3.585938 8 8s-3.582031 8-8 8zm0 0"/><path d="m472.007812 240h-49.433593l40.195312-120.0625c2.054688-6.136719 1.558594-12.699219-1.386719-18.472656-3.023437-5.914063-8.222656-10.28125-14.648437-12.296875-12.925781-4.070313-26.992187 2.902343-31.238281 15.601562l-45.273438 135.230469h-82.4375c-12.921875-17.152344-29.21875-31.816406-47.777344-42.566406v-85.433594h8c17.648438 0 32-14.351562 32-32s-14.351562-32-32-32h-16v-48h-144v48h-16c-17.648437 0-32 14.351562-32 32s14.351563 32 32 32h8v85.433594c-49.472656 28.597656-79.9999995 81.253906-79.9999995 138.566406 0 45.480469 19.4570315 88.960938 53.3749995 119.296875 29.738282 26.582031 66.945313 40.71875 106.359376 40.71875 6.1875 0 12.425781-.351563 18.699218-1.046875 28.207032-3.160156 55.4375-14.328125 78.300782-31.695312 3.433593 18.582031 19.699218 32.726562 39.265624 32.726562h128c22.054688 0 40-17.945312 40-40v-168h8c13.230469 0 24-10.769531 24-24s-10.769531-24-24-24zm-41.34375-130.152344c1.496094-4.472656 6.550782-6.886718 11.28125-5.414062 2.285157.71875 4.132813 2.246094 5.183594 4.300781.976563 1.914063 1.144532 4.089844.464844 6.121094l-41.890625 125.144531h-18.605469zm-338.855468 99.320313 2.160156-1.167969h82.039062v-16h-80v-16h64v-16h-64v-16h80v-16h-80v-32h-24c-8.824218 0-16-7.175781-16-16s7.175782-16 16-16h128v-16h-96v-32h112v48h32c8.824219 0 16 7.175781 16 16s-7.175781 16-16 16h-120v16h96v94.894531l4.199219 2.265625c14.648438 7.894532 27.921875 18.414063 39.066407 30.832032h-19.265626c-13.230468 0-24 10.769531-24 24 0 13.230468 10.769532 24 24 24h8v14.6875c-3.726562.792968-7.632812 1.320312-12.023437 1.320312-18.304687 0-27.039063-6.65625-37.160156-14.359375-10.855469-8.273437-23.152344-17.640625-46.863281-17.640625-23.6875 0-35.984376 9.367188-46.832032 17.632812-10.105468 7.710938-18.839844 14.367188-37.128906 14.367188-18.296875 0-27.03125-6.65625-37.144531-14.359375-3.742188-2.855469-7.617188-5.746094-12-8.382813 12.457031-30.28125 35.066406-55.976562 64.953125-72.089843zm84.847656 269.894531c-41.640625 4.648438-81.65625-8.007812-112.609375-35.6875-30.535156-27.3125-48.039063-66.445312-48.039063-107.375 0-13.472656 1.894532-26.65625 5.457032-39.246094 2.597656 1.742188 5.109375 3.644532 7.6875 5.613282 10.855468 8.265624 23.152344 17.632812 46.847656 17.632812s35.984375-9.367188 46.832031-17.640625c10.113281-7.703125 18.839844-14.359375 37.128907-14.359375 18.3125 0 27.046874 6.65625 37.167968 14.367188 10.855469 8.265624 23.152344 17.632812 46.855469 17.632812 4.238281 0 8.214844-.320312 12.023437-.910156v124.0625c-22.207031 19.886718-50.207031 32.648437-79.351562 35.910156zm295.351562-207.0625h-24v184c0 13.230469-10.769531 24-24 24h-128c-13.230468 0-24-10.769531-24-24v-168h32v176h64v-16h-48v-16h32v-16h-32v-16h48v-16h-48v-16h32v-16h-32v-16h48v-16h-48v-16h48v-16h-48v-16h-72c-4.414062 0-8-3.585938-8-8s3.585938-8 8-8h224c4.417969 0 8 3.585938 8 8s-3.582031 8-8 8zm0 0"/></svg>