<svg height="496pt" viewBox="0 0 496 496" width="496pt" xmlns="http://www.w3.org/2000/svg"><path d="m208.960938 95.039062c4.320312 4.320313 7.039062 10.320313 7.039062 16.960938 0 13.28125-10.71875 24-24 24h-160c-6.640625 0-12.640625-2.71875-16.960938-7.039062-4.320312-4.320313-7.039062-10.320313-7.039062-16.960938 0-13.28125 10.71875-24 24-24h160c6.640625 0 12.640625 2.71875 16.960938 7.039062zm0 0" fill="#ccd1d9"/><path d="m184 136v88c-24 0-24-16-48-16s-24 16-48 16-24-16-48-16v-72zm0 0" fill="#e6e9ed"/><path d="m184 224v192c0 19.839844-8.078125 37.921875-21.121094 50.878906-12.957031 13.042969-31.039062 21.121094-50.878906 21.121094-39.761719 0-72-32.238281-72-72v-208c24 0 24 16 48 16s24-16 48-16 24 16 48 16zm0 0" fill="#ffeaa7"/><path d="m120 440c0 8.835938-7.164062 16-16 16s-16-7.164062-16-16 7.164062-16 16-16 16 7.164062 16 16zm0 0" fill="#ef7385"/><path d="m416 40c0 8.835938-7.164062 16-16 16s-16-7.164062-16-16 7.164062-16 16-16 16 7.164062 16 16zm0 0" fill="#fcd770"/><path d="m336 24c0 8.835938-7.164062 16-16 16s-16-7.164062-16-16 7.164062-16 16-16 16 7.164062 16 16zm0 0" fill="#fcd770"/><path d="m440.960938 95.039062c4.320312 4.320313 7.039062 10.320313 7.039062 16.960938 0 13.28125-10.71875 24-24 24h-112c-6.640625 0-12.640625-2.71875-16.960938-7.039062-4.320312-4.320313-7.039062-10.320313-7.039062-16.960938 0-13.28125 10.71875-24 24-24h112c6.640625 0 12.640625 2.71875 16.960938 7.039062zm0 0" fill="#ccd1d9"/><path d="m320 264v-128h96v128l39.839844 75.199219c-4.078125-1.917969-9.039063-3.199219-15.839844-3.199219-24.078125 0-24.078125 16-48.078125 16s-24-16-48-16c-23.921875 0-23.921875 16-47.921875 16-9.28125 0-14.960938-2.398438-19.761719-5.28125zm0 0" fill="#e6e9ed"/><path d="m486.160156 401.121094c10.398438 46.078125-24.398437 86.878906-68.640625 86.878906h-99.039062c-44.242188 0-79.039063-40.800781-68.640625-86.878906 1.28125-5.761719 3.601562-11.359375 6.320312-16.5625l20.078125-37.839844c4.800781 2.882812 10.480469 5.28125 19.761719 5.28125 24 0 24-16 47.921875-16 24 0 24 16 48 16s24-16 48.078125-16c6.800781 0 11.761719 1.28125 15.839844 3.199219l24 45.359375c2.71875 5.203125 5.039062 10.800781 6.320312 16.5625zm0 0" fill="#69d6f4"/><g fill="#fcd770"><path d="m448 400c0 8.835938-7.164062 16-16 16s-16-7.164062-16-16 7.164062-16 16-16 16 7.164062 16 16zm0 0"/><path d="m392 440c0 8.835938-7.164062 16-16 16s-16-7.164062-16-16 7.164062-16 16-16 16 7.164062 16 16zm0 0"/><path d="m360 384c0 8.835938-7.164062 16-16 16s-16-7.164062-16-16 7.164062-16 16-16 16 7.164062 16 16zm0 0"/><path d="m312 432c0 8.835938-7.164062 16-16 16s-16-7.164062-16-16 7.164062-16 16-16 16 7.164062 16 16zm0 0"/></g><path d="m493.960938 399.359375c-1.351563-6.007813-3.738282-12.253906-7.082032-18.574219l-62.878906-118.769531v-118.015625c17.648438 0 32-14.351562 32-32s-14.351562-32-32-32h-112c-17.648438 0-32 14.351562-32 32s14.351562 32 32 32v118.015625l-62.878906 118.769531c-3.34375 6.320313-5.722656 12.566406-7.082032 18.574219-5.382812 23.921875.128907 48.394531 15.121094 67.144531 14.992188 18.753906 37.351563 29.496094 61.335938 29.496094h99.015625c23.984375 0 46.335937-10.753906 61.328125-29.503906 14.992187-18.753906 20.503906-43.214844 15.121094-67.136719zm-169.144532-127.359375h51.183594v-16h-48v-16h32v-16h-32v-16h48v-16h-48v-16h32v-16h-32v-32h-16c-8.824219 0-16-7.175781-16-16s7.175781-16 16-16h112c8.824219 0 16 7.175781 16 16s-7.175781 16-16 16h-64v16h48v121.984375l32.855469 62.054687c-.304688-.007812-.582031-.039062-.886719-.039062-14.433594 0-22.199219 5.175781-28.457031 9.34375-5.574219 3.71875-9.992188 6.65625-19.574219 6.65625-9.578125 0-13.984375-2.9375-19.5625-6.65625-6.238281-4.167969-14.015625-9.34375-28.4375-9.34375-14.410156 0-22.175781 5.175781-28.417969 9.34375-5.566406 3.71875-9.976562 6.65625-19.535156 6.65625-3.503906 0-6.28125-.398438-8.710937-1.078125zm141.519532 184.503906c-11.9375 14.9375-29.734376 23.496094-48.832032 23.496094h-99.007812c-19.097656 0-36.886719-8.558594-48.832032-23.496094-11.945312-14.9375-16.320312-34.488281-12.007812-53.632812 1.039062-4.632813 2.929688-9.542969 5.609375-14.605469l16.445313-31.074219c4.234374 1.585938 9.417968 2.808594 16.273437 2.808594 14.414063 0 22.175781-5.175781 28.421875-9.34375 5.570312-3.71875 9.96875-6.65625 19.53125-6.65625 9.574219 0 13.984375 2.9375 19.558594 6.65625 6.246094 4.167969 14.015625 9.34375 28.441406 9.34375 14.429688 0 22.199219-5.175781 28.453125-9.34375 5.585937-3.71875 9.992187-6.65625 19.578125-6.65625 4.617188 0 7.824219.71875 10.136719 1.511719l22.628906 42.753906c2.679687 5.0625 4.570313 9.972656 5.609375 14.605469 4.320312 19.152344-.054688 38.695312-12.007812 53.632812zm0 0"/><path d="m432 376c-13.230469 0-24 10.769531-24 24s10.769531 24 24 24 24-10.769531 24-24-10.769531-24-24-24zm0 32c-4.40625 0-8-3.585938-8-8s3.59375-8 8-8 8 3.585938 8 8-3.59375 8-8 8zm0 0"/><path d="m400 64c13.230469 0 24-10.769531 24-24s-10.769531-24-24-24-24 10.769531-24 24 10.769531 24 24 24zm0-32c4.40625 0 8 3.59375 8 8s-3.59375 8-8 8-8-3.59375-8-8 3.59375-8 8-8zm0 0"/><path d="m320 48c13.230469 0 24-10.769531 24-24s-10.769531-24-24-24-24 10.769531-24 24 10.769531 24 24 24zm0-32c4.40625 0 8 3.59375 8 8s-3.59375 8-8 8-8-3.59375-8-8 3.59375-8 8-8zm0 0"/><path d="m376 416c-13.230469 0-24 10.769531-24 24s10.769531 24 24 24 24-10.769531 24-24-10.769531-24-24-24zm0 32c-4.40625 0-8-3.585938-8-8s3.59375-8 8-8 8 3.585938 8 8-3.59375 8-8 8zm0 0"/><path d="m296 408c-13.230469 0-24 10.769531-24 24s10.769531 24 24 24 24-10.769531 24-24-10.769531-24-24-24zm0 32c-4.40625 0-8-3.585938-8-8s3.59375-8 8-8 8 3.585938 8 8-3.59375 8-8 8zm0 0"/><path d="m104 416c-13.230469 0-24 10.769531-24 24s10.769531 24 24 24 24-10.769531 24-24-10.769531-24-24-24zm0 32c-4.40625 0-8-3.585938-8-8s3.59375-8 8-8 8 3.585938 8 8-3.59375 8-8 8zm0 0"/><path d="m368 384c0-13.230469-10.769531-24-24-24s-24 10.769531-24 24 10.769531 24 24 24 24-10.769531 24-24zm-24 8c-4.40625 0-8-3.585938-8-8s3.59375-8 8-8 8 3.585938 8 8-3.59375 8-8 8zm0 0"/><path d="m192 80h-160c-17.648438 0-32 14.351562-32 32s14.351562 32 32 32v272c0 44.113281 35.886719 80 80 80s80-35.886719 80-80v-272c17.648438 0 32-14.351562 32-32s-14.351562-32-32-32zm-80 400c-35.289062 0-64-28.710938-64-64v-199.089844c4.574219 1.144532 7.816406 3.257813 11.550781 5.746094 6.242188 4.167969 14.007813 9.34375 28.425781 9.34375 14.421876 0 22.199219-5.175781 28.449219-9.34375 5.574219-3.71875 9.980469-6.65625 19.566407-6.65625 9.582031 0 13.992187 2.9375 19.566406 6.65625 4.96875 3.3125 10.960937 7.222656 20.441406 8.703125v184.640625c0 35.289062-28.710938 64-64 64zm80-352h-16v87.089844c-4.585938-1.144532-7.832031-3.257813-11.566406-5.746094-6.25-4.167969-14.019532-9.34375-28.441406-9.34375-14.425782 0-22.191407 5.175781-28.441407 9.34375-5.582031 3.71875-9.992187 6.65625-19.574219 6.65625-9.570312 0-13.976562-2.9375-19.550781-6.65625-4.960937-3.3125-10.953125-7.222656-20.425781-8.703125v-56.640625h96v-16h-112c-8.824219 0-16-7.175781-16-16s7.175781-16 16-16h160c8.824219 0 16 7.175781 16 16s-7.175781 16-16 16zm0 0"/><path d="m152 384c0 4.417969-3.582031 8-8 8s-8-3.582031-8-8 3.582031-8 8-8 8 3.582031 8 8zm0 0"/><path d="m80 360c0 4.417969-3.582031 8-8 8s-8-3.582031-8-8 3.582031-8 8-8 8 3.582031 8 8zm0 0"/><path d="m128 344c0 4.417969-3.582031 8-8 8s-8-3.582031-8-8 3.582031-8 8-8 8 3.582031 8 8zm0 0"/><path d="m112 384c0 4.417969-3.582031 8-8 8s-8-3.582031-8-8 3.582031-8 8-8 8 3.582031 8 8zm0 0"/><path d="m160 304c0 4.417969-3.582031 8-8 8s-8-3.582031-8-8 3.582031-8 8-8 8 3.582031 8 8zm0 0"/><path d="m96 328c0 4.417969-3.582031 8-8 8s-8-3.582031-8-8 3.582031-8 8-8 8 3.582031 8 8zm0 0"/></svg>