<svg height="496pt" viewBox="0 0 496 496" width="496pt" xmlns="http://www.w3.org/2000/svg"><g fill="#ef7385"><path d="m472 150.800781v.078125c-11.601562-1.199218-22.160156-3.199218-32-5.839844v-130.078124c9.839844-2.640626 20.398438-4.640626 32-5.839844zm0 0"/><path d="m408 26.960938v106.078124c-11.601562-5.597656-22.160156-12.238281-32-19.4375v-67.203124c9.839844-7.199219 20.398438-13.839844 32-19.4375zm0 0"/><path d="m296 46.398438c14.238281 10.402343 27.121094 22 40 33.601562-12.878906 11.601562-25.761719 23.199219-40 33.601562zm0 0"/><path d="m264 26.960938v106.160156c-9.761719 4.71875-20.320312 8.800781-32 11.917968v-130.078124c11.679688 3.117187 22.238281 7.199218 32 11.917968zm0 0"/><path d="m200 9.121094v141.757812c-7.601562.722656-15.519531 1.121094-24 1.121094h-8v-144h8c8.480469 0 16.398438.398438 24 1.121094zm0 0"/></g><path d="m168 8v48h-144c-8.800781 0-16-7.199219-16-16v-16c0-8.800781 7.199219-16 16-16zm0 0" fill="#aab2bd"/><path d="m168 152v264c0 39.761719-32.238281 72-72 72-19.839844 0-37.921875-8.078125-50.878906-21.121094-13.042969-12.957031-21.121094-31.039062-21.121094-50.878906v-360h144zm0 0" fill="#e6e9ed"/><path d="m96 88c22.078125 0 40 17.921875 40 40v8l-20.640625 96.320312c-2 9.199219-10 15.679688-19.359375 15.679688s-17.359375-6.480469-19.359375-15.679688l-20.640625-96.320312v-8c0-11.039062 4.480469-21.039062 11.679688-28.320312 7.28125-7.199219 17.28125-11.679688 28.320312-11.679688zm0 0" fill="#fcd770"/><path d="m123.175781 234.03125 20.648438-96.351562.175781-9.679688c0-26.472656-21.527344-48-48-48s-48 21.527344-48 48v8l20.824219 98.03125c2.144531 10.023438 9.710937 17.800781 19.175781 20.6875v73.28125c0 13.230469 10.769531 24 24 24h8c4.40625 0 8 3.59375 8 8s-3.59375 8-8 8h-48c-13.230469 0-24 10.769531-24 24s10.769531 24 24 24h8c4.40625 0 8 3.59375 8 8v40h16v-40c0-13.230469-10.769531-24-24-24h-8c-4.40625 0-8-3.59375-8-8s3.59375-8 8-8h48c13.230469 0 24-10.769531 24-24s-10.769531-24-24-24h-8c-4.40625 0-8-3.59375-8-8v-73.28125c9.464844-2.886719 17.03125-10.671875 19.175781-20.6875zm-59.175781-98.878906v-7.152344c0-17.648438 14.351562-32 32-32s32 14.351562 32 32v7.152344l-20.472656 95.527344c-1.160156 5.398437-6.007813 9.320312-11.527344 9.320312s-10.367188-3.921875-11.527344-9.320312zm0 0"/><path d="m496 16v-16c-79.414062 0-121.136719 34.414062-160 69.246094-38.863281-34.832032-80.585938-69.246094-160-69.246094h-152c-13.230469 0-24 10.769531-24 24v16c0 10.414062 6.710938 19.214844 16 22.527344v353.472656c0 44.113281 35.886719 80 80 80s80-35.886719 80-80v-256c79.414062 0 121.136719-34.414062 160-69.246094 38.863281 34.832032 80.585938 69.246094 160 69.246094v-16c-5.550781 0-10.839844-.222656-16-.566406v-126.867188c5.160156-.34375 10.449219-.566406 16-.566406zm-112 34.542969c5.136719-3.632813 10.457031-7.070313 16-10.277344v79.488281c-5.542969-3.21875-10.863281-6.648437-16-10.28125zm-16 46.703125c-6.792969-5.550782-13.425781-11.335938-20.023438-17.246094 6.597657-5.902344 13.230469-11.6875 20.023438-17.246094zm48-65.246094c5.105469-2.304688 10.425781-4.40625 16-6.273438v108.554688c-5.574219-1.875-10.894531-3.96875-16-6.273438zm-176-6.273438c5.574219 1.867188 10.894531 3.960938 16 6.273438v96c-5.105469 2.304688-10.425781 4.40625-16 6.273438zm-16 113.050782c-5.113281 1.183594-10.449219 2.167968-16 2.957031v-123.46875c5.550781.789063 10.886719 1.773437 16 2.957031zm48-98.519532c5.542969 3.214844 10.863281 6.644532 16 10.277344v58.921875c-5.136719 3.632813-10.457031 7.070313-16 10.277344zm32 22.496094c6.792969 5.550782 13.425781 11.335938 20.023438 17.246094-6.597657 5.902344-13.230469 11.6875-20.023438 17.246094zm-144 81.246094v272c0 35.289062-28.710938 64-64 64s-64-28.710938-64-64v-352h128v64h16v-80h-152c-4.40625 0-8-3.59375-8-8v-16c0-4.40625 3.59375-8 8-8h152c5.550781 0 10.839844.222656 16 .566406v126.875c-5.160156.335938-10.449219.558594-16 .558594zm304-2.265625c-5.550781-.789063-10.886719-1.773437-16-2.957031v-117.554688c5.113281-1.183594 10.449219-2.167968 16-2.957031zm0 0"/><path d="m192 272h16v64h-16zm0 0"/><path d="m256 272h-16c-8.824219 0-16 7.175781-16 16v32c0 8.824219 7.175781 16 16 16h16c8.824219 0 16-7.175781 16-16v-32c0-8.824219-7.175781-16-16-16zm-16 48v-32h16l.007812 32zm0 0"/><path d="m288 272h16v64h-16zm0 0"/><path d="m352 272h-16c-8.824219 0-16 7.175781-16 16v32c0 8.824219 7.175781 16 16 16h16c8.824219 0 16-7.175781 16-16v-32c0-8.824219-7.175781-16-16-16zm-16 48v-32h16l.007812 32zm0 0"/><path d="m384 272h16v64h-16zm0 0"/><path d="m352 352h16v64h-16zm0 0"/><path d="m384 352h16v64h-16zm0 0"/><path d="m448 272h-16c-8.824219 0-16 7.175781-16 16v32c0 8.824219 7.175781 16 16 16h16c8.824219 0 16-7.175781 16-16v-32c0-8.824219-7.175781-16-16-16zm-16 48v-32h16l.007812 32zm0 0"/><path d="m224 352h-16c-8.824219 0-16 7.175781-16 16v32c0 8.824219 7.175781 16 16 16h16c8.824219 0 16-7.175781 16-16v-32c0-8.824219-7.175781-16-16-16zm-16 48v-32h16l.007812 32zm0 0"/><path d="m256 352h16v64h-16zm0 0"/><path d="m320 352h-16c-8.824219 0-16 7.175781-16 16v32c0 8.824219 7.175781 16 16 16h16c8.824219 0 16-7.175781 16-16v-32c0-8.824219-7.175781-16-16-16zm-16 48v-32h16l.007812 32zm0 0"/><path d="m352 432h16v64h-16zm0 0"/><path d="m384 432h16v64h-16zm0 0"/><path d="m416 432h16v64h-16zm0 0"/><path d="m448 432h16v64h-16zm0 0"/><path d="m320 432h-16c-8.824219 0-16 7.175781-16 16v32c0 8.824219 7.175781 16 16 16h16c8.824219 0 16-7.175781 16-16v-32c0-8.824219-7.175781-16-16-16zm-16 48v-32h16l.007812 32zm0 0"/><path d="m224 432h16v64h-16zm0 0"/><path d="m192 432h16v64h-16zm0 0"/><path d="m256 432h16v64h-16zm0 0"/><path d="m448 352h-16c-8.824219 0-16 7.175781-16 16v32c0 8.824219 7.175781 16 16 16h16c8.824219 0 16-7.175781 16-16v-32c0-8.824219-7.175781-16-16-16zm-16 48v-32h16l.007812 32zm0 0"/><path d="m104 120c0 4.417969-3.582031 8-8 8s-8-3.582031-8-8 3.582031-8 8-8 8 3.582031 8 8zm0 0"/></svg>