<svg height="496pt" viewBox="0 0 496 496" width="496pt" xmlns="http://www.w3.org/2000/svg"><path d="m440 112v8c0 4.398438-3.601562 8-8 8h-16c-4.398438 0-8-3.601562-8-8v-64c0-4.398438 3.601562-8 8-8h16c4.398438 0 8 3.601562 8 8zm0 0" fill="#fcd770"/><path d="m488 80v16c0 8.800781-7.199219 16-16 16h-32v-48h32c8.800781 0 16 7.199219 16 16zm0 0" fill="#aab2bd"/><path d="m312 64h96v48h-96zm0 0" fill="#e6e9ed"/><path d="m312 64v48l-40.398438-13.441406c-4.5625-1.519532-7.601562-5.757813-7.601562-10.558594s3.039062-9.039062 7.601562-10.558594zm0 0" fill="#e6e9ed"/><g fill="#ef7385"><path d="m472 249.359375v109.28125c-11.28125-1.28125-21.921875-3.441406-32-6.402344v-96.476562c10.078125-2.960938 20.71875-5.121094 32-6.402344zm0 0"/><path d="m408 267.519531v72.960938c-22.71875-10.160157-43.359375-23.359375-64-36.480469 20.640625-13.121094 41.28125-26.320312 64-36.480469zm0 0"/><path d="m280 267.519531c22.71875 10.160157 43.359375 23.359375 64 36.480469-20.640625 13.121094-41.28125 26.320312-64 36.480469zm0 0"/><path d="m248 255.761719v96.476562c-10.078125 2.960938-20.71875 5.121094-32 6.402344v-109.28125c11.28125 1.28125 21.921875 3.441406 32 6.402344zm0 0"/></g><path d="m184 88h48c0 35.359375-28.640625 64-64 64h-48c0-35.359375 28.640625-64 64-64zm0 0" fill="#b4dd7f"/><path d="m120 72h-48c-35.359375 0-64-28.640625-64-64h48c35.359375 0 64 28.640625 64 64zm0 0" fill="#b4dd7f"/><path d="m200 184v32h-160v-32zm0 0" fill="#ffc729"/><path d="m120 216h48v96l21.359375 48 40.402344 90.878906c1.4375 3.359375 2.238281 7.042969 2.238281 10.722656 0 7.277344-2.960938 13.917969-7.761719 18.636719-4.71875 4.800781-11.359375 7.761719-18.636719 7.761719h-171.203124c-14.558594 0-26.398438-11.839844-26.398438-26.398438 0-3.679687.800781-7.363281 2.238281-10.722656l61.761719-138.878906v-96zm0 0" fill="#fcd770"/><path d="m192 240v16c5.503906 0 10.800781.28125 16 .6875v94.625c-4.398438.34375-8.886719.566406-13.496094.625l-18.503906-41.632812v-86.304688h32v-48h-80v-16h40c39.703125 0 72-32.304688 72-72v-8h-56c-22.609375 0-42.792969 10.496094-56 26.847656v-34.847656c0-39.695312-32.296875-72-72-72h-56v8c0 39.695312 32.296875 72 72 72h40v96h-80v48h32v86.304688l-61.039062 137.328124c-1.960938 4.421876-2.960938 9.128907-2.960938 13.96875 0 18.964844 15.433594 34.398438 34.398438 34.398438h171.203124c18.964844 0 34.398438-15.433594 34.398438-34.398438 0-4.839843-1-9.546874-2.960938-13.96875l-35.511718-79.898437c59.144531-2.542969 101.71875-28.367187 142.472656-54.261719 42.921875 27.269532 87.816406 54.527344 152 54.527344v-16c-5.503906 0-10.800781-.28125-16-.6875v-94.625c5.199219-.40625 10.496094-.6875 16-.6875v-16c-64.183594 0-109.078125 27.257812-152 54.519531-42.921875-27.261719-87.816406-54.519531-152-54.519531zm-8-144h39.433594c-3.890625 27.105469-27.265625 48-55.433594 48h-39.433594c3.898438-27.105469 27.265625-48 55.433594-48zm-112-32c-28.167969 0-51.535156-20.894531-55.433594-48h39.433594c28.167969 0 51.535156 20.894531 55.433594 48zm152 397.601562c0 10.152344-8.246094 18.398438-18.398438 18.398438h-171.203124c-10.152344 0-18.398438-8.246094-18.398438-18.398438 0-2.59375.527344-5.105468 1.585938-7.472656l62.414062-140.433594v-105.695312h-32v-16h144v16h-96v16h16v155.71875l-46.503906 31-16.921875 42.3125 14.859375 5.9375 10.710937-26.785156 15.457031 20.617187 12.796876-9.59375-18.925782-25.230469 36.09375-24.074218 32.433594 25.9375v36.160156h16v-28.902344l13.472656 4.488282 5.0625-15.171876-22.648437-7.542968-35.886719-28.710938v-156.160156h32v89.695312l62.414062 140.441407c1.058594 2.359375 1.585938 4.871093 1.585938 7.464843zm64-181.433593c14.046875 7.128906 27.527344 15.304687 41.046875 23.832031-13.527344 8.527344-27 16.703125-41.046875 23.832031zm-16 55.175781c-5.207031 2.222656-10.542969 4.257812-16 6.113281v-74.90625c5.457031 1.847657 10.792969 3.882813 16 6.113281zm-48-76.808594c5.488281.890625 10.800781 2.03125 16 3.328125v84.265625c-5.199219 1.296875-10.511719 2.4375-16 3.328125zm176 69.296875c-14.046875-7.128906-27.527344-15.304687-41.046875-23.832031 13.527344-8.527344 27-16.703125 41.046875-23.832031zm16-55.175781c5.207031-2.222656 10.542969-4.257812 16-6.113281v74.90625c-5.457031-1.847657-10.792969-3.882813-16-6.113281zm48 76.808594c-5.488281-.890625-10.800781-2.03125-16-3.328125v-84.273438c5.199219-1.296875 10.511719-2.4375 16-3.328125zm0 0"/><path d="m472 56h-24c0-8.824219-7.175781-16-16-16h-16c-8.824219 0-16 7.175781-16 16h-89.296875l-41.648437 13.878906c-7.816407 2.609375-13.054688 9.890625-13.054688 18.121094s5.238281 15.511719 13.054688 18.121094l41.648437 13.878906h89.296875c0 8.824219 7.175781 16 16 16h16c8.824219 0 16-7.175781 16-16h24c13.230469 0 24-10.769531 24-24v-16c0-13.230469-10.769531-24-24-24zm-200 32c0-1.335938.847656-2.519531 2.121094-2.945312l29.878906-9.957032v25.796875l-29.878906-9.957031c-1.273438-.417969-2.121094-1.601562-2.121094-2.9375zm48 16v-32h80v32zm112 16h-16v-64h16zm48-24c0 4.40625-3.585938 8-8 8h-24v-32h24c4.414062 0 8 3.59375 8 8zm0 0"/></svg>