<svg height="496pt" viewBox="-32 0 496 496.008" width="496pt" xmlns="http://www.w3.org/2000/svg"><path d="m120.003906 368v16c0 4.398438-3.601562 8-8 8h-96c-4.398437 0-8-3.601562-8-8v-16c0-4.398438 3.601563-8 8-8h96c4.398438 0 8 3.601562 8 8zm0 0" fill="#ccd1d9"/><path d="m40.003906 392h48v96h-48zm0 0" fill="#e6e9ed"/><path d="m411.285156 314.320312c8.800782 17.359376 13.4375 37.199219 12.640625 58.238282-2.242187 61.441406-52.480469 112.320312-114 115.28125-68.960937 3.359375-125.921875-51.601563-125.921875-119.839844 0-19.28125 4.558594-37.519531 12.71875-53.679688h.082032c18 7.441407 22.160156 29.679688 47.199218 29.679688 30 0 30-32 60-32s30 32 60 32c25.039063 0 29.199219-22.238281 47.28125-29.679688zm0 0" fill="#69d6f4"/><path d="m411.285156 314.320312c-18.082031 7.441407-22.242187 29.679688-47.28125 29.679688-30 0-30-32-60-32s-30 32-60 32c-25.039062 0-29.199218-22.238281-47.199218-29.679688 8.960937-18.160156 22.558593-33.679687 39.121093-45.121093 12.957031-8.878907 20.078125-24 20.078125-39.679688v-85.519531h96v85.199219c0 15.839843 7.199219 31.121093 20.238282 40.160156 16.480468 11.441406 30 26.878906 39.042968 44.960937zm0 0" fill="#e6e9ed"/><path d="m360.003906 96c13.28125 0 24 10.71875 24 24 0 6.640625-2.71875 12.640625-7.039062 16.960938-4.320313 4.320312-10.320313 7.039062-16.960938 7.039062h-112c-13.28125 0-24-10.71875-24-24 0-6.640625 2.71875-12.640625 7.039063-16.960938 4.320312-4.320312 10.320312-7.039062 16.960937-7.039062zm0 0" fill="#aab2bd"/><g fill="#fcd770"><path d="m360.003906 48c0 8.835938-7.164062 16-16 16-8.835937 0-16-7.164062-16-16s7.164063-16 16-16c8.835938 0 16 7.164062 16 16zm0 0"/><path d="m344.003906 432c0 8.835938-7.164062 16-16 16-8.835937 0-16-7.164062-16-16s7.164063-16 16-16c8.835938 0 16 7.164062 16 16zm0 0"/><path d="m320.003906 376c0 8.835938-7.164062 16-16 16-8.835937 0-16-7.164062-16-16s7.164063-16 16-16c8.835938 0 16 7.164062 16 16zm0 0"/><path d="m296.003906 24c0 8.835938-7.164062 16-16 16-8.835937 0-16-7.164062-16-16s7.164063-16 16-16c8.835938 0 16 7.164062 16 16zm0 0"/><path d="m256.003906 400c0 8.835938-7.164062 16-16 16-8.835937 0-16-7.164062-16-16s7.164063-16 16-16c8.835938 0 16 7.164062 16 16zm0 0"/><path d="m24.003906 296v-144c0-14.960938 10.320313-27.601562 24.238282-31.039062 2.480468-.640626 5.121093-.960938 7.761718-.960938h16c2.640625 0 5.28125.320312 7.761719.960938 13.917969 3.4375 24.238281 16.078124 24.238281 31.039062v208h-80zm0 0"/></g><path d="m80.003906 88v32l-.238281.960938c-2.480469-.640626-5.121094-.960938-7.761719-.960938h-16c-2.640625 0-5.28125.320312-7.761718.960938l-.238282-.960938v-32c0-4.398438 1.761719-8.398438 4.71875-11.28125 2.882813-2.957031 6.882813-4.71875 11.28125-4.71875 8.800782 0 16 7.199219 16 16zm0 0" fill="#aab2bd"/><path d="m376.789062 262.761719c-10.511718-7.273438-16.785156-19.816407-16.785156-33.5625v-77.199219c17.648438 0 32-14.351562 32-32s-14.351562-32-32-32h-112c-17.648437 0-32 14.351562-32 32s14.351563 32 32 32v77.535156c0 13.554688-6.199218 25.929688-16.582031 33.089844-34.707031 23.917969-55.417969 63.3125-55.417969 105.375 0 35.359375 14.105469 68.273438 39.710938 92.679688 24.050781 22.914062 55.167968 35.328124 88.21875 35.328124 2.132812 0 4.269531-.054687 6.414062-.160156 65.746094-3.183594 119.144532-57.222656 121.558594-123.023437 1.625-43.902344-18.980469-85.046875-55.117188-110.0625zm-136.289062 13.039062c14.710938-10.152343 23.503906-27.449219 23.503906-46.265625v-77.535156h48v-16h-64c-8.824218 0-16-7.175781-16-16s7.175782-16 16-16h112c8.824219 0 16 7.175781 16 16s-7.175781 16-16 16h-16v93.199219c0 18.992187 8.847656 36.457031 23.671875 46.710937 13.664063 9.457032 24.769531 21.5625 32.886719 35.347656-4.886719 3.398438-8.847656 7.476563-12.414062 11.277344-7.046876 7.519532-12.625 13.464844-24.160157 13.464844-11.535156 0-17.121093-5.945312-24.167969-13.472656-7.746093-8.253906-17.375-18.527344-35.847656-18.527344-18.464844 0-28.089844 10.273438-35.824218 18.527344-7.046876 7.527344-12.625 13.472656-24.152344 13.472656s-17.105469-5.945312-24.160156-13.472656c-3.511719-3.742188-7.425782-7.757813-12.222657-11.136719 8.183594-13.894531 19.207031-26.167969 32.886719-35.589844zm175.425781 96.429688c-2.128906 57.570312-48.832031 104.847656-106.355469 107.632812-31.207031 1.535157-60.429687-9.4375-82.824218-30.773437-22.398438-21.347656-34.742188-50.152344-34.742188-81.089844 0-14.65625 2.984375-28.886719 8.367188-42.105469 2.648437 2.160157 5.128906 4.738281 7.800781 7.578125 7.726563 8.253906 17.351563 18.527344 35.824219 18.527344 18.464844 0 28.097656-10.273438 35.832031-18.527344 7.046875-7.527344 12.625-13.472656 24.144531-13.472656 11.535156 0 17.121094 5.945312 24.167969 13.472656 7.742187 8.253906 17.375 18.527344 35.847656 18.527344 18.472657 0 28.105469-10.273438 35.832031-18.519531 2.703126-2.886719 5.222657-5.488281 7.910157-7.664063 5.890625 14.464844 8.792969 30.214844 8.195312 46.414063zm0 0"/><path d="m328.003906 408c-13.230468 0-24 10.769531-24 24s10.769532 24 24 24c13.230469 0 24-10.769531 24-24s-10.769531-24-24-24zm0 32c-4.414062 0-8-3.585938-8-8s3.585938-8 8-8c4.417969 0 8 3.585938 8 8s-3.582031 8-8 8zm0 0"/><path d="m344.003906 72c13.230469 0 24-10.769531 24-24s-10.769531-24-24-24c-13.230468 0-24 10.769531-24 24s10.769532 24 24 24zm0-32c4.417969 0 8 3.59375 8 8s-3.582031 8-8 8c-4.414062 0-8-3.59375-8-8s3.585938-8 8-8zm0 0"/><path d="m280.003906 48c13.230469 0 24-10.769531 24-24s-10.769531-24-24-24c-13.230468 0-24 10.769531-24 24s10.769532 24 24 24zm0-32c4.417969 0 8 3.59375 8 8s-3.582031 8-8 8c-4.414062 0-8-3.59375-8-8s3.585938-8 8-8zm0 0"/><path d="m240.003906 376c-13.230468 0-24 10.769531-24 24s10.769532 24 24 24c13.230469 0 24-10.769531 24-24s-10.769531-24-24-24zm0 32c-4.414062 0-8-3.585938-8-8s3.585938-8 8-8c4.417969 0 8 3.585938 8 8s-3.582031 8-8 8zm0 0"/><path d="m328.003906 376c0-13.230469-10.769531-24-24-24-13.230468 0-24 10.769531-24 24s10.769532 24 24 24c13.230469 0 24-10.769531 24-24zm-32 0c0-4.414062 3.585938-8 8-8 4.417969 0 8 3.585938 8 8s-3.582031 8-8 8c-4.414062 0-8-3.585938-8-8zm0 0"/><path d="m112.003906 352v-200c0-16.359375-9.894531-30.414062-24-36.609375v-27.390625c0-10.414062-6.710937-19.214844-16-22.527344v-65.472656h-16v65.472656c-9.289062 3.3125-16 12.113282-16 22.527344v27.390625c-14.105468 6.195313-24 20.25-24 36.609375v200c-8.824218 0-15.99999975 7.175781-15.99999975 16v16c0 8.824219 7.17578175 16 15.99999975 16h16v80h-16v16h96v-16h-16v-80h16c8.824219 0 16-7.175781 16-16v-16c0-8.824219-7.175781-16-16-16zm-56-264c0-4.40625 3.585938-8 8-8 4.417969 0 8 3.59375 8 8v24h-16zm-24 216h48v-16h-48v-16h32v-16h-32v-16h48v-16h-48v-16h32v-16h-32v-16h48v-16h-48v-8c0-13.230469 10.769532-24 24-24h16c13.230469 0 24 10.769531 24 24v200h-64zm48 176h-32v-80h32zm32-96h-96v-16h96zm0 0"/></svg>