<svg height="496pt" viewBox="0 0 496 496" width="496pt" xmlns="http://www.w3.org/2000/svg"><path d="m88 360v16c7.359375 14.71875 18.558594 26.71875 32 35.039062 13.519531 8.320313 29.28125 12.960938 45.679688 12.960938h164.640624c32.878907 0 62.960938-18.558594 77.679688-48v-8h64c8.800781 0 16 7.199219 16 16 0 4.398438-1.761719 8.398438-4.71875 11.28125-2.882812 2.957031-6.882812 4.71875-11.28125 4.71875h-24c-8.800781 0-16 7.199219-16 16 0 4.398438 1.761719 8.398438 4.71875 11.28125 2.882812 2.957031 6.882812 4.71875 11.28125 4.71875h8c8.800781 0 16 7.199219 16 16 0 4.398438-1.761719 8.398438-4.71875 11.28125-2.882812 2.957031-6.882812 4.71875-11.28125 4.71875h-36c-12.960938 0-25.601562 4.238281-36 12s-23.039062 12-36 12h-76l-16-16c-26.640625 0-26.640625-16-53.359375-16-26.640625 0-26.640625 16-53.359375 16-26.640625 0-26.640625-16-53.28125-16h-56c-8.800781 0-16-7.199219-16-16 0-4.398438 1.761719-8.398438 4.71875-11.28125 2.882812-2.957031 6.882812-4.71875 11.28125-4.71875h8c8.800781 0 16-7.199219 16-16 0-4.398438-1.761719-8.398438-4.71875-11.28125-2.882812-2.957031-6.882812-4.71875-11.28125-4.71875h-24c-8.800781 0-16-7.199219-16-16 0-4.398438 1.761719-8.398438 4.71875-11.28125 2.882812-2.957031 6.882812-4.71875 11.28125-4.71875zm0 0" fill="#69d6f4"/><g fill="#ccd1d9"><path d="m488 240c0 8.835938-7.164062 16-16 16s-16-7.164062-16-16 7.164062-16 16-16 16 7.164062 16 16zm0 0"/><path d="m488 320c0 8.835938-7.164062 16-16 16s-16-7.164062-16-16 7.164062-16 16-16 16 7.164062 16 16zm0 0"/><path d="m40 296c0 8.835938-7.164062 16-16 16s-16-7.164062-16-16 7.164062-16 16-16 16 7.164062 16 16zm0 0"/><path d="m56 224c0 8.835938-7.164062 16-16 16s-16-7.164062-16-16 7.164062-16 16-16 16 7.164062 16 16zm0 0"/><path d="m363.039062 52.078125 12.960938 51.921875h-32.960938l-8-32h-78.078124l-8 32h-32.960938l12.960938-51.921875c1.757812-7.117187 8.160156-12.078125 15.519531-12.078125h103.039062c7.359375 0 13.761719 4.960938 15.519531 12.078125zm0 0"/></g><path d="m168 24v16h-80v-16c0-8.800781 7.199219-16 16-16h48c8.800781 0 16 7.199219 16 16zm0 0" fill="#ef7385"/><path d="m184 48v16c0 4.398438-3.601562 8-8 8h-96c-4.398438 0-8-3.601562-8-8v-16c0-4.398438 3.601562-8 8-8h96c4.398438 0 8 3.601562 8 8zm0 0" fill="#ef7385"/><path d="m168 72v32l-80 48v-80zm0 0" fill="#ccd1d9"/><path d="m376 104 32 48h-320l80-48zm0 0" fill="#ccd1d9"/><path d="m408 368v8c-14.71875 29.441406-44.800781 48-77.679688 48h-164.640624c-16.398438 0-32.160157-4.640625-45.679688-12.960938-13.441406-8.320312-24.640625-20.320312-32-35.039062v-224h320zm0 0" fill="#e6e9ed"/><path d="m309.28125 202.71875c-11.601562-11.519531-27.601562-18.71875-45.28125-18.71875h-32c-35.359375 0-64 28.640625-64 64 0 20.160156 9.519531 39.121094 25.601562 51.199219l6.398438 4.800781v24c0 8.800781 7.199219 16 16 16h64c8.800781 0 16-7.199219 16-16v-24l6.398438-4.800781c16.082031-12.078125 25.601562-31.039063 25.601562-51.199219 0-17.679688-7.199219-33.679688-18.71875-45.28125zm-80.5625 40.5625-9.4375 9.4375c-2.082031 2.082031-4.960938 3.28125-8 3.28125-6.242188 0-11.28125-5.039062-11.28125-11.28125v-9.4375c0-6.242188 5.039062-11.28125 11.28125-11.28125h9.4375c6.242188 0 11.28125 5.039062 11.28125 11.28125 0 3.039062-1.199219 5.917969-3.28125 8zm67.28125 1.4375c0 6.242188-5.039062 11.28125-11.28125 11.28125-3.039062 0-5.917969-1.199219-8-3.28125l-9.4375-9.4375c-2.082031-2.082031-3.28125-4.960938-3.28125-8 0-6.242188 5.039062-11.28125 11.28125-11.28125h9.4375c6.242188 0 11.28125 5.039062 11.28125 11.28125zm0 0" fill="#ef7385"/><path d="m216 352h64c13.230469 0 24-10.769531 24-24v-20l3.199219-2.398438c18.03125-13.523437 28.800781-35.058593 28.800781-57.601562 0-39.695312-32.304688-72-72-72h-32c-39.695312 0-72 32.304688-72 72 0 22.542969 10.769531 44.070312 28.800781 57.601562l3.199219 2.398438v20c0 13.230469 10.769531 24 24 24zm-40-104c0-30.878906 25.121094-56 56-56h32c30.878906 0 56 25.121094 56 56 0 17.527344-8.375 34.28125-22.398438 44.800781l-9.601562 7.199219v28c0 4.40625-3.59375 8-8 8h-8v-24h-16v24h-16v-24h-16v24h-8c-4.40625 0-8-3.59375-8-8v-28l-9.601562-7.199219c-14.023438-10.519531-22.398438-27.273437-22.398438-44.800781zm0 0"/><path d="m271.03125 258.34375c3.648438 3.648438 8.496094 5.65625 13.65625 5.65625 10.648438 0 19.3125-8.664062 19.3125-19.3125v-9.375c0-10.648438-8.664062-19.3125-19.3125-19.3125h-9.375c-10.648438 0-19.3125 8.664062-19.3125 19.3125 0 5.160156 2.007812 10.007812 5.65625 13.65625zm4.28125-26.34375h9.375c1.824219 0 3.3125 1.488281 3.3125 3.3125v9.375c0 2.703125-3.753906 4.25-5.65625 2.34375l-9.375-9.375c-.617188-.617188-.96875-1.472656-.96875-2.34375 0-1.824219 1.488281-3.3125 3.3125-3.3125zm0 0"/><path d="m211.3125 264c5.160156 0 10.007812-2.007812 13.65625-5.65625l9.375-9.375c3.648438-3.648438 5.65625-8.496094 5.65625-13.65625 0-10.648438-8.664062-19.3125-19.3125-19.3125h-9.375c-10.648438 0-19.3125 8.664062-19.3125 19.3125v9.375c0 10.648438 8.664062 19.3125 19.3125 19.3125zm-3.3125-28.6875c0-1.824219 1.488281-3.3125 3.3125-3.3125h9.375c1.824219 0 3.3125 1.488281 3.3125 3.3125 0 .871094-.351562 1.726562-.96875 2.34375l-9.375 9.375c-1.914062 1.90625-5.65625.359375-5.65625-2.34375zm0 0"/><path d="m272 480h16v16h-16zm0 0"/><path d="m472 360h-56v-210.425781l-32.574219-48.855469-12.632812-50.535156c-2.671875-10.703125-12.25-18.183594-23.289063-18.183594h-103.007812c-11.03125 0-20.609375 7.480469-23.289063 18.175781l-11.453125 45.824219h-33.753906v-16c8.824219 0 16-7.175781 16-16v-16c0-8.824219-7.175781-16-16-16v-8c0-13.230469-10.769531-24-24-24h-48c-13.230469 0-24 10.769531-24 24v8c-8.824219 0-16 7.175781-16 16v16c0 8.824219 7.175781 16 16 16v256h16v-176h304v214.0625c-13.703125 25.921875-40.222656 41.9375-69.664062 41.9375h-164.671876c-29.441406 0-55.960937-16.015625-69.664062-41.9375v-22.0625h-72c-13.230469 0-24 10.769531-24 24s10.769531 24 24 24h24c4.40625 0 8 3.59375 8 8s-3.59375 8-8 8h-8c-13.230469 0-24 10.769531-24 24s10.769531 24 24 24h56c11.113281 0 16.160156 3.023438 22.535156 6.855469 7.136719 4.289062 15.234375 9.144531 30.777344 9.144531 15.550781 0 23.648438-4.855469 30.785156-9.144531 6.390625-3.832031 11.4375-6.855469 22.558594-6.855469s16.167969 3.023438 22.550781 6.855469c7.144531 4.289062 15.242188 9.144531 30.792969 9.144531v-16c-11.121094 0-16.167969-3.023438-22.550781-6.855469-7.144531-4.289062-15.242188-9.144531-30.792969-9.144531s-23.648438 4.855469-30.792969 9.144531c-6.382812 3.832031-11.429687 6.855469-22.550781 6.855469-11.113281 0-16.152344-3.023438-22.535156-6.855469-7.136719-4.289062-15.234375-9.144531-30.777344-9.144531h-56c-4.40625 0-8-3.59375-8-8s3.59375-8 8-8h8c13.230469 0 24-10.769531 24-24s-10.769531-24-24-24h-24c-4.40625 0-8-3.59375-8-8s3.59375-8 8-8h56v9.886719l.839844 1.6875c16.167968 32.335937 48.671875 52.425781 84.824218 52.425781h164.671876c36.152343 0 68.65625-20.089844 84.824218-52.425781l.839844-1.6875v-1.886719h56c4.40625 0 8 3.59375 8 8s-3.59375 8-8 8h-24c-13.230469 0-24 10.769531-24 24s10.769531 24 24 24h8c4.40625 0 8 3.59375 8 8s-3.59375 8-8 8h-36c-14.617188 0-29.105469 4.832031-40.800781 13.601562-8.941407 6.703126-20.023438 10.398438-31.199219 10.398438h-44v16h44c14.617188 0 29.105469-4.832031 40.800781-13.601562 8.941407-6.703126 20.023438-10.398438 31.199219-10.398438h36c13.230469 0 24-10.769531 24-24s-10.769531-24-24-24h-8c-4.40625 0-8-3.59375-8-8s3.59375-8 8-8h24c13.230469 0 24-10.769531 24-24s-10.769531-24-24-24zm-301.785156-248h201.503906l21.335938 32h-276.167969zm89.015625-16 4-16h65.539062l4 16zm-22.503907-41.9375c.898438-3.566406 4.089844-6.0625 7.769532-6.0625h103.015625c3.679687 0 6.871093 2.496094 7.761719 6.0625l10.480468 41.9375h-16.488281l-8-32h-90.53125l-8 32h-16.488281zm-140.726562-30.0625c0-4.40625 3.59375-8 8-8h48c4.40625 0 8 3.59375 8 8v8h-64zm-16 24h96v16h-96zm16 32h64v19.472656l-64 38.398438zm0 0"/><path d="m24 320c13.230469 0 24-10.769531 24-24s-10.769531-24-24-24-24 10.769531-24 24 10.769531 24 24 24zm0-32c4.40625 0 8 3.59375 8 8s-3.59375 8-8 8-8-3.59375-8-8 3.59375-8 8-8zm0 0"/><path d="m472 264c13.230469 0 24-10.769531 24-24s-10.769531-24-24-24-24 10.769531-24 24 10.769531 24 24 24zm0-32c4.40625 0 8 3.59375 8 8s-3.59375 8-8 8-8-3.59375-8-8 3.59375-8 8-8zm0 0"/><path d="m472 296c-13.230469 0-24 10.769531-24 24s10.769531 24 24 24 24-10.769531 24-24-10.769531-24-24-24zm0 32c-4.40625 0-8-3.59375-8-8s3.59375-8 8-8 8 3.59375 8 8-3.59375 8-8 8zm0 0"/><path d="m40 248c13.230469 0 24-10.769531 24-24s-10.769531-24-24-24-24 10.769531-24 24 10.769531 24 24 24zm0-32c4.40625 0 8 3.59375 8 8s-3.59375 8-8 8-8-3.59375-8-8 3.59375-8 8-8zm0 0"/></svg>