<svg height="496pt" viewBox="0 0 496 496.008" width="496pt" xmlns="http://www.w3.org/2000/svg"><path d="m416.003906 48.007812c0 22.082032-17.917968 40-40 40-16.398437 0-30.480468-9.917968-36.640625-24h-.078125c-2.082031-4.878906-3.28125-10.320312-3.28125-16 0-5.679687 1.199219-11.121093 3.28125-16h.078125c6.160157-14.078124 20.242188-24 36.640625-24 22.082032 0 40 17.921876 40 40zm0 0" fill="#e6e9ed"/><path d="m160.003906 32.007812v56h-112v-80h112zm0 0" fill="#e6e9ed"/><path d="m288.003906 32.007812h51.28125c-2.082031 4.878907-3.28125 10.320313-3.28125 16 0 5.679688 1.199219 11.121094 3.28125 16h-51.28125zm0 0" fill="#aab2bd"/><path d="m160.003906 32.007812h48v32h-48zm0 0" fill="#aab2bd"/><path d="m288.003906 64.007812v8c0 8.800782-7.199218 16-16 16h-48c-8.800781 0-16-7.199218-16-16v-48c0-8.800781 7.199219-16 16-16h48c8.800782 0 16 7.199219 16 16zm0 0" fill="#969faa"/><path d="m272.003906 88.007812v49.921876c-7.839844-1.28125-15.917968-1.921876-24-1.921876-8.078125 0-16.160156.640626-24 1.921876v-49.921876zm0 0" fill="#aab2bd"/><path d="m330.644531 160.007812h61.359375v24c0 8.800782 7.199219 16 16 16h64c4.398438 0 8.398438 1.761719 11.28125 4.71875 2.957032 2.882813 4.71875 6.882813 4.71875 11.28125 0 8.800782-7.199218 16-16 16h-40c-4.398437 0-8.398437 1.761719-11.28125 4.71875-2.957031 2.882813-4.71875 6.882813-4.71875 11.28125 0 8.800782 7.199219 16 16 16h16c4.398438 0 8.398438 1.761719 11.28125 4.71875 2.957032 2.882813 4.71875 6.882813 4.71875 11.28125 0 8.800782-7.199218 16-16 16h-88v-112l-2.71875-2.71875c-8.160156-8.160156-17.121094-15.28125-26.640625-21.28125zm0 0" fill="#69d6f4"/><path d="m136.003906 248.007812v168h-32v-56c0-8.800781-7.199218-16-16-16h-32c-4.398437 0-8.398437-1.761718-11.28125-4.71875-2.957031-2.882812-4.71875-6.882812-4.71875-11.28125 0-8.800781 7.199219-16 16-16h32c4.398438 0 8.398438-1.761718 11.28125-4.71875 2.957032-2.882812 4.71875-6.882812 4.71875-11.28125 0-8.800781-7.199218-16-16-16h-64c-4.398437 0-8.398437-1.761718-11.28125-4.71875-2.957031-2.882812-4.71875-6.882812-4.71875-11.28125 0-8.800781 7.199219-16 16-16zm0 0" fill="#69d6f4"/><path d="m330.644531 160.007812c9.519531 6 18.480469 13.121094 26.640625 21.28125l2.71875 2.71875h-224l2.71875-2.71875c14.5625-14.5625 31.601563-25.839843 50.160156-33.519531 11.203126-4.640625 23.042969-8 35.121094-9.839843 7.839844-1.28125 15.921875-1.921876 24-1.921876 8.082032 0 16.160156.640626 24 1.921876 20.878906 3.199218 40.800782 10.796874 58.640625 22.078124zm0 0" fill="#969faa"/><path d="m136.003906 456.007812h224c0 17.679688-14.320312 32-32 32h-160c-8.800781 0-16.800781-3.601562-22.640625-9.359374-5.757812-5.839844-9.359375-13.839844-9.359375-22.640626zm0 0" fill="#969faa"/><path d="m360.003906 424.007812v32h-224v-32zm0 0" fill="#e6e9ed"/><path d="m360.003906 184.007812v32h-224v-32zm0 0" fill="#e6e9ed"/><path d="m360.003906 296.007812v128h-224v-208h224zm0 0" fill="#b4dd7f"/><path d="m72.003906 40.007812h64v16h-64zm0 0"/><path d="m216.003906 240.007812c-30.871094 0-56 28.710938-56 64 0 35.289063 25.128906 64 56 64s56-28.710937 56-64c0-35.289062-25.128906-64-56-64zm0 112c-22.054687 0-40-21.527343-40-48 0-26.472656 17.945313-48 40-48 22.054688 0 40 21.527344 40 48 0 26.472657-17.945312 48-40 48zm0 0"/><path d="m328.003906 384.007812h-26.664062l17.0625-12.808593c6.019531-4.496094 9.601562-11.679688 9.601562-19.191407 0-13.230468-10.769531-24-24-24-13.230468 0-24 10.769532-24 24v8h16v-8c0-4.414062 3.585938-8 8-8 4.417969 0 8 3.585938 8 8 0 2.503907-1.191406 4.894532-3.191406 6.398438l-28.808594 21.601562v20h48zm0 0"/><path d="m472.003906 192.007812h-64c-4.414062 0-8-3.582031-8-8v-24h-16v24c0 13.230469 10.769532 24 24 24h64c4.417969 0 8 3.585938 8 8 0 4.417969-3.582031 8-8 8h-40c-13.230468 0-24 10.769532-24 24 0 13.230469 10.769532 24 24 24h16c4.417969 0 8 3.585938 8 8 0 4.417969-3.582031 8-8 8h-80v-107.3125l-5.089844-5.085937c-23.007812-23.007813-51.703124-38.273437-82.910156-44.472656v-36.609375c9.289063-3.3125 16-12.113282 16-22.527344h38.496094c8.3125 14.320312 23.785156 24 41.503906 24 26.472656 0 48-21.527344 48-48s-21.527344-48-48-48c-17.71875 0-33.191406 9.679688-41.503906 24h-38.496094c0-13.230469-10.769531-24-24-24h-48c-13.230468 0-24 10.769531-24 24h-32v-23.9921875h-128v95.9999995h128v-24h32c0 10.417969 6.710938 19.214844 16 22.527344v36.609375c-31.207031 6.199219-59.902344 21.457031-82.910156 44.472657l-5.089844 5.078124v59.3125h-104c-13.230468 0-23.99999975 10.769532-23.99999975 24 0 13.230469 10.76953175 24 23.99999975 24h64c4.417969 0 8 3.585938 8 8 0 4.417969-3.582031 8-8 8h-32c-13.230468 0-24 10.769532-24 24 0 13.230469 10.769532 24 24 24h32c4.417969 0 8 3.585938 8 8v24h16v-24c0-13.230468-10.769531-24-24-24h-32c-4.414062 0-8-3.582031-8-8 0-4.414062 3.585938-8 8-8h32c13.230469 0 24-10.769531 24-24 0-13.230468-10.769531-24-24-24h-64c-4.414062 0-8-3.582031-8-8 0-4.414062 3.585938-8 8-8h104v200c0 22.054688 17.945313 40 40 40h160c22.054688 0 40-17.945312 40-40v-152h80c13.230469 0 24-10.769531 24-24 0-13.230468-10.769531-24-24-24h-16c-4.414062 0-8-3.582031-8-8 0-4.414062 3.585938-8 8-8h40c13.230469 0 24-10.769531 24-24 0-13.230468-10.769531-24-24-24zm-120 240v16h-208v-16h160v-16h-160v-192h208v192h-32v16zm-168-240v-16h-27.296875c25.855469-20.695312 57.695313-32 91.296875-32 33.601563 0 65.441406 11.304688 91.296875 32h-139.296875v16h152v16h-208v-16zm184-174.863281v14.863281h16v-14.863281c11.191406 2.902344 19.960938 11.671875 22.863282 22.863281h-14.863282v16h14.863282c-2.910157 11.191407-11.671876 19.960938-22.863282 22.863282v-14.863282h-16v14.863282c-11.191406-2.902344-19.960937-11.671875-22.863281-22.863282h14.863281v-16h-14.863281c2.902344-11.191406 11.671875-19.960937 22.863281-22.863281zm-39.28125 22.863281c-.4375 2.609376-.71875 5.273438-.71875 8 0 2.726563.28125 5.390626.71875 8h-32.71875v-16zm-112.71875-16c0-4.414062 3.585938-8 8-8h48c4.417969 0 8 3.585938 8 8v48c0 4.417969-3.582031 8-8 8h-48c-4.414062 0-8-3.582031-8-8zm-64 56h-96v-64h96zm16-24v-16h32v16zm64 40h32v32.777344c-5.289062-.511718-10.625-.777344-16-.777344s-10.710937.265626-16 .777344zm96 384h-160c-10.414062 0-19.214844-6.710937-22.527344-16h205.046876c-3.304688 9.289063-12.101563 16-22.519532 16zm0 0"/><path d="m96.003906 400.007812h16v16h-16zm0 0"/></svg>