<svg height="496pt" viewBox="0 0 496 496" width="496pt" xmlns="http://www.w3.org/2000/svg"><g fill="#fcd770"><path d="m456 304c0 30.929688-25.070312 56-56 56s-56-25.070312-56-56 25.070312-56 56-56 56 25.070312 56 56zm0 0"/><path d="m344 304c0 30.929688-25.070312 56-56 56s-56-25.070312-56-56 25.070312-56 56-56 56 25.070312 56 56zm0 0"/><path d="m101.761719 248.320312c28.238281 2.800782 50.238281 26.640626 50.238281 55.679688 0 30.960938-25.039062 56-56 56s-56-25.039062-56-56 25.039062-56 56-56c1.921875 0 3.839844.078125 5.761719.320312zm0 0"/></g><path d="m440 472v16h-384v-16c0-8.800781 7.199219-16 16-16h352c8.800781 0 16 7.199219 16 16zm0 0" fill="#cf9e76"/><path d="m472 8c8.800781 0 16 7.199219 16 16s-7.199219 16-16 16h-448c-4.398438 0-8.398438-1.761719-11.28125-4.71875-2.957031-2.882812-4.71875-6.882812-4.71875-11.28125 0-8.800781 7.199219-16 16-16zm0 0" fill="#d3a06c"/><path d="m496 24c0-13.230469-10.769531-24-24-24h-448c-13.230469 0-24 10.769531-24 24 0 10.414062 6.710938 19.214844 16 22.527344v449.472656h16v-448h156.257812l-76.449218 194.054688c-5.066406-1.292969-10.34375-2.054688-15.808594-2.054688-35.289062 0-64 28.710938-64 64s28.710938 64 64 64 64-28.710938 64-64c0-24.167969-13.472656-45.238281-33.296875-56.128906l78.738281-199.871094h74.558594v192.550781c-31.519531 3.960938-56 30.875-56 63.449219 0 35.289062 28.710938 64 64 64 24.078125 0 45.078125-13.382812 56-33.089844 10.921875 19.707032 31.921875 33.089844 56 33.089844 35.289062 0 64-28.710938 64-64 0-32.574219-24.480469-59.488281-56-63.449219v-192.550781h56v448h16v-449.472656c9.289062-3.3125 16-12.113282 16-22.527344zm-352 280c0 26.472656-21.527344 48-48 48s-48-21.527344-48-48 21.527344-48 48-48 48 21.527344 48 48zm144 48c-26.472656 0-48-21.527344-48-48s21.527344-48 48-48 48 21.527344 48 48-21.527344 48-48 48zm160-48c0 26.472656-21.527344 48-48 48s-48-21.527344-48-48 21.527344-48 48-48 48 21.527344 48 48zm-56-63.449219c-20.671875 2.59375-38.3125 15.050781-48 32.527344-9.6875-17.476563-27.328125-29.933594-48-32.527344v-192.550781h96zm80-208.550781h-448c-4.40625 0-8-3.585938-8-8s3.59375-8 8-8h448c4.40625 0 8 3.585938 8 8s-3.59375 8-8 8zm0 0"/><path d="m368 304h16c0-8.824219 7.175781-16 16-16v-16c-17.648438 0-32 14.351562-32 32zm0 0"/><path d="m288 320v16c17.648438 0 32-14.351562 32-32h-16c0 8.824219-7.175781 16-16 16zm0 0"/><path d="m96 288c8.824219 0 16 7.175781 16 16h16c0-17.648438-14.351562-32-32-32zm0 0"/><path d="m424 448h-352c-13.230469 0-24 10.769531-24 24v24h400v-24c0-13.230469-10.769531-24-24-24zm8 32h-368v-8c0-4.414062 3.59375-8 8-8h352c4.40625 0 8 3.585938 8 8zm0 0"/></svg>