<svg height="496pt" viewBox="0 0 496 496" width="496pt" xmlns="http://www.w3.org/2000/svg"><path d="m56 488 16-64h176l40 16h136l16 48zm0 0" fill="#ccd1d9"/><path d="m358.160156 264.238281c45.761719 3.121094 81.839844 41.203125 81.839844 87.761719 0 48.640625-39.359375 88-88 88s-88-39.359375-88-88 39.359375-88 88-88c2.078125 0 4.078125.078125 6.160156.238281zm0 0" fill="#ef7385"/><path d="m408 120-40 64-40-64h16v-120h48v120zm0 0" fill="#fcd770"/><path d="m280 160c0-20.878906-13.441406-38.71875-32.078125-45.28125.078125-.957031.078125-1.757812.078125-2.71875 0-23.921875-17.519531-43.761719-40.480469-47.359375-3.597656-31.839844-30.640625-56.640625-63.519531-56.640625-32.71875 0-59.601562 24.480469-63.519531 56.078125l-.480469-.078125c-26.480469 0-48 21.519531-48 48 0 2.078125.160156 4.160156.398438 6.160156-14.558594 8.238282-24.398438 23.917969-24.398438 41.839844 0 22.398438 15.441406 41.199219 36.238281 46.480469-3.359375 6.71875-5.039062 14.320312-3.917969 22.640625 2.800782 20.320312 21.441407 34.878906 42 34.878906h37.679688v-80l-16-40h80v48l-16 24v48h40c22.078125 0 40-17.921875 40-40 0-6.320312-1.441406-12.238281-4.078125-17.519531 20.71875-5.28125 36.078125-24.082031 36.078125-46.480469zm0 0" fill="#b4dd7f"/><path d="m192 424h-96c15.679688-26.160156 24-56.160156 24-86.640625v-153.359375l-16-40h80v48l-16 24v121.359375c0 30.480469 8.320312 60.480469 24 86.640625zm0 0" fill="#d3a06c"/><path d="m480 480h16v16h-16zm0 0"/><path d="m0 480h16v16h-16zm0 0"/><path d="m429.769531 432h-24.816406c25.910156-17.207031 43.046875-46.632812 43.046875-80 0-47.113281-34.136719-86.320312-78.953125-94.390625 3.152344-7.808594 7.066406-15.34375 11.800781-22.449219l9.816406-14.71875-13.3125-8.875-9.816406 14.722656c-6.230468 9.351563-11.214844 19.34375-15.007812 29.742188-.183594-.007812-.351563-.03125-.527344-.03125-52.9375 0-96 43.0625-96 96 0 33.367188 17.136719 62.792969 43.046875 80h-9.511719l-40-16h-52.832031c-13.503906-24-20.703125-51.070312-20.703125-78.648438v-65.351562h32c26.472656 0 48-21.527344 48-48 0-4.382812-.640625-8.609375-1.742188-12.640625 20.222657-8.742187 33.742188-28.742187 33.742188-51.359375 0-22.367188-13.214844-41.65625-32.214844-50.625-1.136718-24.519531-17.714844-45.144531-41.183594-51.398438-6.578124-33.433593-35.960937-57.976562-70.601562-57.976562-34.328125 0-63.078125 24.167969-70.238281 56.367188-27.945313 3.121093-49.761719 26.863281-49.761719 55.632812 0 .703125.078125 1.390625.105469 2.097656-14.945313 10.398438-24.105469 27.503906-24.105469 45.902344 0 22.617188 13.511719 42.632812 33.769531 51.359375-1.753906 6.160156-2.210937 12.449219-1.355469 18.800781 3.226563 23.847656 24.675782 41.839844 49.882813 41.839844h29.703125v65.351562c0 27.585938-7.199219 54.648438-20.703125 78.648438h-25.542969l-15.992187 64h-17.761719v16h432v-16h-18.238281zm-157.769531-80c0-42.648438 33.574219-77.511719 75.671875-79.785156-1.785156 7.679687-2.894531 15.527344-3.367187 23.480468-17.328126-1.351562-28.625-6.808593-28.753907-6.863281l-7.136719 14.328125c.738282.351563 17.992188 8.839844 43.585938 8.839844s42.847656-8.488281 43.574219-8.839844l-7.160157-14.3125c-.117187.0625-10.988281 5.375-28.109374 6.800782.511718-7.6875 1.792968-15.25 3.695312-22.640626 38.425781 5.816407 68 38.96875 68 78.992188 0 44.113281-35.886719 80-80 80s-80-35.886719-80-80zm-144-14.648438v-81.351562h-45.703125c-17.242187 0-31.863281-12.03125-34.023437-27.992188-.824219-6.070312.222656-12.128906 3.109374-18l4.351563-8.855468-9.566406-2.425782c-17.761719-4.503906-30.167969-20.421874-30.167969-38.726562 0-10.703125 4.320312-20.808594 11.679688-28.214844 8.015624 21.125 28.417968 36.214844 52.320312 36.214844v-16c-22.054688 0-40-17.945312-40-40 0-19.335938 13.792969-35.496094 32.054688-39.199219.136718 12.335938 3.394531 24.457031 9.53125 35.09375l13.855468-7.992187c-4.875-8.429688-7.441406-18.085938-7.441406-27.902344 0-30.878906 25.128906-56 56-56 28.464844 0 52.367188 21.3125 55.601562 49.558594l.6875 6.042968 6.007813.949219c17.007813 2.6875 29.933594 15.625 32.992187 31.976563-2.394531-.3125-4.808593-.527344-7.289062-.527344-30.871094 0-56 25.121094-56 56h16c0-22.054688 17.945312-40 40-40s40 17.945312 40 40c0 16.289062-9.832031 30.65625-24.480469 36.816406-8.664062-12.558594-23.136719-20.816406-39.519531-20.816406v16c17.648438 0 32 14.351562 32 32s-14.351562 32-32 32h-32v-37.574219l14.65625-21.984375-13.3125-8.875-17.34375 26.007813v123.777343c0 27.351563 6.414062 54.265626 18.558594 78.648438h-69.117188c12.144532-24.382812 18.558594-51.289062 18.558594-78.648438zm-49.753906 94.648438h168.210937l40 16h131.773438l10.671875 32h-362.65625zm0 0"/><path d="m88 448h16v16h-16zm0 0"/><path d="m160 448h16v16h-16zm0 0"/><path d="m216 448h16v16h-16zm0 0"/><path d="m96.566406 146.976562 15.433594 38.558594v54.464844h16v-57.535156l-16.566406-41.441406zm0 0"/><path d="m104 72h16c0-13.230469 10.769531-24 24-24v-16c-22.054688 0-40 17.945312-40 40zm0 0"/><path d="m304 352h-16c0 35.289062 28.710938 64 64 64v-16c-26.472656 0-48-21.527344-48-48zm0 0"/><path d="m422.441406 112h-22.441406v-112h-16v128h9.558594l-25.558594 40.902344-25.558594-40.902344h9.558594v-80h-16v64h-22.441406l54.441406 87.097656zm0 0"/><path d="m336 16h16v16h-16zm0 0"/></svg>